%TF.GenerationSoftware,KiCad,Pcbnew,(5.1.6)-1*%
%TF.CreationDate,2020-08-12T01:23:20+02:00*%
%TF.ProjectId,boardswap,626f6172-6473-4776-9170-2e6b69636164,rev?*%
%TF.SameCoordinates,Original*%
%TF.FileFunction,Soldermask,Bot*%
%TF.FilePolarity,Negative*%
%FSLAX46Y46*%
G04 Gerber Fmt 4.6, Leading zero omitted, Abs format (unit mm)*
G04 Created by KiCad (PCBNEW (5.1.6)-1) date 2020-08-12 01:23:20*
%MOMM*%
%LPD*%
G01*
G04 APERTURE LIST*
%ADD10C,2.501900*%
%ADD11R,2.650000X2.600000*%
%ADD12C,1.801800*%
%ADD13C,4.087800*%
%ADD14C,3.100000*%
%ADD15C,1.100000*%
%ADD16C,7.100240*%
%ADD17C,7.101300*%
%ADD18R,1.600000X0.650000*%
%ADD19R,0.650000X1.600000*%
%ADD20C,3.148000*%
%ADD21R,1.500000X1.300000*%
%ADD22R,1.900000X1.200000*%
%ADD23R,0.700000X1.550000*%
%ADD24R,0.400000X1.550000*%
%ADD25O,1.100000X2.200000*%
%ADD26C,0.750000*%
%ADD27O,1.100000X1.700000*%
%ADD28R,1.000000X1.300000*%
%ADD29R,1.300000X1.000000*%
G04 APERTURE END LIST*
D10*
%TO.C,REF\u002A\u002A*%
X-18675000Y164361550D02*
X-14875000Y164361550D01*
X-18675000Y169663450D02*
X-14875000Y169663450D01*
X262525000Y164361550D02*
X266375000Y164361550D01*
X262525000Y169663450D02*
X266325000Y169663450D01*
X-14875000Y164361550D02*
G75*
G03*
X-12224050Y167012500I0J2650950D01*
G01*
X-12224050Y167012500D02*
G75*
G03*
X-14875000Y169663450I-2650950J0D01*
G01*
X262525000Y164361550D02*
G75*
G02*
X259874050Y167012500I0J2650950D01*
G01*
X259874050Y167012500D02*
G75*
G02*
X262525000Y169663450I2650950J0D01*
G01*
%TD*%
D11*
%TO.C,MX15*%
X-12322500Y197802500D03*
D12*
X-9842500Y195262500D03*
X317500Y195262500D03*
D13*
X-4762500Y195262500D03*
D14*
X-8572500Y197802500D03*
X-2222500Y200342500D03*
D11*
X1527500Y200342500D03*
%TD*%
D15*
%TO.C,REF\u002A\u002A*%
X260686522Y165174022D03*
X262525000Y164412500D03*
X264567035Y164412500D03*
X264567035Y169612500D03*
X262525000Y169612500D03*
X260686522Y168850978D03*
X259925000Y167012500D03*
X-16917035Y164412500D03*
X-16917035Y169612500D03*
X-13036522Y165174022D03*
X-13036522Y168850978D03*
X-14875000Y164412500D03*
X-14875000Y169612500D03*
X-12275000Y167012500D03*
X242575000Y197929500D03*
X240175000Y197912500D03*
X240175000Y193312500D03*
X242575000Y193312500D03*
X241375000Y193312500D03*
X241375000Y197912500D03*
X8151346Y193986154D03*
X4898654Y193986154D03*
X8151346Y197238846D03*
X4898654Y197238846D03*
X6525000Y193312500D03*
X8825000Y195612500D03*
X4225000Y195612500D03*
X6525000Y197912500D03*
D16*
X241375000Y195612500D03*
D17*
X6525000Y195612500D03*
%TD*%
D18*
%TO.C,U1*%
X13439095Y146361545D03*
X13439095Y147161545D03*
X13439095Y147961545D03*
X13439095Y148761545D03*
X13439095Y149561545D03*
X13439095Y150361545D03*
X13439095Y151161545D03*
X13439095Y151961545D03*
X13439095Y152761545D03*
X13439095Y153561545D03*
X13439095Y154361545D03*
D19*
X11739095Y156061545D03*
X10939095Y156061545D03*
X10139095Y156061545D03*
X9339095Y156061545D03*
X8539095Y156061545D03*
X7739095Y156061545D03*
X6939095Y156061545D03*
X6139095Y156061545D03*
X5339095Y156061545D03*
X4539095Y156061545D03*
X3739095Y156061545D03*
D18*
X2039095Y154361545D03*
X2039095Y153561545D03*
X2039095Y152761545D03*
X2039095Y151961545D03*
X2039095Y151161545D03*
X2039095Y150361545D03*
X2039095Y149561545D03*
X2039095Y148761545D03*
X2039095Y147961545D03*
X2039095Y147161545D03*
X2039095Y146361545D03*
D19*
X3739095Y144661545D03*
X4539095Y144661545D03*
X5339095Y144661545D03*
X6139095Y144661545D03*
X6939095Y144661545D03*
X7739095Y144661545D03*
X8539095Y144661545D03*
X9339095Y144661545D03*
X10139095Y144661545D03*
X10939095Y144661545D03*
X11739095Y144661545D03*
%TD*%
%TO.C,C7*%
G36*
G01*
X14798505Y145570925D02*
X14798505Y146133425D01*
G75*
G02*
X15042255Y146377175I243750J0D01*
G01*
X15529755Y146377175D01*
G75*
G02*
X15773505Y146133425I0J-243750D01*
G01*
X15773505Y145570925D01*
G75*
G02*
X15529755Y145327175I-243750J0D01*
G01*
X15042255Y145327175D01*
G75*
G02*
X14798505Y145570925I0J243750D01*
G01*
G37*
G36*
G01*
X16373505Y145570925D02*
X16373505Y146133425D01*
G75*
G02*
X16617255Y146377175I243750J0D01*
G01*
X17104755Y146377175D01*
G75*
G02*
X17348505Y146133425I0J-243750D01*
G01*
X17348505Y145570925D01*
G75*
G02*
X17104755Y145327175I-243750J0D01*
G01*
X16617255Y145327175D01*
G75*
G02*
X16373505Y145570925I0J243750D01*
G01*
G37*
%TD*%
%TO.C,C6*%
G36*
G01*
X6464095Y139617775D02*
X6464095Y140180275D01*
G75*
G02*
X6707845Y140424025I243750J0D01*
G01*
X7195345Y140424025D01*
G75*
G02*
X7439095Y140180275I0J-243750D01*
G01*
X7439095Y139617775D01*
G75*
G02*
X7195345Y139374025I-243750J0D01*
G01*
X6707845Y139374025D01*
G75*
G02*
X6464095Y139617775I0J243750D01*
G01*
G37*
G36*
G01*
X8039095Y139617775D02*
X8039095Y140180275D01*
G75*
G02*
X8282845Y140424025I243750J0D01*
G01*
X8770345Y140424025D01*
G75*
G02*
X9014095Y140180275I0J-243750D01*
G01*
X9014095Y139617775D01*
G75*
G02*
X8770345Y139374025I-243750J0D01*
G01*
X8282845Y139374025D01*
G75*
G02*
X8039095Y139617775I0J243750D01*
G01*
G37*
%TD*%
%TO.C,C5*%
G36*
G01*
X7246910Y161611615D02*
X7246910Y161049115D01*
G75*
G02*
X7003160Y160805365I-243750J0D01*
G01*
X6515660Y160805365D01*
G75*
G02*
X6271910Y161049115I0J243750D01*
G01*
X6271910Y161611615D01*
G75*
G02*
X6515660Y161855365I243750J0D01*
G01*
X7003160Y161855365D01*
G75*
G02*
X7246910Y161611615I0J-243750D01*
G01*
G37*
G36*
G01*
X8821910Y161611615D02*
X8821910Y161049115D01*
G75*
G02*
X8578160Y160805365I-243750J0D01*
G01*
X8090660Y160805365D01*
G75*
G02*
X7846910Y161049115I0J243750D01*
G01*
X7846910Y161611615D01*
G75*
G02*
X8090660Y161855365I243750J0D01*
G01*
X8578160Y161855365D01*
G75*
G02*
X8821910Y161611615I0J-243750D01*
G01*
G37*
%TD*%
%TO.C,C4*%
G36*
G01*
X8821910Y159825670D02*
X8821910Y159263170D01*
G75*
G02*
X8578160Y159019420I-243750J0D01*
G01*
X8090660Y159019420D01*
G75*
G02*
X7846910Y159263170I0J243750D01*
G01*
X7846910Y159825670D01*
G75*
G02*
X8090660Y160069420I243750J0D01*
G01*
X8578160Y160069420D01*
G75*
G02*
X8821910Y159825670I0J-243750D01*
G01*
G37*
G36*
G01*
X7246910Y159825670D02*
X7246910Y159263170D01*
G75*
G02*
X7003160Y159019420I-243750J0D01*
G01*
X6515660Y159019420D01*
G75*
G02*
X6271910Y159263170I0J243750D01*
G01*
X6271910Y159825670D01*
G75*
G02*
X6515660Y160069420I243750J0D01*
G01*
X7003160Y160069420D01*
G75*
G02*
X7246910Y159825670I0J-243750D01*
G01*
G37*
%TD*%
D11*
%TO.C,MX68*%
X244852500Y140652500D03*
D12*
X247332500Y138112500D03*
X257492500Y138112500D03*
D13*
X252412500Y138112500D03*
D14*
X248602500Y140652500D03*
X254952500Y143192500D03*
D11*
X258702500Y143192500D03*
%TD*%
D20*
%TO.C,REF\u002A\u002A*%
X154775000Y131127500D03*
X130975000Y131127500D03*
D13*
X154775000Y146367500D03*
X130975000Y146367500D03*
%TD*%
D20*
%TO.C,REF\u002A\u002A*%
X116675000Y131127500D03*
X92875000Y131127500D03*
D13*
X116675000Y146367500D03*
X92875000Y146367500D03*
%TD*%
D21*
%TO.C,Y1*%
X-3571890Y148319380D03*
X-5771890Y148319380D03*
X-5771890Y150019380D03*
X-3571890Y150019380D03*
%TD*%
D22*
%TO.C,SW1*%
X3920355Y132691190D03*
X10120355Y132691190D03*
X3920355Y136391190D03*
X10120355Y136391190D03*
%TD*%
%TO.C,R6*%
G36*
G01*
X-14996940Y214713400D02*
X-15959440Y214713400D01*
G75*
G02*
X-16228190Y214982150I0J268750D01*
G01*
X-16228190Y215519650D01*
G75*
G02*
X-15959440Y215788400I268750J0D01*
G01*
X-14996940Y215788400D01*
G75*
G02*
X-14728190Y215519650I0J-268750D01*
G01*
X-14728190Y214982150D01*
G75*
G02*
X-14996940Y214713400I-268750J0D01*
G01*
G37*
G36*
G01*
X-14996940Y212838400D02*
X-15959440Y212838400D01*
G75*
G02*
X-16228190Y213107150I0J268750D01*
G01*
X-16228190Y213644650D01*
G75*
G02*
X-15959440Y213913400I268750J0D01*
G01*
X-14996940Y213913400D01*
G75*
G02*
X-14728190Y213644650I0J-268750D01*
G01*
X-14728190Y213107150D01*
G75*
G02*
X-14996940Y212838400I-268750J0D01*
G01*
G37*
%TD*%
%TO.C,R5*%
G36*
G01*
X-12020365Y214713400D02*
X-12982865Y214713400D01*
G75*
G02*
X-13251615Y214982150I0J268750D01*
G01*
X-13251615Y215519650D01*
G75*
G02*
X-12982865Y215788400I268750J0D01*
G01*
X-12020365Y215788400D01*
G75*
G02*
X-11751615Y215519650I0J-268750D01*
G01*
X-11751615Y214982150D01*
G75*
G02*
X-12020365Y214713400I-268750J0D01*
G01*
G37*
G36*
G01*
X-12020365Y212838400D02*
X-12982865Y212838400D01*
G75*
G02*
X-13251615Y213107150I0J268750D01*
G01*
X-13251615Y213644650D01*
G75*
G02*
X-12982865Y213913400I268750J0D01*
G01*
X-12020365Y213913400D01*
G75*
G02*
X-11751615Y213644650I0J-268750D01*
G01*
X-11751615Y213107150D01*
G75*
G02*
X-12020365Y212838400I-268750J0D01*
G01*
G37*
%TD*%
%TO.C,R4*%
G36*
G01*
X10234420Y163311625D02*
X11196920Y163311625D01*
G75*
G02*
X11465670Y163042875I0J-268750D01*
G01*
X11465670Y162505375D01*
G75*
G02*
X11196920Y162236625I-268750J0D01*
G01*
X10234420Y162236625D01*
G75*
G02*
X9965670Y162505375I0J268750D01*
G01*
X9965670Y163042875D01*
G75*
G02*
X10234420Y163311625I268750J0D01*
G01*
G37*
G36*
G01*
X10234420Y165186625D02*
X11196920Y165186625D01*
G75*
G02*
X11465670Y164917875I0J-268750D01*
G01*
X11465670Y164380375D01*
G75*
G02*
X11196920Y164111625I-268750J0D01*
G01*
X10234420Y164111625D01*
G75*
G02*
X9965670Y164380375I0J268750D01*
G01*
X9965670Y164917875D01*
G75*
G02*
X10234420Y165186625I268750J0D01*
G01*
G37*
%TD*%
%TO.C,R3*%
G36*
G01*
X9410975Y208760250D02*
X8448475Y208760250D01*
G75*
G02*
X8179725Y209029000I0J268750D01*
G01*
X8179725Y209566500D01*
G75*
G02*
X8448475Y209835250I268750J0D01*
G01*
X9410975Y209835250D01*
G75*
G02*
X9679725Y209566500I0J-268750D01*
G01*
X9679725Y209029000D01*
G75*
G02*
X9410975Y208760250I-268750J0D01*
G01*
G37*
G36*
G01*
X9410975Y206885250D02*
X8448475Y206885250D01*
G75*
G02*
X8179725Y207154000I0J268750D01*
G01*
X8179725Y207691500D01*
G75*
G02*
X8448475Y207960250I268750J0D01*
G01*
X9410975Y207960250D01*
G75*
G02*
X9679725Y207691500I0J-268750D01*
G01*
X9679725Y207154000D01*
G75*
G02*
X9410975Y206885250I-268750J0D01*
G01*
G37*
%TD*%
%TO.C,R2*%
G36*
G01*
X6434400Y208760250D02*
X5471900Y208760250D01*
G75*
G02*
X5203150Y209029000I0J268750D01*
G01*
X5203150Y209566500D01*
G75*
G02*
X5471900Y209835250I268750J0D01*
G01*
X6434400Y209835250D01*
G75*
G02*
X6703150Y209566500I0J-268750D01*
G01*
X6703150Y209029000D01*
G75*
G02*
X6434400Y208760250I-268750J0D01*
G01*
G37*
G36*
G01*
X6434400Y206885250D02*
X5471900Y206885250D01*
G75*
G02*
X5203150Y207154000I0J268750D01*
G01*
X5203150Y207691500D01*
G75*
G02*
X5471900Y207960250I268750J0D01*
G01*
X6434400Y207960250D01*
G75*
G02*
X6703150Y207691500I0J-268750D01*
G01*
X6703150Y207154000D01*
G75*
G02*
X6434400Y206885250I-268750J0D01*
G01*
G37*
%TD*%
%TO.C,R1*%
G36*
G01*
X-1590630Y146928740D02*
X-1590630Y145966240D01*
G75*
G02*
X-1859380Y145697490I-268750J0D01*
G01*
X-2396880Y145697490D01*
G75*
G02*
X-2665630Y145966240I0J268750D01*
G01*
X-2665630Y146928740D01*
G75*
G02*
X-2396880Y147197490I268750J0D01*
G01*
X-1859380Y147197490D01*
G75*
G02*
X-1590630Y146928740I0J-268750D01*
G01*
G37*
G36*
G01*
X284370Y146928740D02*
X284370Y145966240D01*
G75*
G02*
X15620Y145697490I-268750J0D01*
G01*
X-521880Y145697490D01*
G75*
G02*
X-790630Y145966240I0J268750D01*
G01*
X-790630Y146928740D01*
G75*
G02*
X-521880Y147197490I268750J0D01*
G01*
X15620Y147197490D01*
G75*
G02*
X284370Y146928740I0J-268750D01*
G01*
G37*
%TD*%
D11*
%TO.C,MX67*%
X221040000Y140652500D03*
D12*
X223520000Y138112500D03*
X233680000Y138112500D03*
D13*
X228600000Y138112500D03*
D14*
X224790000Y140652500D03*
X231140000Y143192500D03*
D11*
X234890000Y143192500D03*
%TD*%
%TO.C,MX66*%
X201990000Y140652500D03*
D12*
X204470000Y138112500D03*
X214630000Y138112500D03*
D13*
X209550000Y138112500D03*
D14*
X205740000Y140652500D03*
X212090000Y143192500D03*
D11*
X215840000Y143192500D03*
%TD*%
%TO.C,MX65*%
X182940000Y140652500D03*
D12*
X185420000Y138112500D03*
X195580000Y138112500D03*
D13*
X190500000Y138112500D03*
D14*
X186690000Y140652500D03*
X193040000Y143192500D03*
D11*
X196790000Y143192500D03*
%TD*%
%TO.C,MX64*%
X163890000Y140652500D03*
D12*
X166370000Y138112500D03*
X176530000Y138112500D03*
D13*
X171450000Y138112500D03*
D14*
X167640000Y140652500D03*
X173990000Y143192500D03*
D11*
X177740000Y143192500D03*
%TD*%
%TO.C,MX63*%
X135315000Y140652500D03*
D12*
X137795000Y138112500D03*
X147955000Y138112500D03*
D13*
X142875000Y138112500D03*
D14*
X139065000Y140652500D03*
X145415000Y143192500D03*
D11*
X149165000Y143192500D03*
%TD*%
%TO.C,MX62*%
X97215000Y140652500D03*
D12*
X99695000Y138112500D03*
X109855000Y138112500D03*
D13*
X104775000Y138112500D03*
D14*
X100965000Y140652500D03*
X107315000Y143192500D03*
D11*
X111065000Y143192500D03*
%TD*%
%TO.C,MX61*%
X68640000Y140652500D03*
D12*
X71120000Y138112500D03*
X81280000Y138112500D03*
D13*
X76200000Y138112500D03*
D14*
X72390000Y140652500D03*
X78740000Y143192500D03*
D11*
X82490000Y143192500D03*
%TD*%
%TO.C,MX60*%
X49590000Y140652500D03*
D12*
X52070000Y138112500D03*
X62230000Y138112500D03*
D13*
X57150000Y138112500D03*
D14*
X53340000Y140652500D03*
X59690000Y143192500D03*
D11*
X63440000Y143192500D03*
%TD*%
%TO.C,MX59*%
X30540000Y140652500D03*
D12*
X33020000Y138112500D03*
X43180000Y138112500D03*
D13*
X38100000Y138112500D03*
D14*
X34290000Y140652500D03*
X40640000Y143192500D03*
D11*
X44390000Y143192500D03*
%TD*%
%TO.C,MX58*%
X11490000Y140652500D03*
D12*
X13970000Y138112500D03*
X24130000Y138112500D03*
D13*
X19050000Y138112500D03*
D14*
X15240000Y140652500D03*
X21590000Y143192500D03*
D11*
X25340000Y143192500D03*
%TD*%
%TO.C,MX57*%
X-12322500Y140652500D03*
D12*
X-9842500Y138112500D03*
X317500Y138112500D03*
D13*
X-4762500Y138112500D03*
D14*
X-8572500Y140652500D03*
X-2222500Y143192500D03*
D11*
X1527500Y143192500D03*
%TD*%
%TO.C,MX56*%
X244852500Y159702500D03*
D12*
X247332500Y157162500D03*
X257492500Y157162500D03*
D13*
X252412500Y157162500D03*
D14*
X248602500Y159702500D03*
X254952500Y162242500D03*
D11*
X258702500Y162242500D03*
%TD*%
%TO.C,MX55*%
X221040000Y159702500D03*
D12*
X223520000Y157162500D03*
X233680000Y157162500D03*
D13*
X228600000Y157162500D03*
D14*
X224790000Y159702500D03*
X231140000Y162242500D03*
D11*
X234890000Y162242500D03*
%TD*%
%TO.C,MX54*%
X201990000Y159702500D03*
D12*
X204470000Y157162500D03*
X214630000Y157162500D03*
D13*
X209550000Y157162500D03*
D14*
X205740000Y159702500D03*
X212090000Y162242500D03*
D11*
X215840000Y162242500D03*
%TD*%
%TO.C,MX53*%
X182940000Y159702500D03*
D12*
X185420000Y157162500D03*
X195580000Y157162500D03*
D13*
X190500000Y157162500D03*
D14*
X186690000Y159702500D03*
X193040000Y162242500D03*
D11*
X196790000Y162242500D03*
%TD*%
%TO.C,MX52*%
X163890000Y159702500D03*
D12*
X166370000Y157162500D03*
X176530000Y157162500D03*
D13*
X171450000Y157162500D03*
D14*
X167640000Y159702500D03*
X173990000Y162242500D03*
D11*
X177740000Y162242500D03*
%TD*%
%TO.C,MX51*%
X144840000Y159702500D03*
D12*
X147320000Y157162500D03*
X157480000Y157162500D03*
D13*
X152400000Y157162500D03*
D14*
X148590000Y159702500D03*
X154940000Y162242500D03*
D11*
X158690000Y162242500D03*
%TD*%
%TO.C,MX50*%
X125790000Y159702500D03*
D12*
X128270000Y157162500D03*
X138430000Y157162500D03*
D13*
X133350000Y157162500D03*
D14*
X129540000Y159702500D03*
X135890000Y162242500D03*
D11*
X139640000Y162242500D03*
%TD*%
%TO.C,MX49*%
X106740000Y159702500D03*
D12*
X109220000Y157162500D03*
X119380000Y157162500D03*
D13*
X114300000Y157162500D03*
D14*
X110490000Y159702500D03*
X116840000Y162242500D03*
D11*
X120590000Y162242500D03*
%TD*%
%TO.C,MX48*%
X87690000Y159702500D03*
D12*
X90170000Y157162500D03*
X100330000Y157162500D03*
D13*
X95250000Y157162500D03*
D14*
X91440000Y159702500D03*
X97790000Y162242500D03*
D11*
X101540000Y162242500D03*
%TD*%
%TO.C,MX47*%
X68640000Y159702500D03*
D12*
X71120000Y157162500D03*
X81280000Y157162500D03*
D13*
X76200000Y157162500D03*
D14*
X72390000Y159702500D03*
X78740000Y162242500D03*
D11*
X82490000Y162242500D03*
%TD*%
%TO.C,MX46*%
X49590000Y159702500D03*
D12*
X52070000Y157162500D03*
X62230000Y157162500D03*
D13*
X57150000Y157162500D03*
D14*
X53340000Y159702500D03*
X59690000Y162242500D03*
D11*
X63440000Y162242500D03*
%TD*%
%TO.C,MX45*%
X30540000Y159702500D03*
D12*
X33020000Y157162500D03*
X43180000Y157162500D03*
D13*
X38100000Y157162500D03*
D14*
X34290000Y159702500D03*
X40640000Y162242500D03*
D11*
X44390000Y162242500D03*
%TD*%
%TO.C,MX44*%
X11490000Y159702500D03*
D12*
X13970000Y157162500D03*
X24130000Y157162500D03*
D13*
X19050000Y157162500D03*
D14*
X15240000Y159702500D03*
X21590000Y162242500D03*
D11*
X25340000Y162242500D03*
%TD*%
%TO.C,MX43*%
X-12322500Y159702500D03*
D12*
X-9842500Y157162500D03*
X317500Y157162500D03*
D13*
X-4762500Y157162500D03*
D14*
X-8572500Y159702500D03*
X-2222500Y162242500D03*
D11*
X1527500Y162242500D03*
%TD*%
%TO.C,MX42*%
X244852500Y178752500D03*
D12*
X247332500Y176212500D03*
X257492500Y176212500D03*
D13*
X252412500Y176212500D03*
D14*
X248602500Y178752500D03*
X254952500Y181292500D03*
D11*
X258702500Y181292500D03*
%TD*%
%TO.C,MX41*%
X221040000Y178752500D03*
D12*
X223520000Y176212500D03*
X233680000Y176212500D03*
D13*
X228600000Y176212500D03*
D14*
X224790000Y178752500D03*
X231140000Y181292500D03*
D11*
X234890000Y181292500D03*
%TD*%
%TO.C,MX40*%
X201990000Y178752500D03*
D12*
X204470000Y176212500D03*
X214630000Y176212500D03*
D13*
X209550000Y176212500D03*
D14*
X205740000Y178752500D03*
X212090000Y181292500D03*
D11*
X215840000Y181292500D03*
%TD*%
%TO.C,MX39*%
X182940000Y178752500D03*
D12*
X185420000Y176212500D03*
X195580000Y176212500D03*
D13*
X190500000Y176212500D03*
D14*
X186690000Y178752500D03*
X193040000Y181292500D03*
D11*
X196790000Y181292500D03*
%TD*%
%TO.C,MX38*%
X163890000Y178752500D03*
D12*
X166370000Y176212500D03*
X176530000Y176212500D03*
D13*
X171450000Y176212500D03*
D14*
X167640000Y178752500D03*
X173990000Y181292500D03*
D11*
X177740000Y181292500D03*
%TD*%
%TO.C,MX37*%
X144840000Y178752500D03*
D12*
X147320000Y176212500D03*
X157480000Y176212500D03*
D13*
X152400000Y176212500D03*
D14*
X148590000Y178752500D03*
X154940000Y181292500D03*
D11*
X158690000Y181292500D03*
%TD*%
%TO.C,MX36*%
X125790000Y178752500D03*
D12*
X128270000Y176212500D03*
X138430000Y176212500D03*
D13*
X133350000Y176212500D03*
D14*
X129540000Y178752500D03*
X135890000Y181292500D03*
D11*
X139640000Y181292500D03*
%TD*%
%TO.C,MX35*%
X106740000Y178752500D03*
D12*
X109220000Y176212500D03*
X119380000Y176212500D03*
D13*
X114300000Y176212500D03*
D14*
X110490000Y178752500D03*
X116840000Y181292500D03*
D11*
X120590000Y181292500D03*
%TD*%
%TO.C,MX34*%
X87690000Y178752500D03*
D12*
X90170000Y176212500D03*
X100330000Y176212500D03*
D13*
X95250000Y176212500D03*
D14*
X91440000Y178752500D03*
X97790000Y181292500D03*
D11*
X101540000Y181292500D03*
%TD*%
%TO.C,MX33*%
X68640000Y178752500D03*
D12*
X71120000Y176212500D03*
X81280000Y176212500D03*
D13*
X76200000Y176212500D03*
D14*
X72390000Y178752500D03*
X78740000Y181292500D03*
D11*
X82490000Y181292500D03*
%TD*%
%TO.C,MX32*%
X49590000Y178752500D03*
D12*
X52070000Y176212500D03*
X62230000Y176212500D03*
D13*
X57150000Y176212500D03*
D14*
X53340000Y178752500D03*
X59690000Y181292500D03*
D11*
X63440000Y181292500D03*
%TD*%
%TO.C,MX31*%
X30540000Y178752500D03*
D12*
X33020000Y176212500D03*
X43180000Y176212500D03*
D13*
X38100000Y176212500D03*
D14*
X34290000Y178752500D03*
X40640000Y181292500D03*
D11*
X44390000Y181292500D03*
%TD*%
%TO.C,MX30*%
X11490000Y178752500D03*
D12*
X13970000Y176212500D03*
X24130000Y176212500D03*
D13*
X19050000Y176212500D03*
D14*
X15240000Y178752500D03*
X21590000Y181292500D03*
D11*
X25340000Y181292500D03*
%TD*%
%TO.C,MX29*%
X-12322500Y178752500D03*
D12*
X-9842500Y176212500D03*
X317500Y176212500D03*
D13*
X-4762500Y176212500D03*
D14*
X-8572500Y178752500D03*
X-2222500Y181292500D03*
D11*
X1527500Y181292500D03*
%TD*%
%TO.C,MX28*%
X259972500Y192722500D03*
D12*
X257492500Y195262500D03*
X247332500Y195262500D03*
D13*
X252412500Y195262500D03*
D14*
X256222500Y192722500D03*
X249872500Y190182500D03*
D11*
X246122500Y190182500D03*
%TD*%
%TO.C,MX27*%
X221040000Y197802500D03*
D12*
X223520000Y195262500D03*
X233680000Y195262500D03*
D13*
X228600000Y195262500D03*
D14*
X224790000Y197802500D03*
X231140000Y200342500D03*
D11*
X234890000Y200342500D03*
%TD*%
%TO.C,MX26*%
X201990000Y197802500D03*
D12*
X204470000Y195262500D03*
X214630000Y195262500D03*
D13*
X209550000Y195262500D03*
D14*
X205740000Y197802500D03*
X212090000Y200342500D03*
D11*
X215840000Y200342500D03*
%TD*%
%TO.C,MX25*%
X182940000Y197802500D03*
D12*
X185420000Y195262500D03*
X195580000Y195262500D03*
D13*
X190500000Y195262500D03*
D14*
X186690000Y197802500D03*
X193040000Y200342500D03*
D11*
X196790000Y200342500D03*
%TD*%
%TO.C,MX24*%
X163890000Y197802500D03*
D12*
X166370000Y195262500D03*
X176530000Y195262500D03*
D13*
X171450000Y195262500D03*
D14*
X167640000Y197802500D03*
X173990000Y200342500D03*
D11*
X177740000Y200342500D03*
%TD*%
%TO.C,MX23*%
X144840000Y197802500D03*
D12*
X147320000Y195262500D03*
X157480000Y195262500D03*
D13*
X152400000Y195262500D03*
D14*
X148590000Y197802500D03*
X154940000Y200342500D03*
D11*
X158690000Y200342500D03*
%TD*%
%TO.C,MX22*%
X125790000Y197802500D03*
D12*
X128270000Y195262500D03*
X138430000Y195262500D03*
D13*
X133350000Y195262500D03*
D14*
X129540000Y197802500D03*
X135890000Y200342500D03*
D11*
X139640000Y200342500D03*
%TD*%
%TO.C,MX21*%
X106740000Y197802500D03*
D12*
X109220000Y195262500D03*
X119380000Y195262500D03*
D13*
X114300000Y195262500D03*
D14*
X110490000Y197802500D03*
X116840000Y200342500D03*
D11*
X120590000Y200342500D03*
%TD*%
%TO.C,MX20*%
X87690000Y197802500D03*
D12*
X90170000Y195262500D03*
X100330000Y195262500D03*
D13*
X95250000Y195262500D03*
D14*
X91440000Y197802500D03*
X97790000Y200342500D03*
D11*
X101540000Y200342500D03*
%TD*%
%TO.C,MX19*%
X68640000Y197802500D03*
D12*
X71120000Y195262500D03*
X81280000Y195262500D03*
D13*
X76200000Y195262500D03*
D14*
X72390000Y197802500D03*
X78740000Y200342500D03*
D11*
X82490000Y200342500D03*
%TD*%
%TO.C,MX18*%
X49590000Y197802500D03*
D12*
X52070000Y195262500D03*
X62230000Y195262500D03*
D13*
X57150000Y195262500D03*
D14*
X53340000Y197802500D03*
X59690000Y200342500D03*
D11*
X63440000Y200342500D03*
%TD*%
%TO.C,MX17*%
X30540000Y197802500D03*
D12*
X33020000Y195262500D03*
X43180000Y195262500D03*
D13*
X38100000Y195262500D03*
D14*
X34290000Y197802500D03*
X40640000Y200342500D03*
D11*
X44390000Y200342500D03*
%TD*%
%TO.C,MX16*%
X11490000Y197802500D03*
D12*
X13970000Y195262500D03*
X24130000Y195262500D03*
D13*
X19050000Y195262500D03*
D14*
X15240000Y197802500D03*
X21590000Y200342500D03*
D11*
X25340000Y200342500D03*
%TD*%
%TO.C,MX14*%
X244852500Y216852500D03*
D12*
X247332500Y214312500D03*
X257492500Y214312500D03*
D13*
X252412500Y214312500D03*
D14*
X248602500Y216852500D03*
X254952500Y219392500D03*
D11*
X258702500Y219392500D03*
%TD*%
%TO.C,MX13*%
X221040000Y216852500D03*
D12*
X223520000Y214312500D03*
X233680000Y214312500D03*
D13*
X228600000Y214312500D03*
D14*
X224790000Y216852500D03*
X231140000Y219392500D03*
D11*
X234890000Y219392500D03*
%TD*%
%TO.C,MX12*%
X201990000Y216852500D03*
D12*
X204470000Y214312500D03*
X214630000Y214312500D03*
D13*
X209550000Y214312500D03*
D14*
X205740000Y216852500D03*
X212090000Y219392500D03*
D11*
X215840000Y219392500D03*
%TD*%
%TO.C,MX11*%
X182940000Y216852500D03*
D12*
X185420000Y214312500D03*
X195580000Y214312500D03*
D13*
X190500000Y214312500D03*
D14*
X186690000Y216852500D03*
X193040000Y219392500D03*
D11*
X196790000Y219392500D03*
%TD*%
%TO.C,MX10*%
X163890000Y216852500D03*
D12*
X166370000Y214312500D03*
X176530000Y214312500D03*
D13*
X171450000Y214312500D03*
D14*
X167640000Y216852500D03*
X173990000Y219392500D03*
D11*
X177740000Y219392500D03*
%TD*%
%TO.C,MX9*%
X144840000Y216852500D03*
D12*
X147320000Y214312500D03*
X157480000Y214312500D03*
D13*
X152400000Y214312500D03*
D14*
X148590000Y216852500D03*
X154940000Y219392500D03*
D11*
X158690000Y219392500D03*
%TD*%
%TO.C,MX8*%
X125790000Y216852500D03*
D12*
X128270000Y214312500D03*
X138430000Y214312500D03*
D13*
X133350000Y214312500D03*
D14*
X129540000Y216852500D03*
X135890000Y219392500D03*
D11*
X139640000Y219392500D03*
%TD*%
%TO.C,MX7*%
X106740000Y216852500D03*
D12*
X109220000Y214312500D03*
X119380000Y214312500D03*
D13*
X114300000Y214312500D03*
D14*
X110490000Y216852500D03*
X116840000Y219392500D03*
D11*
X120590000Y219392500D03*
%TD*%
%TO.C,MX6*%
X87690000Y216852500D03*
D12*
X90170000Y214312500D03*
X100330000Y214312500D03*
D13*
X95250000Y214312500D03*
D14*
X91440000Y216852500D03*
X97790000Y219392500D03*
D11*
X101540000Y219392500D03*
%TD*%
%TO.C,MX5*%
X68640000Y216852500D03*
D12*
X71120000Y214312500D03*
X81280000Y214312500D03*
D13*
X76200000Y214312500D03*
D14*
X72390000Y216852500D03*
X78740000Y219392500D03*
D11*
X82490000Y219392500D03*
%TD*%
%TO.C,MX4*%
X49590000Y216852500D03*
D12*
X52070000Y214312500D03*
X62230000Y214312500D03*
D13*
X57150000Y214312500D03*
D14*
X53340000Y216852500D03*
X59690000Y219392500D03*
D11*
X63440000Y219392500D03*
%TD*%
%TO.C,MX3*%
X30540000Y216852500D03*
D12*
X33020000Y214312500D03*
X43180000Y214312500D03*
D13*
X38100000Y214312500D03*
D14*
X34290000Y216852500D03*
X40640000Y219392500D03*
D11*
X44390000Y219392500D03*
%TD*%
%TO.C,MX2*%
X11490000Y216852500D03*
D12*
X13970000Y214312500D03*
X24130000Y214312500D03*
D13*
X19050000Y214312500D03*
D14*
X15240000Y216852500D03*
X21590000Y219392500D03*
D11*
X25340000Y219392500D03*
%TD*%
%TO.C,MX1*%
X2797500Y211772500D03*
D12*
X317500Y214312500D03*
X-9842500Y214312500D03*
D13*
X-4762500Y214312500D03*
D14*
X-952500Y211772500D03*
X-7302500Y209232500D03*
D11*
X-11052500Y209232500D03*
%TD*%
D23*
%TO.C,J1*%
X2780000Y218742500D03*
X1980000Y218742500D03*
X-2920000Y218742500D03*
X-3720000Y218742500D03*
X-3720000Y218742500D03*
X-2920000Y218742500D03*
X1980000Y218742500D03*
X2780000Y218742500D03*
D24*
X-2220000Y218742500D03*
X-1720000Y218742500D03*
X-1220000Y218742500D03*
X-220000Y218742500D03*
X280000Y218742500D03*
X780000Y218742500D03*
X1280000Y218742500D03*
X-720000Y218742500D03*
D25*
X3850000Y219657500D03*
X-4790000Y219657500D03*
D26*
X-3360000Y220187500D03*
D27*
X-4790000Y223837500D03*
D26*
X2420000Y220187500D03*
D27*
X3850000Y223837500D03*
%TD*%
%TO.C,F1*%
G36*
G01*
X7014095Y221516865D02*
X7014095Y220206865D01*
G75*
G02*
X6744095Y219936865I-270000J0D01*
G01*
X5934095Y219936865D01*
G75*
G02*
X5664095Y220206865I0J270000D01*
G01*
X5664095Y221516865D01*
G75*
G02*
X5934095Y221786865I270000J0D01*
G01*
X6744095Y221786865D01*
G75*
G02*
X7014095Y221516865I0J-270000D01*
G01*
G37*
G36*
G01*
X9814095Y221516865D02*
X9814095Y220206865D01*
G75*
G02*
X9544095Y219936865I-270000J0D01*
G01*
X8734095Y219936865D01*
G75*
G02*
X8464095Y220206865I0J270000D01*
G01*
X8464095Y221516865D01*
G75*
G02*
X8734095Y221786865I270000J0D01*
G01*
X9544095Y221786865D01*
G75*
G02*
X9814095Y221516865I0J-270000D01*
G01*
G37*
%TD*%
D28*
%TO.C,D68*%
X250763560Y133350000D03*
X254063560Y133350000D03*
%TD*%
%TO.C,D67*%
X226950960Y133350000D03*
X230250960Y133350000D03*
%TD*%
%TO.C,D66*%
X207900880Y133350560D03*
X211200880Y133350560D03*
%TD*%
%TO.C,D65*%
X188850800Y133350560D03*
X192150800Y133350560D03*
%TD*%
%TO.C,D64*%
X169800720Y133350560D03*
X173100720Y133350560D03*
%TD*%
%TO.C,D63*%
X141225600Y133350560D03*
X144525600Y133350560D03*
%TD*%
%TO.C,D62*%
X103125440Y133350560D03*
X106425440Y133350560D03*
%TD*%
%TO.C,D61*%
X74550320Y133350560D03*
X77850320Y133350560D03*
%TD*%
%TO.C,D60*%
X55500240Y133350560D03*
X58800240Y133350560D03*
%TD*%
%TO.C,D59*%
X36450160Y133350560D03*
X39750160Y133350560D03*
%TD*%
%TO.C,D58*%
X17400080Y133350000D03*
X20700080Y133350000D03*
%TD*%
%TO.C,D57*%
X-6412520Y133350000D03*
X-3112520Y133350000D03*
%TD*%
%TO.C,D56*%
X250763560Y152400640D03*
X254063560Y152400640D03*
%TD*%
%TO.C,D55*%
X226950960Y152400000D03*
X230250960Y152400000D03*
%TD*%
%TO.C,D54*%
X207900880Y152400640D03*
X211200880Y152400640D03*
%TD*%
%TO.C,D53*%
X188850800Y152400000D03*
X192150800Y152400000D03*
%TD*%
%TO.C,D52*%
X169800720Y152400640D03*
X173100720Y152400640D03*
%TD*%
%TO.C,D51*%
X150750640Y152400000D03*
X154050640Y152400000D03*
%TD*%
%TO.C,D50*%
X131700560Y152400000D03*
X135000560Y152400000D03*
%TD*%
%TO.C,D49*%
X112650480Y152400000D03*
X115950480Y152400000D03*
%TD*%
%TO.C,D48*%
X93600400Y152400640D03*
X96900400Y152400640D03*
%TD*%
%TO.C,D47*%
X74550320Y152400640D03*
X77850320Y152400640D03*
%TD*%
%TO.C,D46*%
X55500240Y152400640D03*
X58800240Y152400640D03*
%TD*%
%TO.C,D45*%
X36450160Y152400640D03*
X39750160Y152400640D03*
%TD*%
%TO.C,D44*%
X17400080Y152400000D03*
X20700080Y152400000D03*
%TD*%
%TO.C,D43*%
X-6412520Y152400640D03*
X-3112520Y152400640D03*
%TD*%
%TO.C,D42*%
X250763560Y171450000D03*
X254063560Y171450000D03*
%TD*%
%TO.C,D41*%
X226950960Y171450000D03*
X230250960Y171450000D03*
%TD*%
%TO.C,D40*%
X207900880Y171450000D03*
X211200880Y171450000D03*
%TD*%
%TO.C,D39*%
X188850800Y171450000D03*
X192150800Y171450000D03*
%TD*%
%TO.C,D38*%
X169800720Y171450720D03*
X173100720Y171450720D03*
%TD*%
%TO.C,D37*%
X150750640Y171450000D03*
X154050640Y171450000D03*
%TD*%
%TO.C,D36*%
X131700560Y171450720D03*
X135000560Y171450720D03*
%TD*%
%TO.C,D35*%
X112650480Y171450000D03*
X115950480Y171450000D03*
%TD*%
%TO.C,D34*%
X93600400Y171450720D03*
X96900400Y171450720D03*
%TD*%
%TO.C,D33*%
X74550320Y171450000D03*
X77850320Y171450000D03*
%TD*%
%TO.C,D32*%
X55500240Y171450000D03*
X58800240Y171450000D03*
%TD*%
%TO.C,D31*%
X36450160Y171450720D03*
X39750160Y171450720D03*
%TD*%
%TO.C,D30*%
X19843750Y171450000D03*
X16543750Y171450000D03*
%TD*%
%TO.C,D29*%
X-6412520Y171450000D03*
X-3112520Y171450000D03*
%TD*%
%TO.C,D28*%
X254063560Y200025840D03*
X250763560Y200025840D03*
%TD*%
%TO.C,D27*%
X226950960Y190500000D03*
X230250960Y190500000D03*
%TD*%
%TO.C,D26*%
X207900880Y190500800D03*
X211200880Y190500800D03*
%TD*%
%TO.C,D25*%
X188850800Y190500000D03*
X192150800Y190500000D03*
%TD*%
%TO.C,D24*%
X169800720Y190437500D03*
X173100720Y190437500D03*
%TD*%
%TO.C,D23*%
X150750640Y190500800D03*
X154050640Y190500800D03*
%TD*%
%TO.C,D22*%
X131700560Y190500000D03*
X135000560Y190500000D03*
%TD*%
%TO.C,D21*%
X112650480Y190500000D03*
X115950480Y190500000D03*
%TD*%
%TO.C,D20*%
X93600400Y190500000D03*
X96900400Y190500000D03*
%TD*%
%TO.C,D19*%
X74550320Y190500800D03*
X77850320Y190500800D03*
%TD*%
%TO.C,D18*%
X55500240Y190500000D03*
X58800240Y190500000D03*
%TD*%
%TO.C,D17*%
X36450160Y190500800D03*
X39750160Y190500800D03*
%TD*%
%TO.C,D16*%
X17400080Y190500800D03*
X20700080Y190500800D03*
%TD*%
%TO.C,D15*%
X-6412520Y190500000D03*
X-3112520Y190500000D03*
%TD*%
%TO.C,D14*%
X250763560Y209550880D03*
X254063560Y209550880D03*
%TD*%
%TO.C,D13*%
X226950960Y209550000D03*
X230250960Y209550000D03*
%TD*%
%TO.C,D12*%
X207900880Y209550000D03*
X211200880Y209550000D03*
%TD*%
%TO.C,D11*%
X188850800Y209550000D03*
X192150800Y209550000D03*
%TD*%
%TO.C,D10*%
X169800720Y209550000D03*
X173100720Y209550000D03*
%TD*%
%TO.C,D9*%
X150750640Y209550000D03*
X154050640Y209550000D03*
%TD*%
%TO.C,D8*%
X131700560Y209550000D03*
X135000560Y209550000D03*
%TD*%
%TO.C,D7*%
X112650480Y209550880D03*
X115950480Y209550880D03*
%TD*%
%TO.C,D6*%
X93600400Y209550880D03*
X96900400Y209550880D03*
%TD*%
%TO.C,D5*%
X74550320Y209550880D03*
X77850320Y209550880D03*
%TD*%
%TO.C,D4*%
X55500240Y209550880D03*
X58800240Y209550880D03*
%TD*%
%TO.C,D3*%
X36450160Y209550000D03*
X39750160Y209550000D03*
%TD*%
%TO.C,D2*%
X17400080Y209550880D03*
X20700080Y209550880D03*
%TD*%
D29*
%TO.C,D1*%
X-11112500Y217425000D03*
X-11112500Y220725000D03*
%TD*%
%TO.C,C3*%
G36*
G01*
X5243770Y160881920D02*
X4281270Y160881920D01*
G75*
G02*
X4012520Y161150670I0J268750D01*
G01*
X4012520Y161688170D01*
G75*
G02*
X4281270Y161956920I268750J0D01*
G01*
X5243770Y161956920D01*
G75*
G02*
X5512520Y161688170I0J-268750D01*
G01*
X5512520Y161150670D01*
G75*
G02*
X5243770Y160881920I-268750J0D01*
G01*
G37*
G36*
G01*
X5243770Y159006920D02*
X4281270Y159006920D01*
G75*
G02*
X4012520Y159275670I0J268750D01*
G01*
X4012520Y159813170D01*
G75*
G02*
X4281270Y160081920I268750J0D01*
G01*
X5243770Y160081920D01*
G75*
G02*
X5512520Y159813170I0J-268750D01*
G01*
X5512520Y159275670D01*
G75*
G02*
X5243770Y159006920I-268750J0D01*
G01*
G37*
%TD*%
%TO.C,C2*%
G36*
G01*
X-10404725Y147156870D02*
X-10404725Y148119370D01*
G75*
G02*
X-10135975Y148388120I268750J0D01*
G01*
X-9598475Y148388120D01*
G75*
G02*
X-9329725Y148119370I0J-268750D01*
G01*
X-9329725Y147156870D01*
G75*
G02*
X-9598475Y146888120I-268750J0D01*
G01*
X-10135975Y146888120D01*
G75*
G02*
X-10404725Y147156870I0J268750D01*
G01*
G37*
G36*
G01*
X-8529725Y147156870D02*
X-8529725Y148119370D01*
G75*
G02*
X-8260975Y148388120I268750J0D01*
G01*
X-7723475Y148388120D01*
G75*
G02*
X-7454725Y148119370I0J-268750D01*
G01*
X-7454725Y147156870D01*
G75*
G02*
X-7723475Y146888120I-268750J0D01*
G01*
X-8260975Y146888120D01*
G75*
G02*
X-8529725Y147156870I0J268750D01*
G01*
G37*
%TD*%
%TO.C,C1*%
G36*
G01*
X-7454725Y150500630D02*
X-7454725Y149538130D01*
G75*
G02*
X-7723475Y149269380I-268750J0D01*
G01*
X-8260975Y149269380D01*
G75*
G02*
X-8529725Y149538130I0J268750D01*
G01*
X-8529725Y150500630D01*
G75*
G02*
X-8260975Y150769380I268750J0D01*
G01*
X-7723475Y150769380D01*
G75*
G02*
X-7454725Y150500630I0J-268750D01*
G01*
G37*
G36*
G01*
X-9329725Y150500630D02*
X-9329725Y149538130D01*
G75*
G02*
X-9598475Y149269380I-268750J0D01*
G01*
X-10135975Y149269380D01*
G75*
G02*
X-10404725Y149538130I0J268750D01*
G01*
X-10404725Y150500630D01*
G75*
G02*
X-10135975Y150769380I268750J0D01*
G01*
X-9598475Y150769380D01*
G75*
G02*
X-9329725Y150500630I0J-268750D01*
G01*
G37*
%TD*%
M02*
