M48
; DRILL file {KiCad (5.1.6)-1} date 08/12/20 01:23:37
; FORMAT={-:-/ absolute / inch / decimal}
; #@! TF.CreationDate,2020-08-12T01:23:37+02:00
; #@! TF.GenerationSoftware,Kicad,Pcbnew,(5.1.6)-1
; #@! TF.FileFunction,NonPlated,1,2,NPTH
FMAT,2
INCH
T1C0.0256
T2C0.0670
T3C0.1181
T4C0.1200
T5C0.1570
%
G90
G05
T1
X-0.1323Y8.6688
X0.0953Y8.6688
T2
X5.8Y6.1875
X6.2Y6.1875
X9.7375Y6.9375
X10.1375Y6.9375
X2.05Y5.4375
X2.45Y5.4375
X6.55Y5.4375
X6.95Y5.4375
X4.3Y8.4375
X4.7Y8.4375
X0.55Y7.6875
X0.95Y7.6875
X8.05Y7.6875
X8.45Y7.6875
X1.3Y8.4375
X1.7Y8.4375
X-0.3875Y6.9375
X0.0125Y6.9375
X4.3Y6.9375
X4.7Y6.9375
X8.05Y6.1875
X8.45Y6.1875
X3.55Y6.1875
X3.95Y6.1875
X-0.3875Y6.1875
X0.0125Y6.1875
X5.425Y5.4375
X5.825Y5.4375
X7.3Y5.4375
X7.7Y5.4375
X9.7375Y5.4375
X10.1375Y5.4375
X8.8Y8.4375
X9.2Y8.4375
X2.05Y7.6875
X2.45Y7.6875
X8.8Y7.6875
X9.2Y7.6875
X2.05Y8.4375
X2.45Y8.4375
X3.55Y7.6875
X3.95Y7.6875
X1.3Y6.9375
X1.7Y6.9375
X5.05Y6.1875
X5.45Y6.1875
X6.55Y6.9375
X6.95Y6.9375
X-0.3875Y5.4375
X0.0125Y5.4375
X8.05Y5.4375
X8.45Y5.4375
X5.05Y8.4375
X5.45Y8.4375
X2.8Y7.6875
X3.2Y7.6875
X2.8Y6.9375
X3.2Y6.9375
X4.3Y7.6875
X4.7Y7.6875
X3.55Y6.9375
X3.95Y6.9375
X6.55Y6.1875
X6.95Y6.1875
X8.8Y6.1875
X9.2Y6.1875
X1.3Y5.4375
X1.7Y5.4375
X0.55Y5.4375
X0.95Y5.4375
X-0.3875Y7.6875
X0.0125Y7.6875
X8.8Y5.4375
X9.2Y5.4375
X1.3Y7.6875
X1.7Y7.6875
X2.8Y8.4375
X3.2Y8.4375
X5.8Y6.9375
X6.2Y6.9375
X5.8Y7.6875
X6.2Y7.6875
X7.3Y6.1875
X7.7Y6.1875
X7.3Y6.9375
X7.7Y6.9375
X3.925Y5.4375
X4.325Y5.4375
X2.8Y5.4375
X3.2Y5.4375
X6.55Y8.4375
X6.95Y8.4375
X7.3Y8.4375
X7.7Y8.4375
X9.7375Y7.6875
X10.1375Y7.6875
X2.05Y6.9375
X2.45Y6.9375
X0.55Y6.1875
X0.95Y6.1875
X2.05Y6.1875
X2.45Y6.1875
X8.05Y6.9375
X8.45Y6.9375
X5.8Y8.4375
X6.2Y8.4375
X8.05Y8.4375
X8.45Y8.4375
X-0.3875Y8.4375
X0.0125Y8.4375
X5.05Y6.9375
X5.45Y6.9375
X5.05Y7.6875
X5.45Y7.6875
X1.3Y6.1875
X1.7Y6.1875
X2.8Y6.1875
X3.2Y6.1875
X8.8Y6.9375
X9.2Y6.9375
X9.7375Y6.1875
X10.1375Y6.1875
X3.55Y8.4375
X3.95Y8.4375
X9.7375Y8.4375
X10.1375Y8.4375
X6.55Y7.6875
X6.95Y7.6875
X0.55Y8.4375
X0.95Y8.4375
X0.55Y6.9375
X0.95Y6.9375
X7.3Y7.6875
X7.7Y7.6875
X4.3Y6.1875
X4.7Y6.1875
T3
X8.1Y6.2875
X8.35Y6.3875
X3.6Y6.2875
X3.85Y6.3875
X-0.3375Y6.2875
X-0.0875Y6.3875
X5.475Y5.5375
X5.725Y5.6375
X7.35Y5.5375
X7.6Y5.6375
X9.7875Y5.5375
X10.0375Y5.6375
X8.85Y8.5375
X9.1Y8.6375
X2.1Y7.7875
X2.35Y7.8875
X8.85Y7.7875
X9.1Y7.8875
X2.1Y8.5375
X2.35Y8.6375
X3.6Y7.7875
X3.85Y7.8875
X1.35Y7.0375
X1.6Y7.1375
X5.1Y6.2875
X5.35Y6.3875
X6.6Y7.0375
X6.85Y7.1375
X-0.3375Y5.5375
X-0.0875Y5.6375
X8.1Y5.5375
X8.35Y5.6375
X5.1Y8.5375
X5.35Y8.6375
X2.85Y7.7875
X3.1Y7.8875
X2.85Y7.0375
X3.1Y7.1375
X4.35Y7.7875
X4.6Y7.8875
X3.6Y7.0375
X3.85Y7.1375
X6.6Y6.2875
X6.85Y6.3875
X8.85Y6.2875
X9.1Y6.3875
X1.35Y5.5375
X1.6Y5.6375
X0.6Y5.5375
X0.85Y5.6375
X-0.3375Y7.7875
X-0.0875Y7.8875
X8.85Y5.5375
X9.1Y5.6375
X1.35Y7.7875
X1.6Y7.8875
X2.85Y8.5375
X3.1Y8.6375
X5.85Y7.0375
X6.1Y7.1375
X5.85Y7.7875
X6.1Y7.8875
X7.35Y6.2875
X7.6Y6.3875
X7.35Y7.0375
X7.6Y7.1375
X3.975Y5.5375
X4.225Y5.6375
X2.85Y5.5375
X3.1Y5.6375
X6.6Y8.5375
X6.85Y8.6375
X7.35Y8.5375
X7.6Y8.6375
X9.8375Y7.4875
X10.0875Y7.5875
X2.1Y7.0375
X2.35Y7.1375
X0.6Y6.2875
X0.85Y6.3875
X2.1Y6.2875
X2.35Y6.3875
X8.1Y7.0375
X8.35Y7.1375
X5.85Y8.5375
X6.1Y8.6375
X8.1Y8.5375
X8.35Y8.6375
X-0.2875Y8.2375
X-0.0375Y8.3375
X5.1Y7.0375
X5.35Y7.1375
X5.1Y7.7875
X5.35Y7.8875
X1.35Y6.2875
X1.6Y6.3875
X2.85Y6.2875
X3.1Y6.3875
X8.85Y7.0375
X9.1Y7.1375
X9.7875Y6.2875
X10.0375Y6.3875
X3.6Y8.5375
X3.85Y8.6375
X9.7875Y8.5375
X10.0375Y8.6375
X6.6Y7.7875
X6.85Y7.8875
X0.6Y8.5375
X0.85Y8.6375
X0.6Y7.0375
X0.85Y7.1375
X7.35Y7.7875
X7.6Y7.8875
X4.35Y6.2875
X4.6Y6.3875
X5.85Y6.2875
X6.1Y6.3875
X9.7875Y7.0375
X10.0375Y7.1375
X2.1Y5.5375
X2.35Y5.6375
X6.6Y5.5375
X6.85Y5.6375
X4.35Y8.5375
X4.6Y8.6375
X0.6Y7.7875
X0.85Y7.8875
X8.1Y7.7875
X8.35Y7.8875
X1.35Y8.5375
X1.6Y8.6375
X-0.3375Y7.0375
X-0.0875Y7.1375
X4.35Y7.0375
X4.6Y7.1375
T4
X3.6565Y5.1625
X4.5935Y5.1625
X5.1565Y5.1625
X6.0935Y5.1625
T5
X6.0Y6.1875
X9.9375Y6.9375
X2.25Y5.4375
X6.75Y5.4375
X5.1565Y5.7625
X6.0935Y5.7625
X4.5Y8.4375
X0.75Y7.6875
X8.25Y7.6875
X1.5Y8.4375
X-0.1875Y6.9375
X4.5Y6.9375
X8.25Y6.1875
X3.75Y6.1875
X-0.1875Y6.1875
X5.625Y5.4375
X7.5Y5.4375
X9.9375Y5.4375
X9.0Y8.4375
X2.25Y7.6875
X9.0Y7.6875
X2.25Y8.4375
X3.75Y7.6875
X1.5Y6.9375
X5.25Y6.1875
X6.75Y6.9375
X-0.1875Y5.4375
X8.25Y5.4375
X5.25Y8.4375
X3.0Y7.6875
X3.0Y6.9375
X4.5Y7.6875
X3.75Y6.9375
X6.75Y6.1875
X9.0Y6.1875
X1.5Y5.4375
X0.75Y5.4375
X-0.1875Y7.6875
X9.0Y5.4375
X1.5Y7.6875
X3.0Y8.4375
X6.0Y6.9375
X6.0Y7.6875
X7.5Y6.1875
X7.5Y6.9375
X4.125Y5.4375
X3.0Y5.4375
X6.75Y8.4375
X7.5Y8.4375
X9.9375Y7.6875
X2.25Y6.9375
X0.75Y6.1875
X2.25Y6.1875
X8.25Y6.9375
X6.0Y8.4375
X8.25Y8.4375
X-0.1875Y8.4375
X5.25Y6.9375
X5.25Y7.6875
X1.5Y6.1875
X3.0Y6.1875
X9.0Y6.9375
X9.9375Y6.1875
X3.6565Y5.7625
X4.5935Y5.7625
X3.75Y8.4375
X9.9375Y8.4375
X6.75Y7.6875
X0.75Y8.4375
X0.75Y6.9375
X7.5Y7.6875
X4.5Y6.1875
T0
M30
