M48
; DRILL file {KiCad (5.1.6)-1} date 08/12/20 01:23:37
; FORMAT={-:-/ absolute / inch / decimal}
; #@! TF.CreationDate,2020-08-12T01:23:37+02:00
; #@! TF.GenerationSoftware,Kicad,Pcbnew,(5.1.6)-1
; #@! TF.FileFunction,Plated,1,2,PTH
FMAT,2
INCH
T1C0.0157
T2C0.0197
T3C0.0236
T4C0.0984
T5C0.0984
%
G90
G05
T1
X-0.6228Y6.3354
X-0.5835Y6.3059
X-0.5539Y5.9122
X-0.5343Y5.8728
X-0.5244Y8.5598
X-0.5047Y6.1484
X-0.4892Y8.3337
X-0.4752Y7.1425
X-0.4752Y5.8728
X-0.4752Y5.8039
X-0.3669Y6.3846
X-0.3667Y8.5706
X-0.3622Y8.6191
X-0.3228Y8.4931
X-0.3179Y8.5787
X-0.2882Y8.6886
X-0.2772Y8.6165
X-0.078Y5.8713
X-0.0618Y6.0008
X-0.0496Y8.5492
X-0.0427Y6.042
X-0.0285Y8.7362
X-0.0157Y8.5059
X-0.0126Y5.9516
X-0.0049Y6.2805
X-0.0048Y6.0707
X-0.0039Y5.7077
X-0.001Y5.8583
X0.0047Y8.248
X0.0244Y7.5126
X0.0469Y5.7157
X0.0521Y8.558
X0.0665Y7.2484
X0.0728Y6.497
X0.0738Y6.749
X0.0768Y8.2154
X0.0817Y7.3031
X0.0866Y5.5148
X0.0915Y8.7362
X0.0921Y6.2819
X0.1024Y6.1949
X0.1252Y5.5382
X0.1535Y7.9114
X0.1555Y7.312
X0.17Y5.5338
X0.1821Y8.4754
X0.1988Y6.5837
X0.2028Y5.7894
X0.2077Y6.4213
X0.2138Y5.5283
X0.2461Y6.0217
X0.2874Y6.5482
X0.3061Y5.6191
X0.3063Y6.2075
X0.3307Y6.4193
X0.3465Y7.1535
X0.3683Y5.6289
X0.3693Y6.2075
X0.4016Y6.6732
X0.4094Y6.753
X0.4114Y5.624
X0.4193Y6.5837
X0.4222Y8.0295
X0.4272Y7.9311
X0.4449Y7.3091
X0.4508Y5.7717
X0.4557Y6.0719
X0.4992Y5.6248
X0.6094Y6.0343
X0.6171Y6.4528
X0.6213Y5.9831
X0.6272Y5.3807
X0.6272Y5.3413
X0.6646Y5.7902
X0.6665Y5.3118
X0.6764Y5.8335
X0.7098Y5.8621
X0.7547Y8.2524
X0.7551Y5.8886
X0.8598Y6.2958
X0.989Y6.6661
X0.9917Y5.9161
X0.9921Y6.7579
X0.9937Y8.1689
X0.9949Y7.4043
X0.9957Y8.2606
X0.9972Y7.5154
X0.9992Y6.015
X1.0222Y5.7566
X1.0346Y5.7193
X1.7134Y5.7583
X1.7159Y5.837
X1.7159Y5.7976
X1.7159Y5.7154
X1.7417Y6.7642
X1.7417Y6.6689
X1.7445Y5.9083
X1.7457Y8.2547
X1.748Y6.026
X1.7496Y8.176
X1.75Y7.4098
X1.7528Y7.5181
X2.4087Y5.7252
X2.4929Y7.4138
X2.4937Y6.7669
X2.4941Y8.1744
X2.4949Y7.5126
X2.4961Y8.2496
X2.4965Y6.663
X2.4965Y5.8945
X2.498Y6.0236
X3.1567Y5.7252
X3.2461Y6.0185
X3.2476Y7.4098
X3.248Y5.9083
X3.2484Y6.7669
X3.2504Y7.5232
X3.2516Y6.6598
X3.2528Y8.2535
X3.2543Y8.1634
X3.9933Y6.6724
X3.9937Y8.2587
X3.9937Y8.1724
X3.9961Y6.7583
X3.9976Y7.5181
X3.9976Y7.4071
X4.2673Y6.0071
X4.2886Y5.7252
X4.374Y5.8488
X4.7441Y6.6535
X4.7476Y7.5181
X4.7476Y7.402
X4.748Y6.7709
X4.7496Y8.1689
X4.7512Y8.2642
X4.8201Y6.3059
X5.4087Y6.4752
X5.4941Y8.2547
X5.4961Y8.1539
X5.4965Y6.7673
X5.4965Y6.6697
X5.5031Y7.5287
X5.5055Y7.3992
X5.7201Y6.0051
X5.7697Y5.9205
X6.1646Y6.4752
X6.2449Y7.4098
X6.2453Y6.6457
X6.2465Y8.261
X6.2465Y8.1732
X6.2476Y7.5047
X6.2476Y6.7571
X6.9087Y6.4752
X6.9913Y5.8969
X6.9953Y6.0106
X6.9969Y8.161
X6.998Y6.7693
X6.998Y6.6555
X6.9984Y8.2657
X7.0Y7.5331
X7.0Y7.4004
X7.6646Y6.4752
X7.7402Y8.172
X7.7445Y7.4043
X7.7445Y6.0071
X7.7457Y8.2713
X7.7465Y5.9039
X7.7469Y7.526
X7.748Y6.7634
X7.75Y6.6685
X8.4087Y6.4713
X8.4917Y7.4071
X8.4933Y5.9114
X8.4949Y6.6673
X8.4965Y8.2732
X8.4965Y8.165
X8.4965Y6.0154
X8.4969Y7.526
X8.4972Y6.774
X9.1685Y6.4713
X9.2425Y5.9291
X9.2476Y6.7689
X9.2476Y6.6673
X9.2484Y8.1559
X9.25Y8.2476
X9.2512Y6.0035
X9.3024Y7.774
X9.3051Y7.674
X9.6799Y7.6213
X9.9276Y8.0374
X10.0976Y6.4752
T2
X-0.666Y6.6777
X-0.666Y6.4729
X-0.5856Y6.6777
X-0.5856Y6.4729
X-0.5132Y6.6477
X-0.5132Y6.5029
X-0.4833Y6.5753
X0.1663Y7.7013
X0.1929Y7.7653
X0.1929Y7.6373
X0.2569Y7.7918
X0.2569Y7.6107
X0.3209Y7.7653
X0.3209Y7.6373
X0.3474Y7.7013
X9.4557Y7.7918
X9.4557Y7.6107
X9.503Y7.7918
X9.503Y7.6107
X9.5502Y7.7925
X9.5502Y7.6107
X10.2333Y6.5753
X10.2632Y6.6477
X10.2632Y6.5029
X10.3356Y6.6777
X10.3356Y6.4729
X10.416Y6.6777
X10.416Y6.4729
T5
X0.2569Y7.7013
T3
G00X-0.1886Y8.8243
M15
G01X-0.1886Y8.8007
M16
G05
G00X-0.1886Y8.6696
M15
G01X-0.1886Y8.6263
M16
G05
G00X0.1516Y8.8243
M15
G01X0.1516Y8.8007
M16
G05
G00X0.1516Y8.6696
M15
G01X0.1516Y8.6263
M16
G05
T4
G00X9.4537Y7.7013
M15
G01X9.5522Y7.7013
M16
G05
T0
M30
