%TF.GenerationSoftware,KiCad,Pcbnew,(5.1.6)-1*%
%TF.CreationDate,2020-08-12T01:23:20+02:00*%
%TF.ProjectId,boardswap,626f6172-6473-4776-9170-2e6b69636164,rev?*%
%TF.SameCoordinates,Original*%
%TF.FileFunction,Profile,NP*%
%FSLAX46Y46*%
G04 Gerber Fmt 4.6, Leading zero omitted, Abs format (unit mm)*
G04 Created by KiCad (PCBNEW (5.1.6)-1) date 2020-08-12 01:23:20*
%MOMM*%
%LPD*%
G01*
G04 APERTURE LIST*
%TA.AperFunction,Profile*%
%ADD10C,0.300000*%
%TD*%
G04 APERTURE END LIST*
D10*
%TO.C,REF\u002A\u002A*%
X-16675000Y128912500D02*
X264325000Y128912500D01*
X264325000Y223512500D02*
X5525000Y223512500D01*
X-18675000Y130912500D02*
X-18675000Y165612500D01*
X-18675000Y165612500D02*
X-14875000Y165612500D01*
X-14875000Y168412500D02*
X-18675000Y168412500D01*
X-18675000Y168412500D02*
X-18675000Y221512500D01*
X266325000Y165612500D02*
X266325000Y130912500D01*
X266325000Y168412500D02*
X266325000Y221512500D01*
X262525000Y165612500D02*
X266325000Y165612500D01*
X262525000Y168412500D02*
X266325000Y168412500D01*
X-5975000Y225012500D02*
X5025000Y225012500D01*
X-16675000Y223512500D02*
X-6475000Y223512500D01*
X-5976620Y224017840D02*
X-5976620Y225012500D01*
X5025000Y224012500D02*
X5026660Y225012500D01*
X-16675000Y223512500D02*
G75*
G03*
X-18675000Y221512500I0J-2000000D01*
G01*
X-18675000Y130912500D02*
G75*
G03*
X-16675000Y128912500I2000000J0D01*
G01*
X264325000Y128912500D02*
G75*
G03*
X266325000Y130912500I0J2000000D01*
G01*
X266325000Y221512500D02*
G75*
G03*
X264325000Y223512500I-2000000J0D01*
G01*
X-13475000Y167012500D02*
G75*
G03*
X-14875000Y168412500I-1400000J0D01*
G01*
X261125000Y167012500D02*
G75*
G02*
X262525000Y168412500I1400000J0D01*
G01*
X262525000Y165612500D02*
G75*
G02*
X261125000Y167012500I0J1400000D01*
G01*
X-14875000Y165612500D02*
G75*
G03*
X-13475000Y167012500I0J1400000D01*
G01*
X-6475000Y223512500D02*
G75*
G03*
X-5975000Y224012500I0J500000D01*
G01*
X5025000Y224012500D02*
G75*
G03*
X5525000Y223512500I500000J0D01*
G01*
%TD*%
M02*
