%TF.GenerationSoftware,KiCad,Pcbnew,(5.1.6)-1*%
%TF.CreationDate,2020-08-12T01:23:20+02:00*%
%TF.ProjectId,boardswap,626f6172-6473-4776-9170-2e6b69636164,rev?*%
%TF.SameCoordinates,Original*%
%TF.FileFunction,Legend,Bot*%
%TF.FilePolarity,Positive*%
%FSLAX46Y46*%
G04 Gerber Fmt 4.6, Leading zero omitted, Abs format (unit mm)*
G04 Created by KiCad (PCBNEW (5.1.6)-1) date 2020-08-12 01:23:20*
%MOMM*%
%LPD*%
G01*
G04 APERTURE LIST*
%ADD10C,0.150000*%
%ADD11C,0.120000*%
G04 APERTURE END LIST*
D10*
%TO.C,MX15*%
X-11112500Y196278500D02*
X-11112500Y195897500D01*
X317500Y198818500D02*
X317500Y197802500D01*
X317500Y197802500D02*
X-4762500Y197802500D01*
X-7226662Y195897500D02*
X-8953500Y195897500D01*
X-10731500Y195897500D02*
X-11112500Y195897500D01*
X-11112500Y199707500D02*
X-11112500Y199326500D01*
X-8572500Y202247500D02*
X317500Y202247500D01*
X317500Y202247500D02*
X317500Y201866500D01*
X-7226662Y195878540D02*
G75*
G02*
X-4762500Y197802500I2464162J-616040D01*
G01*
X-11112500Y199707500D02*
G75*
G02*
X-8572500Y202247500I2540000J0D01*
G01*
%TO.C,U1*%
X12914095Y145186545D02*
X12339095Y145186545D01*
X12914095Y155536545D02*
X12239095Y155536545D01*
X2564095Y155536545D02*
X3239095Y155536545D01*
X2564095Y145186545D02*
X3239095Y145186545D01*
X12914095Y145186545D02*
X12914095Y145861545D01*
X2564095Y145186545D02*
X2564095Y145861545D01*
X2564095Y155536545D02*
X2564095Y154861545D01*
X12914095Y155536545D02*
X12914095Y154861545D01*
X12339095Y145186545D02*
X12339095Y143911545D01*
D11*
%TO.C,C7*%
X15910726Y145342175D02*
X16236284Y145342175D01*
X15910726Y146362175D02*
X16236284Y146362175D01*
%TO.C,C6*%
X7576316Y139389025D02*
X7901874Y139389025D01*
X7576316Y140409025D02*
X7901874Y140409025D01*
%TO.C,C5*%
X7709689Y160820365D02*
X7384131Y160820365D01*
X7709689Y161840365D02*
X7384131Y161840365D01*
%TO.C,C4*%
X7709689Y160054420D02*
X7384131Y160054420D01*
X7709689Y159034420D02*
X7384131Y159034420D01*
D10*
%TO.C,MX68*%
X246062500Y139128500D02*
X246062500Y138747500D01*
X257492500Y141668500D02*
X257492500Y140652500D01*
X257492500Y140652500D02*
X252412500Y140652500D01*
X249948338Y138747500D02*
X248221500Y138747500D01*
X246443500Y138747500D02*
X246062500Y138747500D01*
X246062500Y142557500D02*
X246062500Y142176500D01*
X248602500Y145097500D02*
X257492500Y145097500D01*
X257492500Y145097500D02*
X257492500Y144716500D01*
X249948338Y138728540D02*
G75*
G02*
X252412500Y140652500I2464162J-616040D01*
G01*
X246062500Y142557500D02*
G75*
G02*
X248602500Y145097500I2540000J0D01*
G01*
D11*
%TO.C,Y1*%
X-2671890Y147519380D02*
X-6671890Y147519380D01*
X-2671890Y150819380D02*
X-2671890Y147519380D01*
%TO.C,SW1*%
X8470355Y137261190D02*
X8960355Y136771190D01*
X5570355Y137261190D02*
X8470355Y137261190D01*
X5570355Y137261190D02*
X5080355Y136771190D01*
X5570355Y131821190D02*
X8470355Y131821190D01*
X5570355Y131821190D02*
X5080355Y132311190D01*
X9740355Y135581190D02*
X9740355Y133501190D01*
X8470355Y131821190D02*
X8960355Y132311190D01*
X4300355Y135581190D02*
X4300355Y133501190D01*
%TO.C,R6*%
X-14768190Y214054822D02*
X-14768190Y214571978D01*
X-16188190Y214054822D02*
X-16188190Y214571978D01*
%TO.C,R5*%
X-11791615Y214054822D02*
X-11791615Y214571978D01*
X-13211615Y214054822D02*
X-13211615Y214571978D01*
%TO.C,R4*%
X10005670Y163970203D02*
X10005670Y163453047D01*
X11425670Y163970203D02*
X11425670Y163453047D01*
%TO.C,R3*%
X9639725Y208101672D02*
X9639725Y208618828D01*
X8219725Y208101672D02*
X8219725Y208618828D01*
%TO.C,R2*%
X6663150Y208101672D02*
X6663150Y208618828D01*
X5243150Y208101672D02*
X5243150Y208618828D01*
%TO.C,R1*%
X-932052Y147157490D02*
X-1449208Y147157490D01*
X-932052Y145737490D02*
X-1449208Y145737490D01*
D10*
%TO.C,MX67*%
X222250000Y139128500D02*
X222250000Y138747500D01*
X233680000Y141668500D02*
X233680000Y140652500D01*
X233680000Y140652500D02*
X228600000Y140652500D01*
X226135838Y138747500D02*
X224409000Y138747500D01*
X222631000Y138747500D02*
X222250000Y138747500D01*
X222250000Y142557500D02*
X222250000Y142176500D01*
X224790000Y145097500D02*
X233680000Y145097500D01*
X233680000Y145097500D02*
X233680000Y144716500D01*
X226135838Y138728540D02*
G75*
G02*
X228600000Y140652500I2464162J-616040D01*
G01*
X222250000Y142557500D02*
G75*
G02*
X224790000Y145097500I2540000J0D01*
G01*
%TO.C,MX66*%
X203200000Y139128500D02*
X203200000Y138747500D01*
X214630000Y141668500D02*
X214630000Y140652500D01*
X214630000Y140652500D02*
X209550000Y140652500D01*
X207085838Y138747500D02*
X205359000Y138747500D01*
X203581000Y138747500D02*
X203200000Y138747500D01*
X203200000Y142557500D02*
X203200000Y142176500D01*
X205740000Y145097500D02*
X214630000Y145097500D01*
X214630000Y145097500D02*
X214630000Y144716500D01*
X207085838Y138728540D02*
G75*
G02*
X209550000Y140652500I2464162J-616040D01*
G01*
X203200000Y142557500D02*
G75*
G02*
X205740000Y145097500I2540000J0D01*
G01*
%TO.C,MX65*%
X184150000Y139128500D02*
X184150000Y138747500D01*
X195580000Y141668500D02*
X195580000Y140652500D01*
X195580000Y140652500D02*
X190500000Y140652500D01*
X188035838Y138747500D02*
X186309000Y138747500D01*
X184531000Y138747500D02*
X184150000Y138747500D01*
X184150000Y142557500D02*
X184150000Y142176500D01*
X186690000Y145097500D02*
X195580000Y145097500D01*
X195580000Y145097500D02*
X195580000Y144716500D01*
X188035838Y138728540D02*
G75*
G02*
X190500000Y140652500I2464162J-616040D01*
G01*
X184150000Y142557500D02*
G75*
G02*
X186690000Y145097500I2540000J0D01*
G01*
%TO.C,MX64*%
X165100000Y139128500D02*
X165100000Y138747500D01*
X176530000Y141668500D02*
X176530000Y140652500D01*
X176530000Y140652500D02*
X171450000Y140652500D01*
X168985838Y138747500D02*
X167259000Y138747500D01*
X165481000Y138747500D02*
X165100000Y138747500D01*
X165100000Y142557500D02*
X165100000Y142176500D01*
X167640000Y145097500D02*
X176530000Y145097500D01*
X176530000Y145097500D02*
X176530000Y144716500D01*
X168985838Y138728540D02*
G75*
G02*
X171450000Y140652500I2464162J-616040D01*
G01*
X165100000Y142557500D02*
G75*
G02*
X167640000Y145097500I2540000J0D01*
G01*
%TO.C,MX63*%
X136525000Y139128500D02*
X136525000Y138747500D01*
X147955000Y141668500D02*
X147955000Y140652500D01*
X147955000Y140652500D02*
X142875000Y140652500D01*
X140410838Y138747500D02*
X138684000Y138747500D01*
X136906000Y138747500D02*
X136525000Y138747500D01*
X136525000Y142557500D02*
X136525000Y142176500D01*
X139065000Y145097500D02*
X147955000Y145097500D01*
X147955000Y145097500D02*
X147955000Y144716500D01*
X140410838Y138728540D02*
G75*
G02*
X142875000Y140652500I2464162J-616040D01*
G01*
X136525000Y142557500D02*
G75*
G02*
X139065000Y145097500I2540000J0D01*
G01*
%TO.C,MX62*%
X98425000Y139128500D02*
X98425000Y138747500D01*
X109855000Y141668500D02*
X109855000Y140652500D01*
X109855000Y140652500D02*
X104775000Y140652500D01*
X102310838Y138747500D02*
X100584000Y138747500D01*
X98806000Y138747500D02*
X98425000Y138747500D01*
X98425000Y142557500D02*
X98425000Y142176500D01*
X100965000Y145097500D02*
X109855000Y145097500D01*
X109855000Y145097500D02*
X109855000Y144716500D01*
X102310838Y138728540D02*
G75*
G02*
X104775000Y140652500I2464162J-616040D01*
G01*
X98425000Y142557500D02*
G75*
G02*
X100965000Y145097500I2540000J0D01*
G01*
%TO.C,MX61*%
X69850000Y139128500D02*
X69850000Y138747500D01*
X81280000Y141668500D02*
X81280000Y140652500D01*
X81280000Y140652500D02*
X76200000Y140652500D01*
X73735838Y138747500D02*
X72009000Y138747500D01*
X70231000Y138747500D02*
X69850000Y138747500D01*
X69850000Y142557500D02*
X69850000Y142176500D01*
X72390000Y145097500D02*
X81280000Y145097500D01*
X81280000Y145097500D02*
X81280000Y144716500D01*
X73735838Y138728540D02*
G75*
G02*
X76200000Y140652500I2464162J-616040D01*
G01*
X69850000Y142557500D02*
G75*
G02*
X72390000Y145097500I2540000J0D01*
G01*
%TO.C,MX60*%
X50800000Y139128500D02*
X50800000Y138747500D01*
X62230000Y141668500D02*
X62230000Y140652500D01*
X62230000Y140652500D02*
X57150000Y140652500D01*
X54685838Y138747500D02*
X52959000Y138747500D01*
X51181000Y138747500D02*
X50800000Y138747500D01*
X50800000Y142557500D02*
X50800000Y142176500D01*
X53340000Y145097500D02*
X62230000Y145097500D01*
X62230000Y145097500D02*
X62230000Y144716500D01*
X54685838Y138728540D02*
G75*
G02*
X57150000Y140652500I2464162J-616040D01*
G01*
X50800000Y142557500D02*
G75*
G02*
X53340000Y145097500I2540000J0D01*
G01*
%TO.C,MX59*%
X31750000Y139128500D02*
X31750000Y138747500D01*
X43180000Y141668500D02*
X43180000Y140652500D01*
X43180000Y140652500D02*
X38100000Y140652500D01*
X35635838Y138747500D02*
X33909000Y138747500D01*
X32131000Y138747500D02*
X31750000Y138747500D01*
X31750000Y142557500D02*
X31750000Y142176500D01*
X34290000Y145097500D02*
X43180000Y145097500D01*
X43180000Y145097500D02*
X43180000Y144716500D01*
X35635838Y138728540D02*
G75*
G02*
X38100000Y140652500I2464162J-616040D01*
G01*
X31750000Y142557500D02*
G75*
G02*
X34290000Y145097500I2540000J0D01*
G01*
%TO.C,MX58*%
X12700000Y139128500D02*
X12700000Y138747500D01*
X24130000Y141668500D02*
X24130000Y140652500D01*
X24130000Y140652500D02*
X19050000Y140652500D01*
X16585838Y138747500D02*
X14859000Y138747500D01*
X13081000Y138747500D02*
X12700000Y138747500D01*
X12700000Y142557500D02*
X12700000Y142176500D01*
X15240000Y145097500D02*
X24130000Y145097500D01*
X24130000Y145097500D02*
X24130000Y144716500D01*
X16585838Y138728540D02*
G75*
G02*
X19050000Y140652500I2464162J-616040D01*
G01*
X12700000Y142557500D02*
G75*
G02*
X15240000Y145097500I2540000J0D01*
G01*
%TO.C,MX57*%
X-11112500Y139128500D02*
X-11112500Y138747500D01*
X317500Y141668500D02*
X317500Y140652500D01*
X317500Y140652500D02*
X-4762500Y140652500D01*
X-7226662Y138747500D02*
X-8953500Y138747500D01*
X-10731500Y138747500D02*
X-11112500Y138747500D01*
X-11112500Y142557500D02*
X-11112500Y142176500D01*
X-8572500Y145097500D02*
X317500Y145097500D01*
X317500Y145097500D02*
X317500Y144716500D01*
X-7226662Y138728540D02*
G75*
G02*
X-4762500Y140652500I2464162J-616040D01*
G01*
X-11112500Y142557500D02*
G75*
G02*
X-8572500Y145097500I2540000J0D01*
G01*
%TO.C,MX56*%
X246062500Y158178500D02*
X246062500Y157797500D01*
X257492500Y160718500D02*
X257492500Y159702500D01*
X257492500Y159702500D02*
X252412500Y159702500D01*
X249948338Y157797500D02*
X248221500Y157797500D01*
X246443500Y157797500D02*
X246062500Y157797500D01*
X246062500Y161607500D02*
X246062500Y161226500D01*
X248602500Y164147500D02*
X257492500Y164147500D01*
X257492500Y164147500D02*
X257492500Y163766500D01*
X249948338Y157778540D02*
G75*
G02*
X252412500Y159702500I2464162J-616040D01*
G01*
X246062500Y161607500D02*
G75*
G02*
X248602500Y164147500I2540000J0D01*
G01*
%TO.C,MX55*%
X222250000Y158178500D02*
X222250000Y157797500D01*
X233680000Y160718500D02*
X233680000Y159702500D01*
X233680000Y159702500D02*
X228600000Y159702500D01*
X226135838Y157797500D02*
X224409000Y157797500D01*
X222631000Y157797500D02*
X222250000Y157797500D01*
X222250000Y161607500D02*
X222250000Y161226500D01*
X224790000Y164147500D02*
X233680000Y164147500D01*
X233680000Y164147500D02*
X233680000Y163766500D01*
X226135838Y157778540D02*
G75*
G02*
X228600000Y159702500I2464162J-616040D01*
G01*
X222250000Y161607500D02*
G75*
G02*
X224790000Y164147500I2540000J0D01*
G01*
%TO.C,MX54*%
X203200000Y158178500D02*
X203200000Y157797500D01*
X214630000Y160718500D02*
X214630000Y159702500D01*
X214630000Y159702500D02*
X209550000Y159702500D01*
X207085838Y157797500D02*
X205359000Y157797500D01*
X203581000Y157797500D02*
X203200000Y157797500D01*
X203200000Y161607500D02*
X203200000Y161226500D01*
X205740000Y164147500D02*
X214630000Y164147500D01*
X214630000Y164147500D02*
X214630000Y163766500D01*
X207085838Y157778540D02*
G75*
G02*
X209550000Y159702500I2464162J-616040D01*
G01*
X203200000Y161607500D02*
G75*
G02*
X205740000Y164147500I2540000J0D01*
G01*
%TO.C,MX53*%
X184150000Y158178500D02*
X184150000Y157797500D01*
X195580000Y160718500D02*
X195580000Y159702500D01*
X195580000Y159702500D02*
X190500000Y159702500D01*
X188035838Y157797500D02*
X186309000Y157797500D01*
X184531000Y157797500D02*
X184150000Y157797500D01*
X184150000Y161607500D02*
X184150000Y161226500D01*
X186690000Y164147500D02*
X195580000Y164147500D01*
X195580000Y164147500D02*
X195580000Y163766500D01*
X188035838Y157778540D02*
G75*
G02*
X190500000Y159702500I2464162J-616040D01*
G01*
X184150000Y161607500D02*
G75*
G02*
X186690000Y164147500I2540000J0D01*
G01*
%TO.C,MX52*%
X165100000Y158178500D02*
X165100000Y157797500D01*
X176530000Y160718500D02*
X176530000Y159702500D01*
X176530000Y159702500D02*
X171450000Y159702500D01*
X168985838Y157797500D02*
X167259000Y157797500D01*
X165481000Y157797500D02*
X165100000Y157797500D01*
X165100000Y161607500D02*
X165100000Y161226500D01*
X167640000Y164147500D02*
X176530000Y164147500D01*
X176530000Y164147500D02*
X176530000Y163766500D01*
X168985838Y157778540D02*
G75*
G02*
X171450000Y159702500I2464162J-616040D01*
G01*
X165100000Y161607500D02*
G75*
G02*
X167640000Y164147500I2540000J0D01*
G01*
%TO.C,MX51*%
X146050000Y158178500D02*
X146050000Y157797500D01*
X157480000Y160718500D02*
X157480000Y159702500D01*
X157480000Y159702500D02*
X152400000Y159702500D01*
X149935838Y157797500D02*
X148209000Y157797500D01*
X146431000Y157797500D02*
X146050000Y157797500D01*
X146050000Y161607500D02*
X146050000Y161226500D01*
X148590000Y164147500D02*
X157480000Y164147500D01*
X157480000Y164147500D02*
X157480000Y163766500D01*
X149935838Y157778540D02*
G75*
G02*
X152400000Y159702500I2464162J-616040D01*
G01*
X146050000Y161607500D02*
G75*
G02*
X148590000Y164147500I2540000J0D01*
G01*
%TO.C,MX50*%
X127000000Y158178500D02*
X127000000Y157797500D01*
X138430000Y160718500D02*
X138430000Y159702500D01*
X138430000Y159702500D02*
X133350000Y159702500D01*
X130885838Y157797500D02*
X129159000Y157797500D01*
X127381000Y157797500D02*
X127000000Y157797500D01*
X127000000Y161607500D02*
X127000000Y161226500D01*
X129540000Y164147500D02*
X138430000Y164147500D01*
X138430000Y164147500D02*
X138430000Y163766500D01*
X130885838Y157778540D02*
G75*
G02*
X133350000Y159702500I2464162J-616040D01*
G01*
X127000000Y161607500D02*
G75*
G02*
X129540000Y164147500I2540000J0D01*
G01*
%TO.C,MX49*%
X107950000Y158178500D02*
X107950000Y157797500D01*
X119380000Y160718500D02*
X119380000Y159702500D01*
X119380000Y159702500D02*
X114300000Y159702500D01*
X111835838Y157797500D02*
X110109000Y157797500D01*
X108331000Y157797500D02*
X107950000Y157797500D01*
X107950000Y161607500D02*
X107950000Y161226500D01*
X110490000Y164147500D02*
X119380000Y164147500D01*
X119380000Y164147500D02*
X119380000Y163766500D01*
X111835838Y157778540D02*
G75*
G02*
X114300000Y159702500I2464162J-616040D01*
G01*
X107950000Y161607500D02*
G75*
G02*
X110490000Y164147500I2540000J0D01*
G01*
%TO.C,MX48*%
X88900000Y158178500D02*
X88900000Y157797500D01*
X100330000Y160718500D02*
X100330000Y159702500D01*
X100330000Y159702500D02*
X95250000Y159702500D01*
X92785838Y157797500D02*
X91059000Y157797500D01*
X89281000Y157797500D02*
X88900000Y157797500D01*
X88900000Y161607500D02*
X88900000Y161226500D01*
X91440000Y164147500D02*
X100330000Y164147500D01*
X100330000Y164147500D02*
X100330000Y163766500D01*
X92785838Y157778540D02*
G75*
G02*
X95250000Y159702500I2464162J-616040D01*
G01*
X88900000Y161607500D02*
G75*
G02*
X91440000Y164147500I2540000J0D01*
G01*
%TO.C,MX47*%
X69850000Y158178500D02*
X69850000Y157797500D01*
X81280000Y160718500D02*
X81280000Y159702500D01*
X81280000Y159702500D02*
X76200000Y159702500D01*
X73735838Y157797500D02*
X72009000Y157797500D01*
X70231000Y157797500D02*
X69850000Y157797500D01*
X69850000Y161607500D02*
X69850000Y161226500D01*
X72390000Y164147500D02*
X81280000Y164147500D01*
X81280000Y164147500D02*
X81280000Y163766500D01*
X73735838Y157778540D02*
G75*
G02*
X76200000Y159702500I2464162J-616040D01*
G01*
X69850000Y161607500D02*
G75*
G02*
X72390000Y164147500I2540000J0D01*
G01*
%TO.C,MX46*%
X50800000Y158178500D02*
X50800000Y157797500D01*
X62230000Y160718500D02*
X62230000Y159702500D01*
X62230000Y159702500D02*
X57150000Y159702500D01*
X54685838Y157797500D02*
X52959000Y157797500D01*
X51181000Y157797500D02*
X50800000Y157797500D01*
X50800000Y161607500D02*
X50800000Y161226500D01*
X53340000Y164147500D02*
X62230000Y164147500D01*
X62230000Y164147500D02*
X62230000Y163766500D01*
X54685838Y157778540D02*
G75*
G02*
X57150000Y159702500I2464162J-616040D01*
G01*
X50800000Y161607500D02*
G75*
G02*
X53340000Y164147500I2540000J0D01*
G01*
%TO.C,MX45*%
X31750000Y158178500D02*
X31750000Y157797500D01*
X43180000Y160718500D02*
X43180000Y159702500D01*
X43180000Y159702500D02*
X38100000Y159702500D01*
X35635838Y157797500D02*
X33909000Y157797500D01*
X32131000Y157797500D02*
X31750000Y157797500D01*
X31750000Y161607500D02*
X31750000Y161226500D01*
X34290000Y164147500D02*
X43180000Y164147500D01*
X43180000Y164147500D02*
X43180000Y163766500D01*
X35635838Y157778540D02*
G75*
G02*
X38100000Y159702500I2464162J-616040D01*
G01*
X31750000Y161607500D02*
G75*
G02*
X34290000Y164147500I2540000J0D01*
G01*
%TO.C,MX44*%
X12700000Y158178500D02*
X12700000Y157797500D01*
X24130000Y160718500D02*
X24130000Y159702500D01*
X24130000Y159702500D02*
X19050000Y159702500D01*
X16585838Y157797500D02*
X14859000Y157797500D01*
X13081000Y157797500D02*
X12700000Y157797500D01*
X12700000Y161607500D02*
X12700000Y161226500D01*
X15240000Y164147500D02*
X24130000Y164147500D01*
X24130000Y164147500D02*
X24130000Y163766500D01*
X16585838Y157778540D02*
G75*
G02*
X19050000Y159702500I2464162J-616040D01*
G01*
X12700000Y161607500D02*
G75*
G02*
X15240000Y164147500I2540000J0D01*
G01*
%TO.C,MX43*%
X-11112500Y158178500D02*
X-11112500Y157797500D01*
X317500Y160718500D02*
X317500Y159702500D01*
X317500Y159702500D02*
X-4762500Y159702500D01*
X-7226662Y157797500D02*
X-8953500Y157797500D01*
X-10731500Y157797500D02*
X-11112500Y157797500D01*
X-11112500Y161607500D02*
X-11112500Y161226500D01*
X-8572500Y164147500D02*
X317500Y164147500D01*
X317500Y164147500D02*
X317500Y163766500D01*
X-7226662Y157778540D02*
G75*
G02*
X-4762500Y159702500I2464162J-616040D01*
G01*
X-11112500Y161607500D02*
G75*
G02*
X-8572500Y164147500I2540000J0D01*
G01*
%TO.C,MX42*%
X246062500Y177228500D02*
X246062500Y176847500D01*
X257492500Y179768500D02*
X257492500Y178752500D01*
X257492500Y178752500D02*
X252412500Y178752500D01*
X249948338Y176847500D02*
X248221500Y176847500D01*
X246443500Y176847500D02*
X246062500Y176847500D01*
X246062500Y180657500D02*
X246062500Y180276500D01*
X248602500Y183197500D02*
X257492500Y183197500D01*
X257492500Y183197500D02*
X257492500Y182816500D01*
X249948338Y176828540D02*
G75*
G02*
X252412500Y178752500I2464162J-616040D01*
G01*
X246062500Y180657500D02*
G75*
G02*
X248602500Y183197500I2540000J0D01*
G01*
%TO.C,MX41*%
X222250000Y177228500D02*
X222250000Y176847500D01*
X233680000Y179768500D02*
X233680000Y178752500D01*
X233680000Y178752500D02*
X228600000Y178752500D01*
X226135838Y176847500D02*
X224409000Y176847500D01*
X222631000Y176847500D02*
X222250000Y176847500D01*
X222250000Y180657500D02*
X222250000Y180276500D01*
X224790000Y183197500D02*
X233680000Y183197500D01*
X233680000Y183197500D02*
X233680000Y182816500D01*
X226135838Y176828540D02*
G75*
G02*
X228600000Y178752500I2464162J-616040D01*
G01*
X222250000Y180657500D02*
G75*
G02*
X224790000Y183197500I2540000J0D01*
G01*
%TO.C,MX40*%
X203200000Y177228500D02*
X203200000Y176847500D01*
X214630000Y179768500D02*
X214630000Y178752500D01*
X214630000Y178752500D02*
X209550000Y178752500D01*
X207085838Y176847500D02*
X205359000Y176847500D01*
X203581000Y176847500D02*
X203200000Y176847500D01*
X203200000Y180657500D02*
X203200000Y180276500D01*
X205740000Y183197500D02*
X214630000Y183197500D01*
X214630000Y183197500D02*
X214630000Y182816500D01*
X207085838Y176828540D02*
G75*
G02*
X209550000Y178752500I2464162J-616040D01*
G01*
X203200000Y180657500D02*
G75*
G02*
X205740000Y183197500I2540000J0D01*
G01*
%TO.C,MX39*%
X184150000Y177228500D02*
X184150000Y176847500D01*
X195580000Y179768500D02*
X195580000Y178752500D01*
X195580000Y178752500D02*
X190500000Y178752500D01*
X188035838Y176847500D02*
X186309000Y176847500D01*
X184531000Y176847500D02*
X184150000Y176847500D01*
X184150000Y180657500D02*
X184150000Y180276500D01*
X186690000Y183197500D02*
X195580000Y183197500D01*
X195580000Y183197500D02*
X195580000Y182816500D01*
X188035838Y176828540D02*
G75*
G02*
X190500000Y178752500I2464162J-616040D01*
G01*
X184150000Y180657500D02*
G75*
G02*
X186690000Y183197500I2540000J0D01*
G01*
%TO.C,MX38*%
X165100000Y177228500D02*
X165100000Y176847500D01*
X176530000Y179768500D02*
X176530000Y178752500D01*
X176530000Y178752500D02*
X171450000Y178752500D01*
X168985838Y176847500D02*
X167259000Y176847500D01*
X165481000Y176847500D02*
X165100000Y176847500D01*
X165100000Y180657500D02*
X165100000Y180276500D01*
X167640000Y183197500D02*
X176530000Y183197500D01*
X176530000Y183197500D02*
X176530000Y182816500D01*
X168985838Y176828540D02*
G75*
G02*
X171450000Y178752500I2464162J-616040D01*
G01*
X165100000Y180657500D02*
G75*
G02*
X167640000Y183197500I2540000J0D01*
G01*
%TO.C,MX37*%
X146050000Y177228500D02*
X146050000Y176847500D01*
X157480000Y179768500D02*
X157480000Y178752500D01*
X157480000Y178752500D02*
X152400000Y178752500D01*
X149935838Y176847500D02*
X148209000Y176847500D01*
X146431000Y176847500D02*
X146050000Y176847500D01*
X146050000Y180657500D02*
X146050000Y180276500D01*
X148590000Y183197500D02*
X157480000Y183197500D01*
X157480000Y183197500D02*
X157480000Y182816500D01*
X149935838Y176828540D02*
G75*
G02*
X152400000Y178752500I2464162J-616040D01*
G01*
X146050000Y180657500D02*
G75*
G02*
X148590000Y183197500I2540000J0D01*
G01*
%TO.C,MX36*%
X127000000Y177228500D02*
X127000000Y176847500D01*
X138430000Y179768500D02*
X138430000Y178752500D01*
X138430000Y178752500D02*
X133350000Y178752500D01*
X130885838Y176847500D02*
X129159000Y176847500D01*
X127381000Y176847500D02*
X127000000Y176847500D01*
X127000000Y180657500D02*
X127000000Y180276500D01*
X129540000Y183197500D02*
X138430000Y183197500D01*
X138430000Y183197500D02*
X138430000Y182816500D01*
X130885838Y176828540D02*
G75*
G02*
X133350000Y178752500I2464162J-616040D01*
G01*
X127000000Y180657500D02*
G75*
G02*
X129540000Y183197500I2540000J0D01*
G01*
%TO.C,MX35*%
X107950000Y177228500D02*
X107950000Y176847500D01*
X119380000Y179768500D02*
X119380000Y178752500D01*
X119380000Y178752500D02*
X114300000Y178752500D01*
X111835838Y176847500D02*
X110109000Y176847500D01*
X108331000Y176847500D02*
X107950000Y176847500D01*
X107950000Y180657500D02*
X107950000Y180276500D01*
X110490000Y183197500D02*
X119380000Y183197500D01*
X119380000Y183197500D02*
X119380000Y182816500D01*
X111835838Y176828540D02*
G75*
G02*
X114300000Y178752500I2464162J-616040D01*
G01*
X107950000Y180657500D02*
G75*
G02*
X110490000Y183197500I2540000J0D01*
G01*
%TO.C,MX34*%
X88900000Y177228500D02*
X88900000Y176847500D01*
X100330000Y179768500D02*
X100330000Y178752500D01*
X100330000Y178752500D02*
X95250000Y178752500D01*
X92785838Y176847500D02*
X91059000Y176847500D01*
X89281000Y176847500D02*
X88900000Y176847500D01*
X88900000Y180657500D02*
X88900000Y180276500D01*
X91440000Y183197500D02*
X100330000Y183197500D01*
X100330000Y183197500D02*
X100330000Y182816500D01*
X92785838Y176828540D02*
G75*
G02*
X95250000Y178752500I2464162J-616040D01*
G01*
X88900000Y180657500D02*
G75*
G02*
X91440000Y183197500I2540000J0D01*
G01*
%TO.C,MX33*%
X69850000Y177228500D02*
X69850000Y176847500D01*
X81280000Y179768500D02*
X81280000Y178752500D01*
X81280000Y178752500D02*
X76200000Y178752500D01*
X73735838Y176847500D02*
X72009000Y176847500D01*
X70231000Y176847500D02*
X69850000Y176847500D01*
X69850000Y180657500D02*
X69850000Y180276500D01*
X72390000Y183197500D02*
X81280000Y183197500D01*
X81280000Y183197500D02*
X81280000Y182816500D01*
X73735838Y176828540D02*
G75*
G02*
X76200000Y178752500I2464162J-616040D01*
G01*
X69850000Y180657500D02*
G75*
G02*
X72390000Y183197500I2540000J0D01*
G01*
%TO.C,MX32*%
X50800000Y177228500D02*
X50800000Y176847500D01*
X62230000Y179768500D02*
X62230000Y178752500D01*
X62230000Y178752500D02*
X57150000Y178752500D01*
X54685838Y176847500D02*
X52959000Y176847500D01*
X51181000Y176847500D02*
X50800000Y176847500D01*
X50800000Y180657500D02*
X50800000Y180276500D01*
X53340000Y183197500D02*
X62230000Y183197500D01*
X62230000Y183197500D02*
X62230000Y182816500D01*
X54685838Y176828540D02*
G75*
G02*
X57150000Y178752500I2464162J-616040D01*
G01*
X50800000Y180657500D02*
G75*
G02*
X53340000Y183197500I2540000J0D01*
G01*
%TO.C,MX31*%
X31750000Y177228500D02*
X31750000Y176847500D01*
X43180000Y179768500D02*
X43180000Y178752500D01*
X43180000Y178752500D02*
X38100000Y178752500D01*
X35635838Y176847500D02*
X33909000Y176847500D01*
X32131000Y176847500D02*
X31750000Y176847500D01*
X31750000Y180657500D02*
X31750000Y180276500D01*
X34290000Y183197500D02*
X43180000Y183197500D01*
X43180000Y183197500D02*
X43180000Y182816500D01*
X35635838Y176828540D02*
G75*
G02*
X38100000Y178752500I2464162J-616040D01*
G01*
X31750000Y180657500D02*
G75*
G02*
X34290000Y183197500I2540000J0D01*
G01*
%TO.C,MX30*%
X12700000Y177228500D02*
X12700000Y176847500D01*
X24130000Y179768500D02*
X24130000Y178752500D01*
X24130000Y178752500D02*
X19050000Y178752500D01*
X16585838Y176847500D02*
X14859000Y176847500D01*
X13081000Y176847500D02*
X12700000Y176847500D01*
X12700000Y180657500D02*
X12700000Y180276500D01*
X15240000Y183197500D02*
X24130000Y183197500D01*
X24130000Y183197500D02*
X24130000Y182816500D01*
X16585838Y176828540D02*
G75*
G02*
X19050000Y178752500I2464162J-616040D01*
G01*
X12700000Y180657500D02*
G75*
G02*
X15240000Y183197500I2540000J0D01*
G01*
%TO.C,MX29*%
X-11112500Y177228500D02*
X-11112500Y176847500D01*
X317500Y179768500D02*
X317500Y178752500D01*
X317500Y178752500D02*
X-4762500Y178752500D01*
X-7226662Y176847500D02*
X-8953500Y176847500D01*
X-10731500Y176847500D02*
X-11112500Y176847500D01*
X-11112500Y180657500D02*
X-11112500Y180276500D01*
X-8572500Y183197500D02*
X317500Y183197500D01*
X317500Y183197500D02*
X317500Y182816500D01*
X-7226662Y176828540D02*
G75*
G02*
X-4762500Y178752500I2464162J-616040D01*
G01*
X-11112500Y180657500D02*
G75*
G02*
X-8572500Y183197500I2540000J0D01*
G01*
%TO.C,MX28*%
X258762500Y194246500D02*
X258762500Y194627500D01*
X247332500Y191706500D02*
X247332500Y192722500D01*
X247332500Y192722500D02*
X252412500Y192722500D01*
X254876662Y194627500D02*
X256603500Y194627500D01*
X258381500Y194627500D02*
X258762500Y194627500D01*
X258762500Y190817500D02*
X258762500Y191198500D01*
X256222500Y188277500D02*
X247332500Y188277500D01*
X247332500Y188277500D02*
X247332500Y188658500D01*
X254876662Y194646460D02*
G75*
G02*
X252412500Y192722500I-2464162J616040D01*
G01*
X258762500Y190817500D02*
G75*
G02*
X256222500Y188277500I-2540000J0D01*
G01*
%TO.C,MX27*%
X222250000Y196278500D02*
X222250000Y195897500D01*
X233680000Y198818500D02*
X233680000Y197802500D01*
X233680000Y197802500D02*
X228600000Y197802500D01*
X226135838Y195897500D02*
X224409000Y195897500D01*
X222631000Y195897500D02*
X222250000Y195897500D01*
X222250000Y199707500D02*
X222250000Y199326500D01*
X224790000Y202247500D02*
X233680000Y202247500D01*
X233680000Y202247500D02*
X233680000Y201866500D01*
X226135838Y195878540D02*
G75*
G02*
X228600000Y197802500I2464162J-616040D01*
G01*
X222250000Y199707500D02*
G75*
G02*
X224790000Y202247500I2540000J0D01*
G01*
%TO.C,MX26*%
X203200000Y196278500D02*
X203200000Y195897500D01*
X214630000Y198818500D02*
X214630000Y197802500D01*
X214630000Y197802500D02*
X209550000Y197802500D01*
X207085838Y195897500D02*
X205359000Y195897500D01*
X203581000Y195897500D02*
X203200000Y195897500D01*
X203200000Y199707500D02*
X203200000Y199326500D01*
X205740000Y202247500D02*
X214630000Y202247500D01*
X214630000Y202247500D02*
X214630000Y201866500D01*
X207085838Y195878540D02*
G75*
G02*
X209550000Y197802500I2464162J-616040D01*
G01*
X203200000Y199707500D02*
G75*
G02*
X205740000Y202247500I2540000J0D01*
G01*
%TO.C,MX25*%
X184150000Y196278500D02*
X184150000Y195897500D01*
X195580000Y198818500D02*
X195580000Y197802500D01*
X195580000Y197802500D02*
X190500000Y197802500D01*
X188035838Y195897500D02*
X186309000Y195897500D01*
X184531000Y195897500D02*
X184150000Y195897500D01*
X184150000Y199707500D02*
X184150000Y199326500D01*
X186690000Y202247500D02*
X195580000Y202247500D01*
X195580000Y202247500D02*
X195580000Y201866500D01*
X188035838Y195878540D02*
G75*
G02*
X190500000Y197802500I2464162J-616040D01*
G01*
X184150000Y199707500D02*
G75*
G02*
X186690000Y202247500I2540000J0D01*
G01*
%TO.C,MX24*%
X165100000Y196278500D02*
X165100000Y195897500D01*
X176530000Y198818500D02*
X176530000Y197802500D01*
X176530000Y197802500D02*
X171450000Y197802500D01*
X168985838Y195897500D02*
X167259000Y195897500D01*
X165481000Y195897500D02*
X165100000Y195897500D01*
X165100000Y199707500D02*
X165100000Y199326500D01*
X167640000Y202247500D02*
X176530000Y202247500D01*
X176530000Y202247500D02*
X176530000Y201866500D01*
X168985838Y195878540D02*
G75*
G02*
X171450000Y197802500I2464162J-616040D01*
G01*
X165100000Y199707500D02*
G75*
G02*
X167640000Y202247500I2540000J0D01*
G01*
%TO.C,MX23*%
X146050000Y196278500D02*
X146050000Y195897500D01*
X157480000Y198818500D02*
X157480000Y197802500D01*
X157480000Y197802500D02*
X152400000Y197802500D01*
X149935838Y195897500D02*
X148209000Y195897500D01*
X146431000Y195897500D02*
X146050000Y195897500D01*
X146050000Y199707500D02*
X146050000Y199326500D01*
X148590000Y202247500D02*
X157480000Y202247500D01*
X157480000Y202247500D02*
X157480000Y201866500D01*
X149935838Y195878540D02*
G75*
G02*
X152400000Y197802500I2464162J-616040D01*
G01*
X146050000Y199707500D02*
G75*
G02*
X148590000Y202247500I2540000J0D01*
G01*
%TO.C,MX22*%
X127000000Y196278500D02*
X127000000Y195897500D01*
X138430000Y198818500D02*
X138430000Y197802500D01*
X138430000Y197802500D02*
X133350000Y197802500D01*
X130885838Y195897500D02*
X129159000Y195897500D01*
X127381000Y195897500D02*
X127000000Y195897500D01*
X127000000Y199707500D02*
X127000000Y199326500D01*
X129540000Y202247500D02*
X138430000Y202247500D01*
X138430000Y202247500D02*
X138430000Y201866500D01*
X130885838Y195878540D02*
G75*
G02*
X133350000Y197802500I2464162J-616040D01*
G01*
X127000000Y199707500D02*
G75*
G02*
X129540000Y202247500I2540000J0D01*
G01*
%TO.C,MX21*%
X107950000Y196278500D02*
X107950000Y195897500D01*
X119380000Y198818500D02*
X119380000Y197802500D01*
X119380000Y197802500D02*
X114300000Y197802500D01*
X111835838Y195897500D02*
X110109000Y195897500D01*
X108331000Y195897500D02*
X107950000Y195897500D01*
X107950000Y199707500D02*
X107950000Y199326500D01*
X110490000Y202247500D02*
X119380000Y202247500D01*
X119380000Y202247500D02*
X119380000Y201866500D01*
X111835838Y195878540D02*
G75*
G02*
X114300000Y197802500I2464162J-616040D01*
G01*
X107950000Y199707500D02*
G75*
G02*
X110490000Y202247500I2540000J0D01*
G01*
%TO.C,MX20*%
X88900000Y196278500D02*
X88900000Y195897500D01*
X100330000Y198818500D02*
X100330000Y197802500D01*
X100330000Y197802500D02*
X95250000Y197802500D01*
X92785838Y195897500D02*
X91059000Y195897500D01*
X89281000Y195897500D02*
X88900000Y195897500D01*
X88900000Y199707500D02*
X88900000Y199326500D01*
X91440000Y202247500D02*
X100330000Y202247500D01*
X100330000Y202247500D02*
X100330000Y201866500D01*
X92785838Y195878540D02*
G75*
G02*
X95250000Y197802500I2464162J-616040D01*
G01*
X88900000Y199707500D02*
G75*
G02*
X91440000Y202247500I2540000J0D01*
G01*
%TO.C,MX19*%
X69850000Y196278500D02*
X69850000Y195897500D01*
X81280000Y198818500D02*
X81280000Y197802500D01*
X81280000Y197802500D02*
X76200000Y197802500D01*
X73735838Y195897500D02*
X72009000Y195897500D01*
X70231000Y195897500D02*
X69850000Y195897500D01*
X69850000Y199707500D02*
X69850000Y199326500D01*
X72390000Y202247500D02*
X81280000Y202247500D01*
X81280000Y202247500D02*
X81280000Y201866500D01*
X73735838Y195878540D02*
G75*
G02*
X76200000Y197802500I2464162J-616040D01*
G01*
X69850000Y199707500D02*
G75*
G02*
X72390000Y202247500I2540000J0D01*
G01*
%TO.C,MX18*%
X50800000Y196278500D02*
X50800000Y195897500D01*
X62230000Y198818500D02*
X62230000Y197802500D01*
X62230000Y197802500D02*
X57150000Y197802500D01*
X54685838Y195897500D02*
X52959000Y195897500D01*
X51181000Y195897500D02*
X50800000Y195897500D01*
X50800000Y199707500D02*
X50800000Y199326500D01*
X53340000Y202247500D02*
X62230000Y202247500D01*
X62230000Y202247500D02*
X62230000Y201866500D01*
X54685838Y195878540D02*
G75*
G02*
X57150000Y197802500I2464162J-616040D01*
G01*
X50800000Y199707500D02*
G75*
G02*
X53340000Y202247500I2540000J0D01*
G01*
%TO.C,MX17*%
X31750000Y196278500D02*
X31750000Y195897500D01*
X43180000Y198818500D02*
X43180000Y197802500D01*
X43180000Y197802500D02*
X38100000Y197802500D01*
X35635838Y195897500D02*
X33909000Y195897500D01*
X32131000Y195897500D02*
X31750000Y195897500D01*
X31750000Y199707500D02*
X31750000Y199326500D01*
X34290000Y202247500D02*
X43180000Y202247500D01*
X43180000Y202247500D02*
X43180000Y201866500D01*
X35635838Y195878540D02*
G75*
G02*
X38100000Y197802500I2464162J-616040D01*
G01*
X31750000Y199707500D02*
G75*
G02*
X34290000Y202247500I2540000J0D01*
G01*
%TO.C,MX16*%
X12700000Y196278500D02*
X12700000Y195897500D01*
X24130000Y198818500D02*
X24130000Y197802500D01*
X24130000Y197802500D02*
X19050000Y197802500D01*
X16585838Y195897500D02*
X14859000Y195897500D01*
X13081000Y195897500D02*
X12700000Y195897500D01*
X12700000Y199707500D02*
X12700000Y199326500D01*
X15240000Y202247500D02*
X24130000Y202247500D01*
X24130000Y202247500D02*
X24130000Y201866500D01*
X16585838Y195878540D02*
G75*
G02*
X19050000Y197802500I2464162J-616040D01*
G01*
X12700000Y199707500D02*
G75*
G02*
X15240000Y202247500I2540000J0D01*
G01*
%TO.C,MX14*%
X246062500Y215328500D02*
X246062500Y214947500D01*
X257492500Y217868500D02*
X257492500Y216852500D01*
X257492500Y216852500D02*
X252412500Y216852500D01*
X249948338Y214947500D02*
X248221500Y214947500D01*
X246443500Y214947500D02*
X246062500Y214947500D01*
X246062500Y218757500D02*
X246062500Y218376500D01*
X248602500Y221297500D02*
X257492500Y221297500D01*
X257492500Y221297500D02*
X257492500Y220916500D01*
X249948338Y214928540D02*
G75*
G02*
X252412500Y216852500I2464162J-616040D01*
G01*
X246062500Y218757500D02*
G75*
G02*
X248602500Y221297500I2540000J0D01*
G01*
%TO.C,MX13*%
X222250000Y215328500D02*
X222250000Y214947500D01*
X233680000Y217868500D02*
X233680000Y216852500D01*
X233680000Y216852500D02*
X228600000Y216852500D01*
X226135838Y214947500D02*
X224409000Y214947500D01*
X222631000Y214947500D02*
X222250000Y214947500D01*
X222250000Y218757500D02*
X222250000Y218376500D01*
X224790000Y221297500D02*
X233680000Y221297500D01*
X233680000Y221297500D02*
X233680000Y220916500D01*
X226135838Y214928540D02*
G75*
G02*
X228600000Y216852500I2464162J-616040D01*
G01*
X222250000Y218757500D02*
G75*
G02*
X224790000Y221297500I2540000J0D01*
G01*
%TO.C,MX12*%
X203200000Y215328500D02*
X203200000Y214947500D01*
X214630000Y217868500D02*
X214630000Y216852500D01*
X214630000Y216852500D02*
X209550000Y216852500D01*
X207085838Y214947500D02*
X205359000Y214947500D01*
X203581000Y214947500D02*
X203200000Y214947500D01*
X203200000Y218757500D02*
X203200000Y218376500D01*
X205740000Y221297500D02*
X214630000Y221297500D01*
X214630000Y221297500D02*
X214630000Y220916500D01*
X207085838Y214928540D02*
G75*
G02*
X209550000Y216852500I2464162J-616040D01*
G01*
X203200000Y218757500D02*
G75*
G02*
X205740000Y221297500I2540000J0D01*
G01*
%TO.C,MX11*%
X184150000Y215328500D02*
X184150000Y214947500D01*
X195580000Y217868500D02*
X195580000Y216852500D01*
X195580000Y216852500D02*
X190500000Y216852500D01*
X188035838Y214947500D02*
X186309000Y214947500D01*
X184531000Y214947500D02*
X184150000Y214947500D01*
X184150000Y218757500D02*
X184150000Y218376500D01*
X186690000Y221297500D02*
X195580000Y221297500D01*
X195580000Y221297500D02*
X195580000Y220916500D01*
X188035838Y214928540D02*
G75*
G02*
X190500000Y216852500I2464162J-616040D01*
G01*
X184150000Y218757500D02*
G75*
G02*
X186690000Y221297500I2540000J0D01*
G01*
%TO.C,MX10*%
X165100000Y215328500D02*
X165100000Y214947500D01*
X176530000Y217868500D02*
X176530000Y216852500D01*
X176530000Y216852500D02*
X171450000Y216852500D01*
X168985838Y214947500D02*
X167259000Y214947500D01*
X165481000Y214947500D02*
X165100000Y214947500D01*
X165100000Y218757500D02*
X165100000Y218376500D01*
X167640000Y221297500D02*
X176530000Y221297500D01*
X176530000Y221297500D02*
X176530000Y220916500D01*
X168985838Y214928540D02*
G75*
G02*
X171450000Y216852500I2464162J-616040D01*
G01*
X165100000Y218757500D02*
G75*
G02*
X167640000Y221297500I2540000J0D01*
G01*
%TO.C,MX9*%
X146050000Y215328500D02*
X146050000Y214947500D01*
X157480000Y217868500D02*
X157480000Y216852500D01*
X157480000Y216852500D02*
X152400000Y216852500D01*
X149935838Y214947500D02*
X148209000Y214947500D01*
X146431000Y214947500D02*
X146050000Y214947500D01*
X146050000Y218757500D02*
X146050000Y218376500D01*
X148590000Y221297500D02*
X157480000Y221297500D01*
X157480000Y221297500D02*
X157480000Y220916500D01*
X149935838Y214928540D02*
G75*
G02*
X152400000Y216852500I2464162J-616040D01*
G01*
X146050000Y218757500D02*
G75*
G02*
X148590000Y221297500I2540000J0D01*
G01*
%TO.C,MX8*%
X127000000Y215328500D02*
X127000000Y214947500D01*
X138430000Y217868500D02*
X138430000Y216852500D01*
X138430000Y216852500D02*
X133350000Y216852500D01*
X130885838Y214947500D02*
X129159000Y214947500D01*
X127381000Y214947500D02*
X127000000Y214947500D01*
X127000000Y218757500D02*
X127000000Y218376500D01*
X129540000Y221297500D02*
X138430000Y221297500D01*
X138430000Y221297500D02*
X138430000Y220916500D01*
X130885838Y214928540D02*
G75*
G02*
X133350000Y216852500I2464162J-616040D01*
G01*
X127000000Y218757500D02*
G75*
G02*
X129540000Y221297500I2540000J0D01*
G01*
%TO.C,MX7*%
X107950000Y215328500D02*
X107950000Y214947500D01*
X119380000Y217868500D02*
X119380000Y216852500D01*
X119380000Y216852500D02*
X114300000Y216852500D01*
X111835838Y214947500D02*
X110109000Y214947500D01*
X108331000Y214947500D02*
X107950000Y214947500D01*
X107950000Y218757500D02*
X107950000Y218376500D01*
X110490000Y221297500D02*
X119380000Y221297500D01*
X119380000Y221297500D02*
X119380000Y220916500D01*
X111835838Y214928540D02*
G75*
G02*
X114300000Y216852500I2464162J-616040D01*
G01*
X107950000Y218757500D02*
G75*
G02*
X110490000Y221297500I2540000J0D01*
G01*
%TO.C,MX6*%
X88900000Y215328500D02*
X88900000Y214947500D01*
X100330000Y217868500D02*
X100330000Y216852500D01*
X100330000Y216852500D02*
X95250000Y216852500D01*
X92785838Y214947500D02*
X91059000Y214947500D01*
X89281000Y214947500D02*
X88900000Y214947500D01*
X88900000Y218757500D02*
X88900000Y218376500D01*
X91440000Y221297500D02*
X100330000Y221297500D01*
X100330000Y221297500D02*
X100330000Y220916500D01*
X92785838Y214928540D02*
G75*
G02*
X95250000Y216852500I2464162J-616040D01*
G01*
X88900000Y218757500D02*
G75*
G02*
X91440000Y221297500I2540000J0D01*
G01*
%TO.C,MX5*%
X69850000Y215328500D02*
X69850000Y214947500D01*
X81280000Y217868500D02*
X81280000Y216852500D01*
X81280000Y216852500D02*
X76200000Y216852500D01*
X73735838Y214947500D02*
X72009000Y214947500D01*
X70231000Y214947500D02*
X69850000Y214947500D01*
X69850000Y218757500D02*
X69850000Y218376500D01*
X72390000Y221297500D02*
X81280000Y221297500D01*
X81280000Y221297500D02*
X81280000Y220916500D01*
X73735838Y214928540D02*
G75*
G02*
X76200000Y216852500I2464162J-616040D01*
G01*
X69850000Y218757500D02*
G75*
G02*
X72390000Y221297500I2540000J0D01*
G01*
%TO.C,MX4*%
X50800000Y215328500D02*
X50800000Y214947500D01*
X62230000Y217868500D02*
X62230000Y216852500D01*
X62230000Y216852500D02*
X57150000Y216852500D01*
X54685838Y214947500D02*
X52959000Y214947500D01*
X51181000Y214947500D02*
X50800000Y214947500D01*
X50800000Y218757500D02*
X50800000Y218376500D01*
X53340000Y221297500D02*
X62230000Y221297500D01*
X62230000Y221297500D02*
X62230000Y220916500D01*
X54685838Y214928540D02*
G75*
G02*
X57150000Y216852500I2464162J-616040D01*
G01*
X50800000Y218757500D02*
G75*
G02*
X53340000Y221297500I2540000J0D01*
G01*
%TO.C,MX3*%
X31750000Y215328500D02*
X31750000Y214947500D01*
X43180000Y217868500D02*
X43180000Y216852500D01*
X43180000Y216852500D02*
X38100000Y216852500D01*
X35635838Y214947500D02*
X33909000Y214947500D01*
X32131000Y214947500D02*
X31750000Y214947500D01*
X31750000Y218757500D02*
X31750000Y218376500D01*
X34290000Y221297500D02*
X43180000Y221297500D01*
X43180000Y221297500D02*
X43180000Y220916500D01*
X35635838Y214928540D02*
G75*
G02*
X38100000Y216852500I2464162J-616040D01*
G01*
X31750000Y218757500D02*
G75*
G02*
X34290000Y221297500I2540000J0D01*
G01*
%TO.C,MX2*%
X12700000Y215328500D02*
X12700000Y214947500D01*
X24130000Y217868500D02*
X24130000Y216852500D01*
X24130000Y216852500D02*
X19050000Y216852500D01*
X16585838Y214947500D02*
X14859000Y214947500D01*
X13081000Y214947500D02*
X12700000Y214947500D01*
X12700000Y218757500D02*
X12700000Y218376500D01*
X15240000Y221297500D02*
X24130000Y221297500D01*
X24130000Y221297500D02*
X24130000Y220916500D01*
X16585838Y214928540D02*
G75*
G02*
X19050000Y216852500I2464162J-616040D01*
G01*
X12700000Y218757500D02*
G75*
G02*
X15240000Y221297500I2540000J0D01*
G01*
%TO.C,MX1*%
X1587500Y213296500D02*
X1587500Y213677500D01*
X-9842500Y210756500D02*
X-9842500Y211772500D01*
X-9842500Y211772500D02*
X-4762500Y211772500D01*
X-2298338Y213677500D02*
X-571500Y213677500D01*
X1206500Y213677500D02*
X1587500Y213677500D01*
X1587500Y209867500D02*
X1587500Y210248500D01*
X-952500Y207327500D02*
X-9842500Y207327500D01*
X-9842500Y207327500D02*
X-9842500Y207708500D01*
X-2298338Y213696460D02*
G75*
G02*
X-4762500Y211772500I-2464162J616040D01*
G01*
X1587500Y209867500D02*
G75*
G02*
X-952500Y207327500I-2540000J0D01*
G01*
D11*
%TO.C,J1*%
X-5170000Y224787500D02*
X-5170000Y226687500D01*
X-5170000Y220887500D02*
X-5170000Y222887500D01*
X4230000Y224787500D02*
X4230000Y226687500D01*
X4230000Y220887500D02*
X4230000Y222887500D01*
X-5170000Y226687500D02*
X4230000Y226687500D01*
%TO.C,F1*%
X8341159Y221771865D02*
X7137031Y221771865D01*
X8341159Y219951865D02*
X7137031Y219951865D01*
%TO.C,D68*%
X254663560Y134350000D02*
X254663560Y132350000D01*
X254663560Y132350000D02*
X250763560Y132350000D01*
X254663560Y134350000D02*
X250763560Y134350000D01*
%TO.C,D67*%
X230850960Y134350000D02*
X230850960Y132350000D01*
X230850960Y132350000D02*
X226950960Y132350000D01*
X230850960Y134350000D02*
X226950960Y134350000D01*
%TO.C,D66*%
X211800880Y134350560D02*
X211800880Y132350560D01*
X211800880Y132350560D02*
X207900880Y132350560D01*
X211800880Y134350560D02*
X207900880Y134350560D01*
%TO.C,D65*%
X192750800Y134350560D02*
X192750800Y132350560D01*
X192750800Y132350560D02*
X188850800Y132350560D01*
X192750800Y134350560D02*
X188850800Y134350560D01*
%TO.C,D64*%
X173700720Y134350560D02*
X173700720Y132350560D01*
X173700720Y132350560D02*
X169800720Y132350560D01*
X173700720Y134350560D02*
X169800720Y134350560D01*
%TO.C,D63*%
X145125600Y134350560D02*
X145125600Y132350560D01*
X145125600Y132350560D02*
X141225600Y132350560D01*
X145125600Y134350560D02*
X141225600Y134350560D01*
%TO.C,D62*%
X107025440Y134350560D02*
X107025440Y132350560D01*
X107025440Y132350560D02*
X103125440Y132350560D01*
X107025440Y134350560D02*
X103125440Y134350560D01*
%TO.C,D61*%
X78450320Y134350560D02*
X78450320Y132350560D01*
X78450320Y132350560D02*
X74550320Y132350560D01*
X78450320Y134350560D02*
X74550320Y134350560D01*
%TO.C,D60*%
X59400240Y134350560D02*
X59400240Y132350560D01*
X59400240Y132350560D02*
X55500240Y132350560D01*
X59400240Y134350560D02*
X55500240Y134350560D01*
%TO.C,D59*%
X40350160Y134350560D02*
X40350160Y132350560D01*
X40350160Y132350560D02*
X36450160Y132350560D01*
X40350160Y134350560D02*
X36450160Y134350560D01*
%TO.C,D58*%
X21300080Y134350000D02*
X21300080Y132350000D01*
X21300080Y132350000D02*
X17400080Y132350000D01*
X21300080Y134350000D02*
X17400080Y134350000D01*
%TO.C,D57*%
X-2512520Y134350000D02*
X-2512520Y132350000D01*
X-2512520Y132350000D02*
X-6412520Y132350000D01*
X-2512520Y134350000D02*
X-6412520Y134350000D01*
%TO.C,D56*%
X254663560Y153400640D02*
X254663560Y151400640D01*
X254663560Y151400640D02*
X250763560Y151400640D01*
X254663560Y153400640D02*
X250763560Y153400640D01*
%TO.C,D55*%
X230850960Y153400000D02*
X230850960Y151400000D01*
X230850960Y151400000D02*
X226950960Y151400000D01*
X230850960Y153400000D02*
X226950960Y153400000D01*
%TO.C,D54*%
X211800880Y153400640D02*
X211800880Y151400640D01*
X211800880Y151400640D02*
X207900880Y151400640D01*
X211800880Y153400640D02*
X207900880Y153400640D01*
%TO.C,D53*%
X192750800Y153400000D02*
X192750800Y151400000D01*
X192750800Y151400000D02*
X188850800Y151400000D01*
X192750800Y153400000D02*
X188850800Y153400000D01*
%TO.C,D52*%
X173700720Y153400640D02*
X173700720Y151400640D01*
X173700720Y151400640D02*
X169800720Y151400640D01*
X173700720Y153400640D02*
X169800720Y153400640D01*
%TO.C,D51*%
X154650640Y153400000D02*
X154650640Y151400000D01*
X154650640Y151400000D02*
X150750640Y151400000D01*
X154650640Y153400000D02*
X150750640Y153400000D01*
%TO.C,D50*%
X135600560Y153400000D02*
X135600560Y151400000D01*
X135600560Y151400000D02*
X131700560Y151400000D01*
X135600560Y153400000D02*
X131700560Y153400000D01*
%TO.C,D49*%
X116550480Y153400000D02*
X116550480Y151400000D01*
X116550480Y151400000D02*
X112650480Y151400000D01*
X116550480Y153400000D02*
X112650480Y153400000D01*
%TO.C,D48*%
X97500400Y153400640D02*
X97500400Y151400640D01*
X97500400Y151400640D02*
X93600400Y151400640D01*
X97500400Y153400640D02*
X93600400Y153400640D01*
%TO.C,D47*%
X78450320Y153400640D02*
X78450320Y151400640D01*
X78450320Y151400640D02*
X74550320Y151400640D01*
X78450320Y153400640D02*
X74550320Y153400640D01*
%TO.C,D46*%
X59400240Y153400640D02*
X59400240Y151400640D01*
X59400240Y151400640D02*
X55500240Y151400640D01*
X59400240Y153400640D02*
X55500240Y153400640D01*
%TO.C,D45*%
X40350160Y153400640D02*
X40350160Y151400640D01*
X40350160Y151400640D02*
X36450160Y151400640D01*
X40350160Y153400640D02*
X36450160Y153400640D01*
%TO.C,D44*%
X21300080Y153400000D02*
X21300080Y151400000D01*
X21300080Y151400000D02*
X17400080Y151400000D01*
X21300080Y153400000D02*
X17400080Y153400000D01*
%TO.C,D43*%
X-2512520Y153400640D02*
X-2512520Y151400640D01*
X-2512520Y151400640D02*
X-6412520Y151400640D01*
X-2512520Y153400640D02*
X-6412520Y153400640D01*
%TO.C,D42*%
X254663560Y172450000D02*
X254663560Y170450000D01*
X254663560Y170450000D02*
X250763560Y170450000D01*
X254663560Y172450000D02*
X250763560Y172450000D01*
%TO.C,D41*%
X230850960Y172450000D02*
X230850960Y170450000D01*
X230850960Y170450000D02*
X226950960Y170450000D01*
X230850960Y172450000D02*
X226950960Y172450000D01*
%TO.C,D40*%
X211800880Y172450000D02*
X211800880Y170450000D01*
X211800880Y170450000D02*
X207900880Y170450000D01*
X211800880Y172450000D02*
X207900880Y172450000D01*
%TO.C,D39*%
X192750800Y172450000D02*
X192750800Y170450000D01*
X192750800Y170450000D02*
X188850800Y170450000D01*
X192750800Y172450000D02*
X188850800Y172450000D01*
%TO.C,D38*%
X173700720Y172450720D02*
X173700720Y170450720D01*
X173700720Y170450720D02*
X169800720Y170450720D01*
X173700720Y172450720D02*
X169800720Y172450720D01*
%TO.C,D37*%
X154650640Y172450000D02*
X154650640Y170450000D01*
X154650640Y170450000D02*
X150750640Y170450000D01*
X154650640Y172450000D02*
X150750640Y172450000D01*
%TO.C,D36*%
X135600560Y172450720D02*
X135600560Y170450720D01*
X135600560Y170450720D02*
X131700560Y170450720D01*
X135600560Y172450720D02*
X131700560Y172450720D01*
%TO.C,D35*%
X116550480Y172450000D02*
X116550480Y170450000D01*
X116550480Y170450000D02*
X112650480Y170450000D01*
X116550480Y172450000D02*
X112650480Y172450000D01*
%TO.C,D34*%
X97500400Y172450720D02*
X97500400Y170450720D01*
X97500400Y170450720D02*
X93600400Y170450720D01*
X97500400Y172450720D02*
X93600400Y172450720D01*
%TO.C,D33*%
X78450320Y172450000D02*
X78450320Y170450000D01*
X78450320Y170450000D02*
X74550320Y170450000D01*
X78450320Y172450000D02*
X74550320Y172450000D01*
%TO.C,D32*%
X59400240Y172450000D02*
X59400240Y170450000D01*
X59400240Y170450000D02*
X55500240Y170450000D01*
X59400240Y172450000D02*
X55500240Y172450000D01*
%TO.C,D31*%
X40350160Y172450720D02*
X40350160Y170450720D01*
X40350160Y170450720D02*
X36450160Y170450720D01*
X40350160Y172450720D02*
X36450160Y172450720D01*
%TO.C,D30*%
X20443750Y172450000D02*
X16543750Y172450000D01*
X20443750Y170450000D02*
X16543750Y170450000D01*
X20443750Y172450000D02*
X20443750Y170450000D01*
%TO.C,D29*%
X-2512520Y172450000D02*
X-2512520Y170450000D01*
X-2512520Y170450000D02*
X-6412520Y170450000D01*
X-2512520Y172450000D02*
X-6412520Y172450000D01*
%TO.C,D28*%
X250163560Y199025840D02*
X250163560Y201025840D01*
X250163560Y201025840D02*
X254063560Y201025840D01*
X250163560Y199025840D02*
X254063560Y199025840D01*
%TO.C,D27*%
X230850960Y191500000D02*
X230850960Y189500000D01*
X230850960Y189500000D02*
X226950960Y189500000D01*
X230850960Y191500000D02*
X226950960Y191500000D01*
%TO.C,D26*%
X211800880Y191500800D02*
X211800880Y189500800D01*
X211800880Y189500800D02*
X207900880Y189500800D01*
X211800880Y191500800D02*
X207900880Y191500800D01*
%TO.C,D25*%
X192750800Y191500000D02*
X192750800Y189500000D01*
X192750800Y189500000D02*
X188850800Y189500000D01*
X192750800Y191500000D02*
X188850800Y191500000D01*
%TO.C,D24*%
X173700720Y191437500D02*
X173700720Y189437500D01*
X173700720Y189437500D02*
X169800720Y189437500D01*
X173700720Y191437500D02*
X169800720Y191437500D01*
%TO.C,D23*%
X154650640Y191500800D02*
X154650640Y189500800D01*
X154650640Y189500800D02*
X150750640Y189500800D01*
X154650640Y191500800D02*
X150750640Y191500800D01*
%TO.C,D22*%
X135600560Y191500000D02*
X135600560Y189500000D01*
X135600560Y189500000D02*
X131700560Y189500000D01*
X135600560Y191500000D02*
X131700560Y191500000D01*
%TO.C,D21*%
X116550480Y191500000D02*
X116550480Y189500000D01*
X116550480Y189500000D02*
X112650480Y189500000D01*
X116550480Y191500000D02*
X112650480Y191500000D01*
%TO.C,D20*%
X97500400Y191500000D02*
X97500400Y189500000D01*
X97500400Y189500000D02*
X93600400Y189500000D01*
X97500400Y191500000D02*
X93600400Y191500000D01*
%TO.C,D19*%
X78450320Y191500800D02*
X78450320Y189500800D01*
X78450320Y189500800D02*
X74550320Y189500800D01*
X78450320Y191500800D02*
X74550320Y191500800D01*
%TO.C,D18*%
X59400240Y191500000D02*
X59400240Y189500000D01*
X59400240Y189500000D02*
X55500240Y189500000D01*
X59400240Y191500000D02*
X55500240Y191500000D01*
%TO.C,D17*%
X40350160Y191500800D02*
X40350160Y189500800D01*
X40350160Y189500800D02*
X36450160Y189500800D01*
X40350160Y191500800D02*
X36450160Y191500800D01*
%TO.C,D16*%
X21300080Y191500800D02*
X21300080Y189500800D01*
X21300080Y189500800D02*
X17400080Y189500800D01*
X21300080Y191500800D02*
X17400080Y191500800D01*
%TO.C,D15*%
X-2512520Y191500000D02*
X-2512520Y189500000D01*
X-2512520Y189500000D02*
X-6412520Y189500000D01*
X-2512520Y191500000D02*
X-6412520Y191500000D01*
%TO.C,D14*%
X254663560Y210550880D02*
X254663560Y208550880D01*
X254663560Y208550880D02*
X250763560Y208550880D01*
X254663560Y210550880D02*
X250763560Y210550880D01*
%TO.C,D13*%
X230850960Y210550000D02*
X230850960Y208550000D01*
X230850960Y208550000D02*
X226950960Y208550000D01*
X230850960Y210550000D02*
X226950960Y210550000D01*
%TO.C,D12*%
X211800880Y210550000D02*
X211800880Y208550000D01*
X211800880Y208550000D02*
X207900880Y208550000D01*
X211800880Y210550000D02*
X207900880Y210550000D01*
%TO.C,D11*%
X192750800Y210550000D02*
X192750800Y208550000D01*
X192750800Y208550000D02*
X188850800Y208550000D01*
X192750800Y210550000D02*
X188850800Y210550000D01*
%TO.C,D10*%
X173700720Y210550000D02*
X173700720Y208550000D01*
X173700720Y208550000D02*
X169800720Y208550000D01*
X173700720Y210550000D02*
X169800720Y210550000D01*
%TO.C,D9*%
X154650640Y210550000D02*
X154650640Y208550000D01*
X154650640Y208550000D02*
X150750640Y208550000D01*
X154650640Y210550000D02*
X150750640Y210550000D01*
%TO.C,D8*%
X135600560Y210550000D02*
X135600560Y208550000D01*
X135600560Y208550000D02*
X131700560Y208550000D01*
X135600560Y210550000D02*
X131700560Y210550000D01*
%TO.C,D7*%
X116550480Y210550880D02*
X116550480Y208550880D01*
X116550480Y208550880D02*
X112650480Y208550880D01*
X116550480Y210550880D02*
X112650480Y210550880D01*
%TO.C,D6*%
X97500400Y210550880D02*
X97500400Y208550880D01*
X97500400Y208550880D02*
X93600400Y208550880D01*
X97500400Y210550880D02*
X93600400Y210550880D01*
%TO.C,D5*%
X78450320Y210550880D02*
X78450320Y208550880D01*
X78450320Y208550880D02*
X74550320Y208550880D01*
X78450320Y210550880D02*
X74550320Y210550880D01*
%TO.C,D4*%
X59400240Y210550880D02*
X59400240Y208550880D01*
X59400240Y208550880D02*
X55500240Y208550880D01*
X59400240Y210550880D02*
X55500240Y210550880D01*
%TO.C,D3*%
X40350160Y210550000D02*
X40350160Y208550000D01*
X40350160Y208550000D02*
X36450160Y208550000D01*
X40350160Y210550000D02*
X36450160Y210550000D01*
%TO.C,D2*%
X21300080Y210550880D02*
X21300080Y208550880D01*
X21300080Y208550880D02*
X17400080Y208550880D01*
X21300080Y210550880D02*
X17400080Y210550880D01*
%TO.C,D1*%
X-12112500Y221325000D02*
X-10112500Y221325000D01*
X-10112500Y221325000D02*
X-10112500Y217425000D01*
X-12112500Y221325000D02*
X-12112500Y217425000D01*
%TO.C,C3*%
X5472520Y160223342D02*
X5472520Y160740498D01*
X4052520Y160223342D02*
X4052520Y160740498D01*
%TO.C,C2*%
X-9188303Y148348120D02*
X-8671147Y148348120D01*
X-9188303Y146928120D02*
X-8671147Y146928120D01*
%TO.C,C1*%
X-8671147Y149309380D02*
X-9188303Y149309380D01*
X-8671147Y150729380D02*
X-9188303Y150729380D01*
%TO.C,MX15*%
D10*
X-3000595Y203065119D02*
X-3000595Y204065119D01*
X-3333928Y203350833D01*
X-3667261Y204065119D01*
X-3667261Y203065119D01*
X-4048214Y204065119D02*
X-4714880Y203065119D01*
X-4714880Y204065119D02*
X-4048214Y203065119D01*
X-5619642Y203065119D02*
X-5048214Y203065119D01*
X-5333928Y203065119D02*
X-5333928Y204065119D01*
X-5238690Y203922261D01*
X-5143452Y203827023D01*
X-5048214Y203779404D01*
X-6524404Y204065119D02*
X-6048214Y204065119D01*
X-6000595Y203588928D01*
X-6048214Y203636547D01*
X-6143452Y203684166D01*
X-6381547Y203684166D01*
X-6476785Y203636547D01*
X-6524404Y203588928D01*
X-6572023Y203493690D01*
X-6572023Y203255595D01*
X-6524404Y203160357D01*
X-6476785Y203112738D01*
X-6381547Y203065119D01*
X-6143452Y203065119D01*
X-6048214Y203112738D01*
X-6000595Y203160357D01*
%TO.C,U1*%
X14641475Y151123449D02*
X15450999Y151123449D01*
X15546237Y151075830D01*
X15593856Y151028211D01*
X15641475Y150932973D01*
X15641475Y150742497D01*
X15593856Y150647259D01*
X15546237Y150599640D01*
X15450999Y150552021D01*
X14641475Y150552021D01*
X15641475Y149552021D02*
X15641475Y150123449D01*
X15641475Y149837735D02*
X14641475Y149837735D01*
X14784333Y149932973D01*
X14879571Y150028211D01*
X14927190Y150123449D01*
%TO.C,C7*%
X16240171Y144065032D02*
X16287790Y144017413D01*
X16430647Y143969794D01*
X16525885Y143969794D01*
X16668743Y144017413D01*
X16763981Y144112651D01*
X16811600Y144207889D01*
X16859219Y144398365D01*
X16859219Y144541222D01*
X16811600Y144731698D01*
X16763981Y144826936D01*
X16668743Y144922175D01*
X16525885Y144969794D01*
X16430647Y144969794D01*
X16287790Y144922175D01*
X16240171Y144874555D01*
X15906838Y144969794D02*
X15240171Y144969794D01*
X15668743Y143969794D01*
%TO.C,C6*%
X7905761Y138111882D02*
X7953380Y138064263D01*
X8096237Y138016644D01*
X8191475Y138016644D01*
X8334333Y138064263D01*
X8429571Y138159501D01*
X8477190Y138254739D01*
X8524809Y138445215D01*
X8524809Y138588072D01*
X8477190Y138778548D01*
X8429571Y138873786D01*
X8334333Y138969025D01*
X8191475Y139016644D01*
X8096237Y139016644D01*
X7953380Y138969025D01*
X7905761Y138921405D01*
X7048618Y139016644D02*
X7239095Y139016644D01*
X7334333Y138969025D01*
X7381952Y138921405D01*
X7477190Y138778548D01*
X7524809Y138588072D01*
X7524809Y138207120D01*
X7477190Y138111882D01*
X7429571Y138064263D01*
X7334333Y138016644D01*
X7143856Y138016644D01*
X7048618Y138064263D01*
X7000999Y138111882D01*
X6953380Y138207120D01*
X6953380Y138445215D01*
X7000999Y138540453D01*
X7048618Y138588072D01*
X7143856Y138635691D01*
X7334333Y138635691D01*
X7429571Y138588072D01*
X7477190Y138540453D01*
X7524809Y138445215D01*
%TO.C,C5*%
X7713576Y162403222D02*
X7761195Y162355603D01*
X7904052Y162307984D01*
X7999290Y162307984D01*
X8142148Y162355603D01*
X8237386Y162450841D01*
X8285005Y162546079D01*
X8332624Y162736555D01*
X8332624Y162879412D01*
X8285005Y163069888D01*
X8237386Y163165126D01*
X8142148Y163260365D01*
X7999290Y163307984D01*
X7904052Y163307984D01*
X7761195Y163260365D01*
X7713576Y163212745D01*
X6808814Y163307984D02*
X7285005Y163307984D01*
X7332624Y162831793D01*
X7285005Y162879412D01*
X7189767Y162927031D01*
X6951671Y162927031D01*
X6856433Y162879412D01*
X6808814Y162831793D01*
X6761195Y162736555D01*
X6761195Y162498460D01*
X6808814Y162403222D01*
X6856433Y162355603D01*
X6951671Y162307984D01*
X7189767Y162307984D01*
X7285005Y162355603D01*
X7332624Y162403222D01*
%TO.C,C4*%
X7713576Y160617277D02*
X7761195Y160569658D01*
X7904052Y160522039D01*
X7999290Y160522039D01*
X8142148Y160569658D01*
X8237386Y160664896D01*
X8285005Y160760134D01*
X8332624Y160950610D01*
X8332624Y161093467D01*
X8285005Y161283943D01*
X8237386Y161379181D01*
X8142148Y161474420D01*
X7999290Y161522039D01*
X7904052Y161522039D01*
X7761195Y161474420D01*
X7713576Y161426800D01*
X6856433Y161188705D02*
X6856433Y160522039D01*
X7094529Y161569658D02*
X7332624Y160855372D01*
X6713576Y160855372D01*
%TO.C,MX68*%
X254174404Y145915119D02*
X254174404Y146915119D01*
X253841071Y146200833D01*
X253507738Y146915119D01*
X253507738Y145915119D01*
X253126785Y146915119D02*
X252460119Y145915119D01*
X252460119Y146915119D02*
X253126785Y145915119D01*
X251650595Y146915119D02*
X251841071Y146915119D01*
X251936309Y146867500D01*
X251983928Y146819880D01*
X252079166Y146677023D01*
X252126785Y146486547D01*
X252126785Y146105595D01*
X252079166Y146010357D01*
X252031547Y145962738D01*
X251936309Y145915119D01*
X251745833Y145915119D01*
X251650595Y145962738D01*
X251602976Y146010357D01*
X251555357Y146105595D01*
X251555357Y146343690D01*
X251602976Y146438928D01*
X251650595Y146486547D01*
X251745833Y146534166D01*
X251936309Y146534166D01*
X252031547Y146486547D01*
X252079166Y146438928D01*
X252126785Y146343690D01*
X250983928Y146486547D02*
X251079166Y146534166D01*
X251126785Y146581785D01*
X251174404Y146677023D01*
X251174404Y146724642D01*
X251126785Y146819880D01*
X251079166Y146867500D01*
X250983928Y146915119D01*
X250793452Y146915119D01*
X250698214Y146867500D01*
X250650595Y146819880D01*
X250602976Y146724642D01*
X250602976Y146677023D01*
X250650595Y146581785D01*
X250698214Y146534166D01*
X250793452Y146486547D01*
X250983928Y146486547D01*
X251079166Y146438928D01*
X251126785Y146391309D01*
X251174404Y146296071D01*
X251174404Y146105595D01*
X251126785Y146010357D01*
X251079166Y145962738D01*
X250983928Y145915119D01*
X250793452Y145915119D01*
X250698214Y145962738D01*
X250650595Y146010357D01*
X250602976Y146105595D01*
X250602976Y146296071D01*
X250650595Y146391309D01*
X250698214Y146438928D01*
X250793452Y146486547D01*
%TO.C,Y1*%
X-4195699Y151643189D02*
X-4195699Y151166999D01*
X-3862366Y152166999D02*
X-4195699Y151643189D01*
X-4529032Y152166999D01*
X-5386175Y151166999D02*
X-4814747Y151166999D01*
X-5100461Y151166999D02*
X-5100461Y152166999D01*
X-5005223Y152024141D01*
X-4909985Y151928903D01*
X-4814747Y151881284D01*
%TO.C,SW1*%
X8353688Y130536428D02*
X8210831Y130488809D01*
X7972735Y130488809D01*
X7877497Y130536428D01*
X7829878Y130584047D01*
X7782259Y130679285D01*
X7782259Y130774523D01*
X7829878Y130869761D01*
X7877497Y130917380D01*
X7972735Y130964999D01*
X8163212Y131012618D01*
X8258450Y131060237D01*
X8306069Y131107856D01*
X8353688Y131203094D01*
X8353688Y131298332D01*
X8306069Y131393570D01*
X8258450Y131441190D01*
X8163212Y131488809D01*
X7925116Y131488809D01*
X7782259Y131441190D01*
X7448926Y131488809D02*
X7210831Y130488809D01*
X7020355Y131203094D01*
X6829878Y130488809D01*
X6591783Y131488809D01*
X5687021Y130488809D02*
X6258450Y130488809D01*
X5972735Y130488809D02*
X5972735Y131488809D01*
X6067974Y131345951D01*
X6163212Y131250713D01*
X6258450Y131203094D01*
%TO.C,R6*%
X-13375809Y214480066D02*
X-13851999Y214813400D01*
X-13375809Y215051495D02*
X-14375809Y215051495D01*
X-14375809Y214670542D01*
X-14328190Y214575304D01*
X-14280570Y214527685D01*
X-14185332Y214480066D01*
X-14042475Y214480066D01*
X-13947237Y214527685D01*
X-13899618Y214575304D01*
X-13851999Y214670542D01*
X-13851999Y215051495D01*
X-14375809Y213622923D02*
X-14375809Y213813400D01*
X-14328190Y213908638D01*
X-14280570Y213956257D01*
X-14137713Y214051495D01*
X-13947237Y214099114D01*
X-13566285Y214099114D01*
X-13471047Y214051495D01*
X-13423428Y214003876D01*
X-13375809Y213908638D01*
X-13375809Y213718161D01*
X-13423428Y213622923D01*
X-13471047Y213575304D01*
X-13566285Y213527685D01*
X-13804380Y213527685D01*
X-13899618Y213575304D01*
X-13947237Y213622923D01*
X-13994856Y213718161D01*
X-13994856Y213908638D01*
X-13947237Y214003876D01*
X-13899618Y214051495D01*
X-13804380Y214099114D01*
%TO.C,R5*%
X-10399234Y214480066D02*
X-10875424Y214813400D01*
X-10399234Y215051495D02*
X-11399234Y215051495D01*
X-11399234Y214670542D01*
X-11351615Y214575304D01*
X-11303995Y214527685D01*
X-11208757Y214480066D01*
X-11065900Y214480066D01*
X-10970662Y214527685D01*
X-10923043Y214575304D01*
X-10875424Y214670542D01*
X-10875424Y215051495D01*
X-11399234Y213575304D02*
X-11399234Y214051495D01*
X-10923043Y214099114D01*
X-10970662Y214051495D01*
X-11018281Y213956257D01*
X-11018281Y213718161D01*
X-10970662Y213622923D01*
X-10923043Y213575304D01*
X-10827805Y213527685D01*
X-10589710Y213527685D01*
X-10494472Y213575304D01*
X-10446853Y213622923D01*
X-10399234Y213718161D01*
X-10399234Y213956257D01*
X-10446853Y214051495D01*
X-10494472Y214099114D01*
%TO.C,R4*%
X9518050Y163878291D02*
X9041860Y164211625D01*
X9518050Y164449720D02*
X8518050Y164449720D01*
X8518050Y164068767D01*
X8565670Y163973529D01*
X8613289Y163925910D01*
X8708527Y163878291D01*
X8851384Y163878291D01*
X8946622Y163925910D01*
X8994241Y163973529D01*
X9041860Y164068767D01*
X9041860Y164449720D01*
X8851384Y163021148D02*
X9518050Y163021148D01*
X8470431Y163259244D02*
X9184717Y163497339D01*
X9184717Y162878291D01*
%TO.C,R3*%
X11032105Y208526916D02*
X10555915Y208860250D01*
X11032105Y209098345D02*
X10032105Y209098345D01*
X10032105Y208717392D01*
X10079725Y208622154D01*
X10127344Y208574535D01*
X10222582Y208526916D01*
X10365439Y208526916D01*
X10460677Y208574535D01*
X10508296Y208622154D01*
X10555915Y208717392D01*
X10555915Y209098345D01*
X10032105Y208193583D02*
X10032105Y207574535D01*
X10413058Y207907869D01*
X10413058Y207765011D01*
X10460677Y207669773D01*
X10508296Y207622154D01*
X10603534Y207574535D01*
X10841629Y207574535D01*
X10936867Y207622154D01*
X10984486Y207669773D01*
X11032105Y207765011D01*
X11032105Y208050726D01*
X10984486Y208145964D01*
X10936867Y208193583D01*
%TO.C,R2*%
X8055530Y208526916D02*
X7579340Y208860250D01*
X8055530Y209098345D02*
X7055530Y209098345D01*
X7055530Y208717392D01*
X7103150Y208622154D01*
X7150769Y208574535D01*
X7246007Y208526916D01*
X7388864Y208526916D01*
X7484102Y208574535D01*
X7531721Y208622154D01*
X7579340Y208717392D01*
X7579340Y209098345D01*
X7150769Y208145964D02*
X7103150Y208098345D01*
X7055530Y208003107D01*
X7055530Y207765011D01*
X7103150Y207669773D01*
X7150769Y207622154D01*
X7246007Y207574535D01*
X7341245Y207574535D01*
X7484102Y207622154D01*
X8055530Y208193583D01*
X8055530Y207574535D01*
%TO.C,R1*%
X-1023963Y147645109D02*
X-690630Y148121299D01*
X-452534Y147645109D02*
X-452534Y148645109D01*
X-833487Y148645109D01*
X-928725Y148597490D01*
X-976344Y148549870D01*
X-1023963Y148454632D01*
X-1023963Y148311775D01*
X-976344Y148216537D01*
X-928725Y148168918D01*
X-833487Y148121299D01*
X-452534Y148121299D01*
X-1976344Y147645109D02*
X-1404915Y147645109D01*
X-1690629Y147645109D02*
X-1690629Y148645109D01*
X-1595391Y148502251D01*
X-1500153Y148407013D01*
X-1404915Y148359394D01*
%TO.C,MX67*%
X230361904Y145915119D02*
X230361904Y146915119D01*
X230028571Y146200833D01*
X229695238Y146915119D01*
X229695238Y145915119D01*
X229314285Y146915119D02*
X228647619Y145915119D01*
X228647619Y146915119D02*
X229314285Y145915119D01*
X227838095Y146915119D02*
X228028571Y146915119D01*
X228123809Y146867500D01*
X228171428Y146819880D01*
X228266666Y146677023D01*
X228314285Y146486547D01*
X228314285Y146105595D01*
X228266666Y146010357D01*
X228219047Y145962738D01*
X228123809Y145915119D01*
X227933333Y145915119D01*
X227838095Y145962738D01*
X227790476Y146010357D01*
X227742857Y146105595D01*
X227742857Y146343690D01*
X227790476Y146438928D01*
X227838095Y146486547D01*
X227933333Y146534166D01*
X228123809Y146534166D01*
X228219047Y146486547D01*
X228266666Y146438928D01*
X228314285Y146343690D01*
X227409523Y146915119D02*
X226742857Y146915119D01*
X227171428Y145915119D01*
%TO.C,MX66*%
X211311904Y145915119D02*
X211311904Y146915119D01*
X210978571Y146200833D01*
X210645238Y146915119D01*
X210645238Y145915119D01*
X210264285Y146915119D02*
X209597619Y145915119D01*
X209597619Y146915119D02*
X210264285Y145915119D01*
X208788095Y146915119D02*
X208978571Y146915119D01*
X209073809Y146867500D01*
X209121428Y146819880D01*
X209216666Y146677023D01*
X209264285Y146486547D01*
X209264285Y146105595D01*
X209216666Y146010357D01*
X209169047Y145962738D01*
X209073809Y145915119D01*
X208883333Y145915119D01*
X208788095Y145962738D01*
X208740476Y146010357D01*
X208692857Y146105595D01*
X208692857Y146343690D01*
X208740476Y146438928D01*
X208788095Y146486547D01*
X208883333Y146534166D01*
X209073809Y146534166D01*
X209169047Y146486547D01*
X209216666Y146438928D01*
X209264285Y146343690D01*
X207835714Y146915119D02*
X208026190Y146915119D01*
X208121428Y146867500D01*
X208169047Y146819880D01*
X208264285Y146677023D01*
X208311904Y146486547D01*
X208311904Y146105595D01*
X208264285Y146010357D01*
X208216666Y145962738D01*
X208121428Y145915119D01*
X207930952Y145915119D01*
X207835714Y145962738D01*
X207788095Y146010357D01*
X207740476Y146105595D01*
X207740476Y146343690D01*
X207788095Y146438928D01*
X207835714Y146486547D01*
X207930952Y146534166D01*
X208121428Y146534166D01*
X208216666Y146486547D01*
X208264285Y146438928D01*
X208311904Y146343690D01*
%TO.C,MX65*%
X192261904Y145915119D02*
X192261904Y146915119D01*
X191928571Y146200833D01*
X191595238Y146915119D01*
X191595238Y145915119D01*
X191214285Y146915119D02*
X190547619Y145915119D01*
X190547619Y146915119D02*
X191214285Y145915119D01*
X189738095Y146915119D02*
X189928571Y146915119D01*
X190023809Y146867500D01*
X190071428Y146819880D01*
X190166666Y146677023D01*
X190214285Y146486547D01*
X190214285Y146105595D01*
X190166666Y146010357D01*
X190119047Y145962738D01*
X190023809Y145915119D01*
X189833333Y145915119D01*
X189738095Y145962738D01*
X189690476Y146010357D01*
X189642857Y146105595D01*
X189642857Y146343690D01*
X189690476Y146438928D01*
X189738095Y146486547D01*
X189833333Y146534166D01*
X190023809Y146534166D01*
X190119047Y146486547D01*
X190166666Y146438928D01*
X190214285Y146343690D01*
X188738095Y146915119D02*
X189214285Y146915119D01*
X189261904Y146438928D01*
X189214285Y146486547D01*
X189119047Y146534166D01*
X188880952Y146534166D01*
X188785714Y146486547D01*
X188738095Y146438928D01*
X188690476Y146343690D01*
X188690476Y146105595D01*
X188738095Y146010357D01*
X188785714Y145962738D01*
X188880952Y145915119D01*
X189119047Y145915119D01*
X189214285Y145962738D01*
X189261904Y146010357D01*
%TO.C,MX64*%
X173211904Y145915119D02*
X173211904Y146915119D01*
X172878571Y146200833D01*
X172545238Y146915119D01*
X172545238Y145915119D01*
X172164285Y146915119D02*
X171497619Y145915119D01*
X171497619Y146915119D02*
X172164285Y145915119D01*
X170688095Y146915119D02*
X170878571Y146915119D01*
X170973809Y146867500D01*
X171021428Y146819880D01*
X171116666Y146677023D01*
X171164285Y146486547D01*
X171164285Y146105595D01*
X171116666Y146010357D01*
X171069047Y145962738D01*
X170973809Y145915119D01*
X170783333Y145915119D01*
X170688095Y145962738D01*
X170640476Y146010357D01*
X170592857Y146105595D01*
X170592857Y146343690D01*
X170640476Y146438928D01*
X170688095Y146486547D01*
X170783333Y146534166D01*
X170973809Y146534166D01*
X171069047Y146486547D01*
X171116666Y146438928D01*
X171164285Y146343690D01*
X169735714Y146581785D02*
X169735714Y145915119D01*
X169973809Y146962738D02*
X170211904Y146248452D01*
X169592857Y146248452D01*
%TO.C,MX63*%
X144636904Y145915119D02*
X144636904Y146915119D01*
X144303571Y146200833D01*
X143970238Y146915119D01*
X143970238Y145915119D01*
X143589285Y146915119D02*
X142922619Y145915119D01*
X142922619Y146915119D02*
X143589285Y145915119D01*
X142113095Y146915119D02*
X142303571Y146915119D01*
X142398809Y146867500D01*
X142446428Y146819880D01*
X142541666Y146677023D01*
X142589285Y146486547D01*
X142589285Y146105595D01*
X142541666Y146010357D01*
X142494047Y145962738D01*
X142398809Y145915119D01*
X142208333Y145915119D01*
X142113095Y145962738D01*
X142065476Y146010357D01*
X142017857Y146105595D01*
X142017857Y146343690D01*
X142065476Y146438928D01*
X142113095Y146486547D01*
X142208333Y146534166D01*
X142398809Y146534166D01*
X142494047Y146486547D01*
X142541666Y146438928D01*
X142589285Y146343690D01*
X141684523Y146915119D02*
X141065476Y146915119D01*
X141398809Y146534166D01*
X141255952Y146534166D01*
X141160714Y146486547D01*
X141113095Y146438928D01*
X141065476Y146343690D01*
X141065476Y146105595D01*
X141113095Y146010357D01*
X141160714Y145962738D01*
X141255952Y145915119D01*
X141541666Y145915119D01*
X141636904Y145962738D01*
X141684523Y146010357D01*
%TO.C,MX62*%
X106536904Y145915119D02*
X106536904Y146915119D01*
X106203571Y146200833D01*
X105870238Y146915119D01*
X105870238Y145915119D01*
X105489285Y146915119D02*
X104822619Y145915119D01*
X104822619Y146915119D02*
X105489285Y145915119D01*
X104013095Y146915119D02*
X104203571Y146915119D01*
X104298809Y146867500D01*
X104346428Y146819880D01*
X104441666Y146677023D01*
X104489285Y146486547D01*
X104489285Y146105595D01*
X104441666Y146010357D01*
X104394047Y145962738D01*
X104298809Y145915119D01*
X104108333Y145915119D01*
X104013095Y145962738D01*
X103965476Y146010357D01*
X103917857Y146105595D01*
X103917857Y146343690D01*
X103965476Y146438928D01*
X104013095Y146486547D01*
X104108333Y146534166D01*
X104298809Y146534166D01*
X104394047Y146486547D01*
X104441666Y146438928D01*
X104489285Y146343690D01*
X103536904Y146819880D02*
X103489285Y146867500D01*
X103394047Y146915119D01*
X103155952Y146915119D01*
X103060714Y146867500D01*
X103013095Y146819880D01*
X102965476Y146724642D01*
X102965476Y146629404D01*
X103013095Y146486547D01*
X103584523Y145915119D01*
X102965476Y145915119D01*
%TO.C,MX61*%
X77961904Y145915119D02*
X77961904Y146915119D01*
X77628571Y146200833D01*
X77295238Y146915119D01*
X77295238Y145915119D01*
X76914285Y146915119D02*
X76247619Y145915119D01*
X76247619Y146915119D02*
X76914285Y145915119D01*
X75438095Y146915119D02*
X75628571Y146915119D01*
X75723809Y146867500D01*
X75771428Y146819880D01*
X75866666Y146677023D01*
X75914285Y146486547D01*
X75914285Y146105595D01*
X75866666Y146010357D01*
X75819047Y145962738D01*
X75723809Y145915119D01*
X75533333Y145915119D01*
X75438095Y145962738D01*
X75390476Y146010357D01*
X75342857Y146105595D01*
X75342857Y146343690D01*
X75390476Y146438928D01*
X75438095Y146486547D01*
X75533333Y146534166D01*
X75723809Y146534166D01*
X75819047Y146486547D01*
X75866666Y146438928D01*
X75914285Y146343690D01*
X74390476Y145915119D02*
X74961904Y145915119D01*
X74676190Y145915119D02*
X74676190Y146915119D01*
X74771428Y146772261D01*
X74866666Y146677023D01*
X74961904Y146629404D01*
%TO.C,MX60*%
X58911904Y145915119D02*
X58911904Y146915119D01*
X58578571Y146200833D01*
X58245238Y146915119D01*
X58245238Y145915119D01*
X57864285Y146915119D02*
X57197619Y145915119D01*
X57197619Y146915119D02*
X57864285Y145915119D01*
X56388095Y146915119D02*
X56578571Y146915119D01*
X56673809Y146867500D01*
X56721428Y146819880D01*
X56816666Y146677023D01*
X56864285Y146486547D01*
X56864285Y146105595D01*
X56816666Y146010357D01*
X56769047Y145962738D01*
X56673809Y145915119D01*
X56483333Y145915119D01*
X56388095Y145962738D01*
X56340476Y146010357D01*
X56292857Y146105595D01*
X56292857Y146343690D01*
X56340476Y146438928D01*
X56388095Y146486547D01*
X56483333Y146534166D01*
X56673809Y146534166D01*
X56769047Y146486547D01*
X56816666Y146438928D01*
X56864285Y146343690D01*
X55673809Y146915119D02*
X55578571Y146915119D01*
X55483333Y146867500D01*
X55435714Y146819880D01*
X55388095Y146724642D01*
X55340476Y146534166D01*
X55340476Y146296071D01*
X55388095Y146105595D01*
X55435714Y146010357D01*
X55483333Y145962738D01*
X55578571Y145915119D01*
X55673809Y145915119D01*
X55769047Y145962738D01*
X55816666Y146010357D01*
X55864285Y146105595D01*
X55911904Y146296071D01*
X55911904Y146534166D01*
X55864285Y146724642D01*
X55816666Y146819880D01*
X55769047Y146867500D01*
X55673809Y146915119D01*
%TO.C,MX59*%
X39861904Y145915119D02*
X39861904Y146915119D01*
X39528571Y146200833D01*
X39195238Y146915119D01*
X39195238Y145915119D01*
X38814285Y146915119D02*
X38147619Y145915119D01*
X38147619Y146915119D02*
X38814285Y145915119D01*
X37290476Y146915119D02*
X37766666Y146915119D01*
X37814285Y146438928D01*
X37766666Y146486547D01*
X37671428Y146534166D01*
X37433333Y146534166D01*
X37338095Y146486547D01*
X37290476Y146438928D01*
X37242857Y146343690D01*
X37242857Y146105595D01*
X37290476Y146010357D01*
X37338095Y145962738D01*
X37433333Y145915119D01*
X37671428Y145915119D01*
X37766666Y145962738D01*
X37814285Y146010357D01*
X36766666Y145915119D02*
X36576190Y145915119D01*
X36480952Y145962738D01*
X36433333Y146010357D01*
X36338095Y146153214D01*
X36290476Y146343690D01*
X36290476Y146724642D01*
X36338095Y146819880D01*
X36385714Y146867500D01*
X36480952Y146915119D01*
X36671428Y146915119D01*
X36766666Y146867500D01*
X36814285Y146819880D01*
X36861904Y146724642D01*
X36861904Y146486547D01*
X36814285Y146391309D01*
X36766666Y146343690D01*
X36671428Y146296071D01*
X36480952Y146296071D01*
X36385714Y146343690D01*
X36338095Y146391309D01*
X36290476Y146486547D01*
%TO.C,MX58*%
X20811904Y145915119D02*
X20811904Y146915119D01*
X20478571Y146200833D01*
X20145238Y146915119D01*
X20145238Y145915119D01*
X19764285Y146915119D02*
X19097619Y145915119D01*
X19097619Y146915119D02*
X19764285Y145915119D01*
X18240476Y146915119D02*
X18716666Y146915119D01*
X18764285Y146438928D01*
X18716666Y146486547D01*
X18621428Y146534166D01*
X18383333Y146534166D01*
X18288095Y146486547D01*
X18240476Y146438928D01*
X18192857Y146343690D01*
X18192857Y146105595D01*
X18240476Y146010357D01*
X18288095Y145962738D01*
X18383333Y145915119D01*
X18621428Y145915119D01*
X18716666Y145962738D01*
X18764285Y146010357D01*
X17621428Y146486547D02*
X17716666Y146534166D01*
X17764285Y146581785D01*
X17811904Y146677023D01*
X17811904Y146724642D01*
X17764285Y146819880D01*
X17716666Y146867500D01*
X17621428Y146915119D01*
X17430952Y146915119D01*
X17335714Y146867500D01*
X17288095Y146819880D01*
X17240476Y146724642D01*
X17240476Y146677023D01*
X17288095Y146581785D01*
X17335714Y146534166D01*
X17430952Y146486547D01*
X17621428Y146486547D01*
X17716666Y146438928D01*
X17764285Y146391309D01*
X17811904Y146296071D01*
X17811904Y146105595D01*
X17764285Y146010357D01*
X17716666Y145962738D01*
X17621428Y145915119D01*
X17430952Y145915119D01*
X17335714Y145962738D01*
X17288095Y146010357D01*
X17240476Y146105595D01*
X17240476Y146296071D01*
X17288095Y146391309D01*
X17335714Y146438928D01*
X17430952Y146486547D01*
%TO.C,MX57*%
X-3000595Y145915119D02*
X-3000595Y146915119D01*
X-3333928Y146200833D01*
X-3667261Y146915119D01*
X-3667261Y145915119D01*
X-4048214Y146915119D02*
X-4714880Y145915119D01*
X-4714880Y146915119D02*
X-4048214Y145915119D01*
X-5572023Y146915119D02*
X-5095833Y146915119D01*
X-5048214Y146438928D01*
X-5095833Y146486547D01*
X-5191071Y146534166D01*
X-5429166Y146534166D01*
X-5524404Y146486547D01*
X-5572023Y146438928D01*
X-5619642Y146343690D01*
X-5619642Y146105595D01*
X-5572023Y146010357D01*
X-5524404Y145962738D01*
X-5429166Y145915119D01*
X-5191071Y145915119D01*
X-5095833Y145962738D01*
X-5048214Y146010357D01*
X-5952976Y146915119D02*
X-6619642Y146915119D01*
X-6191071Y145915119D01*
%TO.C,MX56*%
X254174404Y164965119D02*
X254174404Y165965119D01*
X253841071Y165250833D01*
X253507738Y165965119D01*
X253507738Y164965119D01*
X253126785Y165965119D02*
X252460119Y164965119D01*
X252460119Y165965119D02*
X253126785Y164965119D01*
X251602976Y165965119D02*
X252079166Y165965119D01*
X252126785Y165488928D01*
X252079166Y165536547D01*
X251983928Y165584166D01*
X251745833Y165584166D01*
X251650595Y165536547D01*
X251602976Y165488928D01*
X251555357Y165393690D01*
X251555357Y165155595D01*
X251602976Y165060357D01*
X251650595Y165012738D01*
X251745833Y164965119D01*
X251983928Y164965119D01*
X252079166Y165012738D01*
X252126785Y165060357D01*
X250698214Y165965119D02*
X250888690Y165965119D01*
X250983928Y165917500D01*
X251031547Y165869880D01*
X251126785Y165727023D01*
X251174404Y165536547D01*
X251174404Y165155595D01*
X251126785Y165060357D01*
X251079166Y165012738D01*
X250983928Y164965119D01*
X250793452Y164965119D01*
X250698214Y165012738D01*
X250650595Y165060357D01*
X250602976Y165155595D01*
X250602976Y165393690D01*
X250650595Y165488928D01*
X250698214Y165536547D01*
X250793452Y165584166D01*
X250983928Y165584166D01*
X251079166Y165536547D01*
X251126785Y165488928D01*
X251174404Y165393690D01*
%TO.C,MX55*%
X230361904Y164965119D02*
X230361904Y165965119D01*
X230028571Y165250833D01*
X229695238Y165965119D01*
X229695238Y164965119D01*
X229314285Y165965119D02*
X228647619Y164965119D01*
X228647619Y165965119D02*
X229314285Y164965119D01*
X227790476Y165965119D02*
X228266666Y165965119D01*
X228314285Y165488928D01*
X228266666Y165536547D01*
X228171428Y165584166D01*
X227933333Y165584166D01*
X227838095Y165536547D01*
X227790476Y165488928D01*
X227742857Y165393690D01*
X227742857Y165155595D01*
X227790476Y165060357D01*
X227838095Y165012738D01*
X227933333Y164965119D01*
X228171428Y164965119D01*
X228266666Y165012738D01*
X228314285Y165060357D01*
X226838095Y165965119D02*
X227314285Y165965119D01*
X227361904Y165488928D01*
X227314285Y165536547D01*
X227219047Y165584166D01*
X226980952Y165584166D01*
X226885714Y165536547D01*
X226838095Y165488928D01*
X226790476Y165393690D01*
X226790476Y165155595D01*
X226838095Y165060357D01*
X226885714Y165012738D01*
X226980952Y164965119D01*
X227219047Y164965119D01*
X227314285Y165012738D01*
X227361904Y165060357D01*
%TO.C,MX54*%
X211311904Y164965119D02*
X211311904Y165965119D01*
X210978571Y165250833D01*
X210645238Y165965119D01*
X210645238Y164965119D01*
X210264285Y165965119D02*
X209597619Y164965119D01*
X209597619Y165965119D02*
X210264285Y164965119D01*
X208740476Y165965119D02*
X209216666Y165965119D01*
X209264285Y165488928D01*
X209216666Y165536547D01*
X209121428Y165584166D01*
X208883333Y165584166D01*
X208788095Y165536547D01*
X208740476Y165488928D01*
X208692857Y165393690D01*
X208692857Y165155595D01*
X208740476Y165060357D01*
X208788095Y165012738D01*
X208883333Y164965119D01*
X209121428Y164965119D01*
X209216666Y165012738D01*
X209264285Y165060357D01*
X207835714Y165631785D02*
X207835714Y164965119D01*
X208073809Y166012738D02*
X208311904Y165298452D01*
X207692857Y165298452D01*
%TO.C,MX53*%
X192261904Y164965119D02*
X192261904Y165965119D01*
X191928571Y165250833D01*
X191595238Y165965119D01*
X191595238Y164965119D01*
X191214285Y165965119D02*
X190547619Y164965119D01*
X190547619Y165965119D02*
X191214285Y164965119D01*
X189690476Y165965119D02*
X190166666Y165965119D01*
X190214285Y165488928D01*
X190166666Y165536547D01*
X190071428Y165584166D01*
X189833333Y165584166D01*
X189738095Y165536547D01*
X189690476Y165488928D01*
X189642857Y165393690D01*
X189642857Y165155595D01*
X189690476Y165060357D01*
X189738095Y165012738D01*
X189833333Y164965119D01*
X190071428Y164965119D01*
X190166666Y165012738D01*
X190214285Y165060357D01*
X189309523Y165965119D02*
X188690476Y165965119D01*
X189023809Y165584166D01*
X188880952Y165584166D01*
X188785714Y165536547D01*
X188738095Y165488928D01*
X188690476Y165393690D01*
X188690476Y165155595D01*
X188738095Y165060357D01*
X188785714Y165012738D01*
X188880952Y164965119D01*
X189166666Y164965119D01*
X189261904Y165012738D01*
X189309523Y165060357D01*
%TO.C,MX52*%
X173211904Y164965119D02*
X173211904Y165965119D01*
X172878571Y165250833D01*
X172545238Y165965119D01*
X172545238Y164965119D01*
X172164285Y165965119D02*
X171497619Y164965119D01*
X171497619Y165965119D02*
X172164285Y164965119D01*
X170640476Y165965119D02*
X171116666Y165965119D01*
X171164285Y165488928D01*
X171116666Y165536547D01*
X171021428Y165584166D01*
X170783333Y165584166D01*
X170688095Y165536547D01*
X170640476Y165488928D01*
X170592857Y165393690D01*
X170592857Y165155595D01*
X170640476Y165060357D01*
X170688095Y165012738D01*
X170783333Y164965119D01*
X171021428Y164965119D01*
X171116666Y165012738D01*
X171164285Y165060357D01*
X170211904Y165869880D02*
X170164285Y165917500D01*
X170069047Y165965119D01*
X169830952Y165965119D01*
X169735714Y165917500D01*
X169688095Y165869880D01*
X169640476Y165774642D01*
X169640476Y165679404D01*
X169688095Y165536547D01*
X170259523Y164965119D01*
X169640476Y164965119D01*
%TO.C,MX51*%
X154161904Y164965119D02*
X154161904Y165965119D01*
X153828571Y165250833D01*
X153495238Y165965119D01*
X153495238Y164965119D01*
X153114285Y165965119D02*
X152447619Y164965119D01*
X152447619Y165965119D02*
X153114285Y164965119D01*
X151590476Y165965119D02*
X152066666Y165965119D01*
X152114285Y165488928D01*
X152066666Y165536547D01*
X151971428Y165584166D01*
X151733333Y165584166D01*
X151638095Y165536547D01*
X151590476Y165488928D01*
X151542857Y165393690D01*
X151542857Y165155595D01*
X151590476Y165060357D01*
X151638095Y165012738D01*
X151733333Y164965119D01*
X151971428Y164965119D01*
X152066666Y165012738D01*
X152114285Y165060357D01*
X150590476Y164965119D02*
X151161904Y164965119D01*
X150876190Y164965119D02*
X150876190Y165965119D01*
X150971428Y165822261D01*
X151066666Y165727023D01*
X151161904Y165679404D01*
%TO.C,MX50*%
X135111904Y164965119D02*
X135111904Y165965119D01*
X134778571Y165250833D01*
X134445238Y165965119D01*
X134445238Y164965119D01*
X134064285Y165965119D02*
X133397619Y164965119D01*
X133397619Y165965119D02*
X134064285Y164965119D01*
X132540476Y165965119D02*
X133016666Y165965119D01*
X133064285Y165488928D01*
X133016666Y165536547D01*
X132921428Y165584166D01*
X132683333Y165584166D01*
X132588095Y165536547D01*
X132540476Y165488928D01*
X132492857Y165393690D01*
X132492857Y165155595D01*
X132540476Y165060357D01*
X132588095Y165012738D01*
X132683333Y164965119D01*
X132921428Y164965119D01*
X133016666Y165012738D01*
X133064285Y165060357D01*
X131873809Y165965119D02*
X131778571Y165965119D01*
X131683333Y165917500D01*
X131635714Y165869880D01*
X131588095Y165774642D01*
X131540476Y165584166D01*
X131540476Y165346071D01*
X131588095Y165155595D01*
X131635714Y165060357D01*
X131683333Y165012738D01*
X131778571Y164965119D01*
X131873809Y164965119D01*
X131969047Y165012738D01*
X132016666Y165060357D01*
X132064285Y165155595D01*
X132111904Y165346071D01*
X132111904Y165584166D01*
X132064285Y165774642D01*
X132016666Y165869880D01*
X131969047Y165917500D01*
X131873809Y165965119D01*
%TO.C,MX49*%
X116061904Y164965119D02*
X116061904Y165965119D01*
X115728571Y165250833D01*
X115395238Y165965119D01*
X115395238Y164965119D01*
X115014285Y165965119D02*
X114347619Y164965119D01*
X114347619Y165965119D02*
X115014285Y164965119D01*
X113538095Y165631785D02*
X113538095Y164965119D01*
X113776190Y166012738D02*
X114014285Y165298452D01*
X113395238Y165298452D01*
X112966666Y164965119D02*
X112776190Y164965119D01*
X112680952Y165012738D01*
X112633333Y165060357D01*
X112538095Y165203214D01*
X112490476Y165393690D01*
X112490476Y165774642D01*
X112538095Y165869880D01*
X112585714Y165917500D01*
X112680952Y165965119D01*
X112871428Y165965119D01*
X112966666Y165917500D01*
X113014285Y165869880D01*
X113061904Y165774642D01*
X113061904Y165536547D01*
X113014285Y165441309D01*
X112966666Y165393690D01*
X112871428Y165346071D01*
X112680952Y165346071D01*
X112585714Y165393690D01*
X112538095Y165441309D01*
X112490476Y165536547D01*
%TO.C,MX48*%
X97011904Y164965119D02*
X97011904Y165965119D01*
X96678571Y165250833D01*
X96345238Y165965119D01*
X96345238Y164965119D01*
X95964285Y165965119D02*
X95297619Y164965119D01*
X95297619Y165965119D02*
X95964285Y164965119D01*
X94488095Y165631785D02*
X94488095Y164965119D01*
X94726190Y166012738D02*
X94964285Y165298452D01*
X94345238Y165298452D01*
X93821428Y165536547D02*
X93916666Y165584166D01*
X93964285Y165631785D01*
X94011904Y165727023D01*
X94011904Y165774642D01*
X93964285Y165869880D01*
X93916666Y165917500D01*
X93821428Y165965119D01*
X93630952Y165965119D01*
X93535714Y165917500D01*
X93488095Y165869880D01*
X93440476Y165774642D01*
X93440476Y165727023D01*
X93488095Y165631785D01*
X93535714Y165584166D01*
X93630952Y165536547D01*
X93821428Y165536547D01*
X93916666Y165488928D01*
X93964285Y165441309D01*
X94011904Y165346071D01*
X94011904Y165155595D01*
X93964285Y165060357D01*
X93916666Y165012738D01*
X93821428Y164965119D01*
X93630952Y164965119D01*
X93535714Y165012738D01*
X93488095Y165060357D01*
X93440476Y165155595D01*
X93440476Y165346071D01*
X93488095Y165441309D01*
X93535714Y165488928D01*
X93630952Y165536547D01*
%TO.C,MX47*%
X77961904Y164965119D02*
X77961904Y165965119D01*
X77628571Y165250833D01*
X77295238Y165965119D01*
X77295238Y164965119D01*
X76914285Y165965119D02*
X76247619Y164965119D01*
X76247619Y165965119D02*
X76914285Y164965119D01*
X75438095Y165631785D02*
X75438095Y164965119D01*
X75676190Y166012738D02*
X75914285Y165298452D01*
X75295238Y165298452D01*
X75009523Y165965119D02*
X74342857Y165965119D01*
X74771428Y164965119D01*
%TO.C,MX46*%
X58911904Y164965119D02*
X58911904Y165965119D01*
X58578571Y165250833D01*
X58245238Y165965119D01*
X58245238Y164965119D01*
X57864285Y165965119D02*
X57197619Y164965119D01*
X57197619Y165965119D02*
X57864285Y164965119D01*
X56388095Y165631785D02*
X56388095Y164965119D01*
X56626190Y166012738D02*
X56864285Y165298452D01*
X56245238Y165298452D01*
X55435714Y165965119D02*
X55626190Y165965119D01*
X55721428Y165917500D01*
X55769047Y165869880D01*
X55864285Y165727023D01*
X55911904Y165536547D01*
X55911904Y165155595D01*
X55864285Y165060357D01*
X55816666Y165012738D01*
X55721428Y164965119D01*
X55530952Y164965119D01*
X55435714Y165012738D01*
X55388095Y165060357D01*
X55340476Y165155595D01*
X55340476Y165393690D01*
X55388095Y165488928D01*
X55435714Y165536547D01*
X55530952Y165584166D01*
X55721428Y165584166D01*
X55816666Y165536547D01*
X55864285Y165488928D01*
X55911904Y165393690D01*
%TO.C,MX45*%
X39861904Y164965119D02*
X39861904Y165965119D01*
X39528571Y165250833D01*
X39195238Y165965119D01*
X39195238Y164965119D01*
X38814285Y165965119D02*
X38147619Y164965119D01*
X38147619Y165965119D02*
X38814285Y164965119D01*
X37338095Y165631785D02*
X37338095Y164965119D01*
X37576190Y166012738D02*
X37814285Y165298452D01*
X37195238Y165298452D01*
X36338095Y165965119D02*
X36814285Y165965119D01*
X36861904Y165488928D01*
X36814285Y165536547D01*
X36719047Y165584166D01*
X36480952Y165584166D01*
X36385714Y165536547D01*
X36338095Y165488928D01*
X36290476Y165393690D01*
X36290476Y165155595D01*
X36338095Y165060357D01*
X36385714Y165012738D01*
X36480952Y164965119D01*
X36719047Y164965119D01*
X36814285Y165012738D01*
X36861904Y165060357D01*
%TO.C,MX44*%
X20811904Y164965119D02*
X20811904Y165965119D01*
X20478571Y165250833D01*
X20145238Y165965119D01*
X20145238Y164965119D01*
X19764285Y165965119D02*
X19097619Y164965119D01*
X19097619Y165965119D02*
X19764285Y164965119D01*
X18288095Y165631785D02*
X18288095Y164965119D01*
X18526190Y166012738D02*
X18764285Y165298452D01*
X18145238Y165298452D01*
X17335714Y165631785D02*
X17335714Y164965119D01*
X17573809Y166012738D02*
X17811904Y165298452D01*
X17192857Y165298452D01*
%TO.C,MX43*%
X-3000595Y164965119D02*
X-3000595Y165965119D01*
X-3333928Y165250833D01*
X-3667261Y165965119D01*
X-3667261Y164965119D01*
X-4048214Y165965119D02*
X-4714880Y164965119D01*
X-4714880Y165965119D02*
X-4048214Y164965119D01*
X-5524404Y165631785D02*
X-5524404Y164965119D01*
X-5286309Y166012738D02*
X-5048214Y165298452D01*
X-5667261Y165298452D01*
X-5952976Y165965119D02*
X-6572023Y165965119D01*
X-6238690Y165584166D01*
X-6381547Y165584166D01*
X-6476785Y165536547D01*
X-6524404Y165488928D01*
X-6572023Y165393690D01*
X-6572023Y165155595D01*
X-6524404Y165060357D01*
X-6476785Y165012738D01*
X-6381547Y164965119D01*
X-6095833Y164965119D01*
X-6000595Y165012738D01*
X-5952976Y165060357D01*
%TO.C,MX42*%
X254174404Y184015119D02*
X254174404Y185015119D01*
X253841071Y184300833D01*
X253507738Y185015119D01*
X253507738Y184015119D01*
X253126785Y185015119D02*
X252460119Y184015119D01*
X252460119Y185015119D02*
X253126785Y184015119D01*
X251650595Y184681785D02*
X251650595Y184015119D01*
X251888690Y185062738D02*
X252126785Y184348452D01*
X251507738Y184348452D01*
X251174404Y184919880D02*
X251126785Y184967500D01*
X251031547Y185015119D01*
X250793452Y185015119D01*
X250698214Y184967500D01*
X250650595Y184919880D01*
X250602976Y184824642D01*
X250602976Y184729404D01*
X250650595Y184586547D01*
X251222023Y184015119D01*
X250602976Y184015119D01*
%TO.C,MX41*%
X230361904Y184015119D02*
X230361904Y185015119D01*
X230028571Y184300833D01*
X229695238Y185015119D01*
X229695238Y184015119D01*
X229314285Y185015119D02*
X228647619Y184015119D01*
X228647619Y185015119D02*
X229314285Y184015119D01*
X227838095Y184681785D02*
X227838095Y184015119D01*
X228076190Y185062738D02*
X228314285Y184348452D01*
X227695238Y184348452D01*
X226790476Y184015119D02*
X227361904Y184015119D01*
X227076190Y184015119D02*
X227076190Y185015119D01*
X227171428Y184872261D01*
X227266666Y184777023D01*
X227361904Y184729404D01*
%TO.C,MX40*%
X211311904Y184015119D02*
X211311904Y185015119D01*
X210978571Y184300833D01*
X210645238Y185015119D01*
X210645238Y184015119D01*
X210264285Y185015119D02*
X209597619Y184015119D01*
X209597619Y185015119D02*
X210264285Y184015119D01*
X208788095Y184681785D02*
X208788095Y184015119D01*
X209026190Y185062738D02*
X209264285Y184348452D01*
X208645238Y184348452D01*
X208073809Y185015119D02*
X207978571Y185015119D01*
X207883333Y184967500D01*
X207835714Y184919880D01*
X207788095Y184824642D01*
X207740476Y184634166D01*
X207740476Y184396071D01*
X207788095Y184205595D01*
X207835714Y184110357D01*
X207883333Y184062738D01*
X207978571Y184015119D01*
X208073809Y184015119D01*
X208169047Y184062738D01*
X208216666Y184110357D01*
X208264285Y184205595D01*
X208311904Y184396071D01*
X208311904Y184634166D01*
X208264285Y184824642D01*
X208216666Y184919880D01*
X208169047Y184967500D01*
X208073809Y185015119D01*
%TO.C,MX39*%
X192261904Y184015119D02*
X192261904Y185015119D01*
X191928571Y184300833D01*
X191595238Y185015119D01*
X191595238Y184015119D01*
X191214285Y185015119D02*
X190547619Y184015119D01*
X190547619Y185015119D02*
X191214285Y184015119D01*
X190261904Y185015119D02*
X189642857Y185015119D01*
X189976190Y184634166D01*
X189833333Y184634166D01*
X189738095Y184586547D01*
X189690476Y184538928D01*
X189642857Y184443690D01*
X189642857Y184205595D01*
X189690476Y184110357D01*
X189738095Y184062738D01*
X189833333Y184015119D01*
X190119047Y184015119D01*
X190214285Y184062738D01*
X190261904Y184110357D01*
X189166666Y184015119D02*
X188976190Y184015119D01*
X188880952Y184062738D01*
X188833333Y184110357D01*
X188738095Y184253214D01*
X188690476Y184443690D01*
X188690476Y184824642D01*
X188738095Y184919880D01*
X188785714Y184967500D01*
X188880952Y185015119D01*
X189071428Y185015119D01*
X189166666Y184967500D01*
X189214285Y184919880D01*
X189261904Y184824642D01*
X189261904Y184586547D01*
X189214285Y184491309D01*
X189166666Y184443690D01*
X189071428Y184396071D01*
X188880952Y184396071D01*
X188785714Y184443690D01*
X188738095Y184491309D01*
X188690476Y184586547D01*
%TO.C,MX38*%
X173211904Y184015119D02*
X173211904Y185015119D01*
X172878571Y184300833D01*
X172545238Y185015119D01*
X172545238Y184015119D01*
X172164285Y185015119D02*
X171497619Y184015119D01*
X171497619Y185015119D02*
X172164285Y184015119D01*
X171211904Y185015119D02*
X170592857Y185015119D01*
X170926190Y184634166D01*
X170783333Y184634166D01*
X170688095Y184586547D01*
X170640476Y184538928D01*
X170592857Y184443690D01*
X170592857Y184205595D01*
X170640476Y184110357D01*
X170688095Y184062738D01*
X170783333Y184015119D01*
X171069047Y184015119D01*
X171164285Y184062738D01*
X171211904Y184110357D01*
X170021428Y184586547D02*
X170116666Y184634166D01*
X170164285Y184681785D01*
X170211904Y184777023D01*
X170211904Y184824642D01*
X170164285Y184919880D01*
X170116666Y184967500D01*
X170021428Y185015119D01*
X169830952Y185015119D01*
X169735714Y184967500D01*
X169688095Y184919880D01*
X169640476Y184824642D01*
X169640476Y184777023D01*
X169688095Y184681785D01*
X169735714Y184634166D01*
X169830952Y184586547D01*
X170021428Y184586547D01*
X170116666Y184538928D01*
X170164285Y184491309D01*
X170211904Y184396071D01*
X170211904Y184205595D01*
X170164285Y184110357D01*
X170116666Y184062738D01*
X170021428Y184015119D01*
X169830952Y184015119D01*
X169735714Y184062738D01*
X169688095Y184110357D01*
X169640476Y184205595D01*
X169640476Y184396071D01*
X169688095Y184491309D01*
X169735714Y184538928D01*
X169830952Y184586547D01*
%TO.C,MX37*%
X154161904Y184015119D02*
X154161904Y185015119D01*
X153828571Y184300833D01*
X153495238Y185015119D01*
X153495238Y184015119D01*
X153114285Y185015119D02*
X152447619Y184015119D01*
X152447619Y185015119D02*
X153114285Y184015119D01*
X152161904Y185015119D02*
X151542857Y185015119D01*
X151876190Y184634166D01*
X151733333Y184634166D01*
X151638095Y184586547D01*
X151590476Y184538928D01*
X151542857Y184443690D01*
X151542857Y184205595D01*
X151590476Y184110357D01*
X151638095Y184062738D01*
X151733333Y184015119D01*
X152019047Y184015119D01*
X152114285Y184062738D01*
X152161904Y184110357D01*
X151209523Y185015119D02*
X150542857Y185015119D01*
X150971428Y184015119D01*
%TO.C,MX36*%
X135111904Y184015119D02*
X135111904Y185015119D01*
X134778571Y184300833D01*
X134445238Y185015119D01*
X134445238Y184015119D01*
X134064285Y185015119D02*
X133397619Y184015119D01*
X133397619Y185015119D02*
X134064285Y184015119D01*
X133111904Y185015119D02*
X132492857Y185015119D01*
X132826190Y184634166D01*
X132683333Y184634166D01*
X132588095Y184586547D01*
X132540476Y184538928D01*
X132492857Y184443690D01*
X132492857Y184205595D01*
X132540476Y184110357D01*
X132588095Y184062738D01*
X132683333Y184015119D01*
X132969047Y184015119D01*
X133064285Y184062738D01*
X133111904Y184110357D01*
X131635714Y185015119D02*
X131826190Y185015119D01*
X131921428Y184967500D01*
X131969047Y184919880D01*
X132064285Y184777023D01*
X132111904Y184586547D01*
X132111904Y184205595D01*
X132064285Y184110357D01*
X132016666Y184062738D01*
X131921428Y184015119D01*
X131730952Y184015119D01*
X131635714Y184062738D01*
X131588095Y184110357D01*
X131540476Y184205595D01*
X131540476Y184443690D01*
X131588095Y184538928D01*
X131635714Y184586547D01*
X131730952Y184634166D01*
X131921428Y184634166D01*
X132016666Y184586547D01*
X132064285Y184538928D01*
X132111904Y184443690D01*
%TO.C,MX35*%
X116061904Y184015119D02*
X116061904Y185015119D01*
X115728571Y184300833D01*
X115395238Y185015119D01*
X115395238Y184015119D01*
X115014285Y185015119D02*
X114347619Y184015119D01*
X114347619Y185015119D02*
X115014285Y184015119D01*
X114061904Y185015119D02*
X113442857Y185015119D01*
X113776190Y184634166D01*
X113633333Y184634166D01*
X113538095Y184586547D01*
X113490476Y184538928D01*
X113442857Y184443690D01*
X113442857Y184205595D01*
X113490476Y184110357D01*
X113538095Y184062738D01*
X113633333Y184015119D01*
X113919047Y184015119D01*
X114014285Y184062738D01*
X114061904Y184110357D01*
X112538095Y185015119D02*
X113014285Y185015119D01*
X113061904Y184538928D01*
X113014285Y184586547D01*
X112919047Y184634166D01*
X112680952Y184634166D01*
X112585714Y184586547D01*
X112538095Y184538928D01*
X112490476Y184443690D01*
X112490476Y184205595D01*
X112538095Y184110357D01*
X112585714Y184062738D01*
X112680952Y184015119D01*
X112919047Y184015119D01*
X113014285Y184062738D01*
X113061904Y184110357D01*
%TO.C,MX34*%
X97011904Y184015119D02*
X97011904Y185015119D01*
X96678571Y184300833D01*
X96345238Y185015119D01*
X96345238Y184015119D01*
X95964285Y185015119D02*
X95297619Y184015119D01*
X95297619Y185015119D02*
X95964285Y184015119D01*
X95011904Y185015119D02*
X94392857Y185015119D01*
X94726190Y184634166D01*
X94583333Y184634166D01*
X94488095Y184586547D01*
X94440476Y184538928D01*
X94392857Y184443690D01*
X94392857Y184205595D01*
X94440476Y184110357D01*
X94488095Y184062738D01*
X94583333Y184015119D01*
X94869047Y184015119D01*
X94964285Y184062738D01*
X95011904Y184110357D01*
X93535714Y184681785D02*
X93535714Y184015119D01*
X93773809Y185062738D02*
X94011904Y184348452D01*
X93392857Y184348452D01*
%TO.C,MX33*%
X77961904Y184015119D02*
X77961904Y185015119D01*
X77628571Y184300833D01*
X77295238Y185015119D01*
X77295238Y184015119D01*
X76914285Y185015119D02*
X76247619Y184015119D01*
X76247619Y185015119D02*
X76914285Y184015119D01*
X75961904Y185015119D02*
X75342857Y185015119D01*
X75676190Y184634166D01*
X75533333Y184634166D01*
X75438095Y184586547D01*
X75390476Y184538928D01*
X75342857Y184443690D01*
X75342857Y184205595D01*
X75390476Y184110357D01*
X75438095Y184062738D01*
X75533333Y184015119D01*
X75819047Y184015119D01*
X75914285Y184062738D01*
X75961904Y184110357D01*
X75009523Y185015119D02*
X74390476Y185015119D01*
X74723809Y184634166D01*
X74580952Y184634166D01*
X74485714Y184586547D01*
X74438095Y184538928D01*
X74390476Y184443690D01*
X74390476Y184205595D01*
X74438095Y184110357D01*
X74485714Y184062738D01*
X74580952Y184015119D01*
X74866666Y184015119D01*
X74961904Y184062738D01*
X75009523Y184110357D01*
%TO.C,MX32*%
X58911904Y184015119D02*
X58911904Y185015119D01*
X58578571Y184300833D01*
X58245238Y185015119D01*
X58245238Y184015119D01*
X57864285Y185015119D02*
X57197619Y184015119D01*
X57197619Y185015119D02*
X57864285Y184015119D01*
X56911904Y185015119D02*
X56292857Y185015119D01*
X56626190Y184634166D01*
X56483333Y184634166D01*
X56388095Y184586547D01*
X56340476Y184538928D01*
X56292857Y184443690D01*
X56292857Y184205595D01*
X56340476Y184110357D01*
X56388095Y184062738D01*
X56483333Y184015119D01*
X56769047Y184015119D01*
X56864285Y184062738D01*
X56911904Y184110357D01*
X55911904Y184919880D02*
X55864285Y184967500D01*
X55769047Y185015119D01*
X55530952Y185015119D01*
X55435714Y184967500D01*
X55388095Y184919880D01*
X55340476Y184824642D01*
X55340476Y184729404D01*
X55388095Y184586547D01*
X55959523Y184015119D01*
X55340476Y184015119D01*
%TO.C,MX31*%
X39861904Y184015119D02*
X39861904Y185015119D01*
X39528571Y184300833D01*
X39195238Y185015119D01*
X39195238Y184015119D01*
X38814285Y185015119D02*
X38147619Y184015119D01*
X38147619Y185015119D02*
X38814285Y184015119D01*
X37861904Y185015119D02*
X37242857Y185015119D01*
X37576190Y184634166D01*
X37433333Y184634166D01*
X37338095Y184586547D01*
X37290476Y184538928D01*
X37242857Y184443690D01*
X37242857Y184205595D01*
X37290476Y184110357D01*
X37338095Y184062738D01*
X37433333Y184015119D01*
X37719047Y184015119D01*
X37814285Y184062738D01*
X37861904Y184110357D01*
X36290476Y184015119D02*
X36861904Y184015119D01*
X36576190Y184015119D02*
X36576190Y185015119D01*
X36671428Y184872261D01*
X36766666Y184777023D01*
X36861904Y184729404D01*
%TO.C,MX30*%
X20811904Y184015119D02*
X20811904Y185015119D01*
X20478571Y184300833D01*
X20145238Y185015119D01*
X20145238Y184015119D01*
X19764285Y185015119D02*
X19097619Y184015119D01*
X19097619Y185015119D02*
X19764285Y184015119D01*
X18811904Y185015119D02*
X18192857Y185015119D01*
X18526190Y184634166D01*
X18383333Y184634166D01*
X18288095Y184586547D01*
X18240476Y184538928D01*
X18192857Y184443690D01*
X18192857Y184205595D01*
X18240476Y184110357D01*
X18288095Y184062738D01*
X18383333Y184015119D01*
X18669047Y184015119D01*
X18764285Y184062738D01*
X18811904Y184110357D01*
X17573809Y185015119D02*
X17478571Y185015119D01*
X17383333Y184967500D01*
X17335714Y184919880D01*
X17288095Y184824642D01*
X17240476Y184634166D01*
X17240476Y184396071D01*
X17288095Y184205595D01*
X17335714Y184110357D01*
X17383333Y184062738D01*
X17478571Y184015119D01*
X17573809Y184015119D01*
X17669047Y184062738D01*
X17716666Y184110357D01*
X17764285Y184205595D01*
X17811904Y184396071D01*
X17811904Y184634166D01*
X17764285Y184824642D01*
X17716666Y184919880D01*
X17669047Y184967500D01*
X17573809Y185015119D01*
%TO.C,MX29*%
X-3000595Y184015119D02*
X-3000595Y185015119D01*
X-3333928Y184300833D01*
X-3667261Y185015119D01*
X-3667261Y184015119D01*
X-4048214Y185015119D02*
X-4714880Y184015119D01*
X-4714880Y185015119D02*
X-4048214Y184015119D01*
X-5048214Y184919880D02*
X-5095833Y184967500D01*
X-5191071Y185015119D01*
X-5429166Y185015119D01*
X-5524404Y184967500D01*
X-5572023Y184919880D01*
X-5619642Y184824642D01*
X-5619642Y184729404D01*
X-5572023Y184586547D01*
X-5000595Y184015119D01*
X-5619642Y184015119D01*
X-6095833Y184015119D02*
X-6286309Y184015119D01*
X-6381547Y184062738D01*
X-6429166Y184110357D01*
X-6524404Y184253214D01*
X-6572023Y184443690D01*
X-6572023Y184824642D01*
X-6524404Y184919880D01*
X-6476785Y184967500D01*
X-6381547Y185015119D01*
X-6191071Y185015119D01*
X-6095833Y184967500D01*
X-6048214Y184919880D01*
X-6000595Y184824642D01*
X-6000595Y184586547D01*
X-6048214Y184491309D01*
X-6095833Y184443690D01*
X-6191071Y184396071D01*
X-6381547Y184396071D01*
X-6476785Y184443690D01*
X-6524404Y184491309D01*
X-6572023Y184586547D01*
%TO.C,MX28*%
X254174404Y186555119D02*
X254174404Y187555119D01*
X253841071Y186840833D01*
X253507738Y187555119D01*
X253507738Y186555119D01*
X253126785Y187555119D02*
X252460119Y186555119D01*
X252460119Y187555119D02*
X253126785Y186555119D01*
X252126785Y187459880D02*
X252079166Y187507500D01*
X251983928Y187555119D01*
X251745833Y187555119D01*
X251650595Y187507500D01*
X251602976Y187459880D01*
X251555357Y187364642D01*
X251555357Y187269404D01*
X251602976Y187126547D01*
X252174404Y186555119D01*
X251555357Y186555119D01*
X250983928Y187126547D02*
X251079166Y187174166D01*
X251126785Y187221785D01*
X251174404Y187317023D01*
X251174404Y187364642D01*
X251126785Y187459880D01*
X251079166Y187507500D01*
X250983928Y187555119D01*
X250793452Y187555119D01*
X250698214Y187507500D01*
X250650595Y187459880D01*
X250602976Y187364642D01*
X250602976Y187317023D01*
X250650595Y187221785D01*
X250698214Y187174166D01*
X250793452Y187126547D01*
X250983928Y187126547D01*
X251079166Y187078928D01*
X251126785Y187031309D01*
X251174404Y186936071D01*
X251174404Y186745595D01*
X251126785Y186650357D01*
X251079166Y186602738D01*
X250983928Y186555119D01*
X250793452Y186555119D01*
X250698214Y186602738D01*
X250650595Y186650357D01*
X250602976Y186745595D01*
X250602976Y186936071D01*
X250650595Y187031309D01*
X250698214Y187078928D01*
X250793452Y187126547D01*
%TO.C,MX27*%
X230361904Y203065119D02*
X230361904Y204065119D01*
X230028571Y203350833D01*
X229695238Y204065119D01*
X229695238Y203065119D01*
X229314285Y204065119D02*
X228647619Y203065119D01*
X228647619Y204065119D02*
X229314285Y203065119D01*
X228314285Y203969880D02*
X228266666Y204017500D01*
X228171428Y204065119D01*
X227933333Y204065119D01*
X227838095Y204017500D01*
X227790476Y203969880D01*
X227742857Y203874642D01*
X227742857Y203779404D01*
X227790476Y203636547D01*
X228361904Y203065119D01*
X227742857Y203065119D01*
X227409523Y204065119D02*
X226742857Y204065119D01*
X227171428Y203065119D01*
%TO.C,MX26*%
X211311904Y203065119D02*
X211311904Y204065119D01*
X210978571Y203350833D01*
X210645238Y204065119D01*
X210645238Y203065119D01*
X210264285Y204065119D02*
X209597619Y203065119D01*
X209597619Y204065119D02*
X210264285Y203065119D01*
X209264285Y203969880D02*
X209216666Y204017500D01*
X209121428Y204065119D01*
X208883333Y204065119D01*
X208788095Y204017500D01*
X208740476Y203969880D01*
X208692857Y203874642D01*
X208692857Y203779404D01*
X208740476Y203636547D01*
X209311904Y203065119D01*
X208692857Y203065119D01*
X207835714Y204065119D02*
X208026190Y204065119D01*
X208121428Y204017500D01*
X208169047Y203969880D01*
X208264285Y203827023D01*
X208311904Y203636547D01*
X208311904Y203255595D01*
X208264285Y203160357D01*
X208216666Y203112738D01*
X208121428Y203065119D01*
X207930952Y203065119D01*
X207835714Y203112738D01*
X207788095Y203160357D01*
X207740476Y203255595D01*
X207740476Y203493690D01*
X207788095Y203588928D01*
X207835714Y203636547D01*
X207930952Y203684166D01*
X208121428Y203684166D01*
X208216666Y203636547D01*
X208264285Y203588928D01*
X208311904Y203493690D01*
%TO.C,MX25*%
X192261904Y203065119D02*
X192261904Y204065119D01*
X191928571Y203350833D01*
X191595238Y204065119D01*
X191595238Y203065119D01*
X191214285Y204065119D02*
X190547619Y203065119D01*
X190547619Y204065119D02*
X191214285Y203065119D01*
X190214285Y203969880D02*
X190166666Y204017500D01*
X190071428Y204065119D01*
X189833333Y204065119D01*
X189738095Y204017500D01*
X189690476Y203969880D01*
X189642857Y203874642D01*
X189642857Y203779404D01*
X189690476Y203636547D01*
X190261904Y203065119D01*
X189642857Y203065119D01*
X188738095Y204065119D02*
X189214285Y204065119D01*
X189261904Y203588928D01*
X189214285Y203636547D01*
X189119047Y203684166D01*
X188880952Y203684166D01*
X188785714Y203636547D01*
X188738095Y203588928D01*
X188690476Y203493690D01*
X188690476Y203255595D01*
X188738095Y203160357D01*
X188785714Y203112738D01*
X188880952Y203065119D01*
X189119047Y203065119D01*
X189214285Y203112738D01*
X189261904Y203160357D01*
%TO.C,MX24*%
X173211904Y203065119D02*
X173211904Y204065119D01*
X172878571Y203350833D01*
X172545238Y204065119D01*
X172545238Y203065119D01*
X172164285Y204065119D02*
X171497619Y203065119D01*
X171497619Y204065119D02*
X172164285Y203065119D01*
X171164285Y203969880D02*
X171116666Y204017500D01*
X171021428Y204065119D01*
X170783333Y204065119D01*
X170688095Y204017500D01*
X170640476Y203969880D01*
X170592857Y203874642D01*
X170592857Y203779404D01*
X170640476Y203636547D01*
X171211904Y203065119D01*
X170592857Y203065119D01*
X169735714Y203731785D02*
X169735714Y203065119D01*
X169973809Y204112738D02*
X170211904Y203398452D01*
X169592857Y203398452D01*
%TO.C,MX23*%
X154161904Y203065119D02*
X154161904Y204065119D01*
X153828571Y203350833D01*
X153495238Y204065119D01*
X153495238Y203065119D01*
X153114285Y204065119D02*
X152447619Y203065119D01*
X152447619Y204065119D02*
X153114285Y203065119D01*
X152114285Y203969880D02*
X152066666Y204017500D01*
X151971428Y204065119D01*
X151733333Y204065119D01*
X151638095Y204017500D01*
X151590476Y203969880D01*
X151542857Y203874642D01*
X151542857Y203779404D01*
X151590476Y203636547D01*
X152161904Y203065119D01*
X151542857Y203065119D01*
X151209523Y204065119D02*
X150590476Y204065119D01*
X150923809Y203684166D01*
X150780952Y203684166D01*
X150685714Y203636547D01*
X150638095Y203588928D01*
X150590476Y203493690D01*
X150590476Y203255595D01*
X150638095Y203160357D01*
X150685714Y203112738D01*
X150780952Y203065119D01*
X151066666Y203065119D01*
X151161904Y203112738D01*
X151209523Y203160357D01*
%TO.C,MX22*%
X135111904Y203065119D02*
X135111904Y204065119D01*
X134778571Y203350833D01*
X134445238Y204065119D01*
X134445238Y203065119D01*
X134064285Y204065119D02*
X133397619Y203065119D01*
X133397619Y204065119D02*
X134064285Y203065119D01*
X133064285Y203969880D02*
X133016666Y204017500D01*
X132921428Y204065119D01*
X132683333Y204065119D01*
X132588095Y204017500D01*
X132540476Y203969880D01*
X132492857Y203874642D01*
X132492857Y203779404D01*
X132540476Y203636547D01*
X133111904Y203065119D01*
X132492857Y203065119D01*
X132111904Y203969880D02*
X132064285Y204017500D01*
X131969047Y204065119D01*
X131730952Y204065119D01*
X131635714Y204017500D01*
X131588095Y203969880D01*
X131540476Y203874642D01*
X131540476Y203779404D01*
X131588095Y203636547D01*
X132159523Y203065119D01*
X131540476Y203065119D01*
%TO.C,MX21*%
X116061904Y203065119D02*
X116061904Y204065119D01*
X115728571Y203350833D01*
X115395238Y204065119D01*
X115395238Y203065119D01*
X115014285Y204065119D02*
X114347619Y203065119D01*
X114347619Y204065119D02*
X115014285Y203065119D01*
X114014285Y203969880D02*
X113966666Y204017500D01*
X113871428Y204065119D01*
X113633333Y204065119D01*
X113538095Y204017500D01*
X113490476Y203969880D01*
X113442857Y203874642D01*
X113442857Y203779404D01*
X113490476Y203636547D01*
X114061904Y203065119D01*
X113442857Y203065119D01*
X112490476Y203065119D02*
X113061904Y203065119D01*
X112776190Y203065119D02*
X112776190Y204065119D01*
X112871428Y203922261D01*
X112966666Y203827023D01*
X113061904Y203779404D01*
%TO.C,MX20*%
X97011904Y203065119D02*
X97011904Y204065119D01*
X96678571Y203350833D01*
X96345238Y204065119D01*
X96345238Y203065119D01*
X95964285Y204065119D02*
X95297619Y203065119D01*
X95297619Y204065119D02*
X95964285Y203065119D01*
X94964285Y203969880D02*
X94916666Y204017500D01*
X94821428Y204065119D01*
X94583333Y204065119D01*
X94488095Y204017500D01*
X94440476Y203969880D01*
X94392857Y203874642D01*
X94392857Y203779404D01*
X94440476Y203636547D01*
X95011904Y203065119D01*
X94392857Y203065119D01*
X93773809Y204065119D02*
X93678571Y204065119D01*
X93583333Y204017500D01*
X93535714Y203969880D01*
X93488095Y203874642D01*
X93440476Y203684166D01*
X93440476Y203446071D01*
X93488095Y203255595D01*
X93535714Y203160357D01*
X93583333Y203112738D01*
X93678571Y203065119D01*
X93773809Y203065119D01*
X93869047Y203112738D01*
X93916666Y203160357D01*
X93964285Y203255595D01*
X94011904Y203446071D01*
X94011904Y203684166D01*
X93964285Y203874642D01*
X93916666Y203969880D01*
X93869047Y204017500D01*
X93773809Y204065119D01*
%TO.C,MX19*%
X77961904Y203065119D02*
X77961904Y204065119D01*
X77628571Y203350833D01*
X77295238Y204065119D01*
X77295238Y203065119D01*
X76914285Y204065119D02*
X76247619Y203065119D01*
X76247619Y204065119D02*
X76914285Y203065119D01*
X75342857Y203065119D02*
X75914285Y203065119D01*
X75628571Y203065119D02*
X75628571Y204065119D01*
X75723809Y203922261D01*
X75819047Y203827023D01*
X75914285Y203779404D01*
X74866666Y203065119D02*
X74676190Y203065119D01*
X74580952Y203112738D01*
X74533333Y203160357D01*
X74438095Y203303214D01*
X74390476Y203493690D01*
X74390476Y203874642D01*
X74438095Y203969880D01*
X74485714Y204017500D01*
X74580952Y204065119D01*
X74771428Y204065119D01*
X74866666Y204017500D01*
X74914285Y203969880D01*
X74961904Y203874642D01*
X74961904Y203636547D01*
X74914285Y203541309D01*
X74866666Y203493690D01*
X74771428Y203446071D01*
X74580952Y203446071D01*
X74485714Y203493690D01*
X74438095Y203541309D01*
X74390476Y203636547D01*
%TO.C,MX18*%
X58911904Y203065119D02*
X58911904Y204065119D01*
X58578571Y203350833D01*
X58245238Y204065119D01*
X58245238Y203065119D01*
X57864285Y204065119D02*
X57197619Y203065119D01*
X57197619Y204065119D02*
X57864285Y203065119D01*
X56292857Y203065119D02*
X56864285Y203065119D01*
X56578571Y203065119D02*
X56578571Y204065119D01*
X56673809Y203922261D01*
X56769047Y203827023D01*
X56864285Y203779404D01*
X55721428Y203636547D02*
X55816666Y203684166D01*
X55864285Y203731785D01*
X55911904Y203827023D01*
X55911904Y203874642D01*
X55864285Y203969880D01*
X55816666Y204017500D01*
X55721428Y204065119D01*
X55530952Y204065119D01*
X55435714Y204017500D01*
X55388095Y203969880D01*
X55340476Y203874642D01*
X55340476Y203827023D01*
X55388095Y203731785D01*
X55435714Y203684166D01*
X55530952Y203636547D01*
X55721428Y203636547D01*
X55816666Y203588928D01*
X55864285Y203541309D01*
X55911904Y203446071D01*
X55911904Y203255595D01*
X55864285Y203160357D01*
X55816666Y203112738D01*
X55721428Y203065119D01*
X55530952Y203065119D01*
X55435714Y203112738D01*
X55388095Y203160357D01*
X55340476Y203255595D01*
X55340476Y203446071D01*
X55388095Y203541309D01*
X55435714Y203588928D01*
X55530952Y203636547D01*
%TO.C,MX17*%
X39861904Y203065119D02*
X39861904Y204065119D01*
X39528571Y203350833D01*
X39195238Y204065119D01*
X39195238Y203065119D01*
X38814285Y204065119D02*
X38147619Y203065119D01*
X38147619Y204065119D02*
X38814285Y203065119D01*
X37242857Y203065119D02*
X37814285Y203065119D01*
X37528571Y203065119D02*
X37528571Y204065119D01*
X37623809Y203922261D01*
X37719047Y203827023D01*
X37814285Y203779404D01*
X36909523Y204065119D02*
X36242857Y204065119D01*
X36671428Y203065119D01*
%TO.C,MX16*%
X20811904Y203065119D02*
X20811904Y204065119D01*
X20478571Y203350833D01*
X20145238Y204065119D01*
X20145238Y203065119D01*
X19764285Y204065119D02*
X19097619Y203065119D01*
X19097619Y204065119D02*
X19764285Y203065119D01*
X18192857Y203065119D02*
X18764285Y203065119D01*
X18478571Y203065119D02*
X18478571Y204065119D01*
X18573809Y203922261D01*
X18669047Y203827023D01*
X18764285Y203779404D01*
X17335714Y204065119D02*
X17526190Y204065119D01*
X17621428Y204017500D01*
X17669047Y203969880D01*
X17764285Y203827023D01*
X17811904Y203636547D01*
X17811904Y203255595D01*
X17764285Y203160357D01*
X17716666Y203112738D01*
X17621428Y203065119D01*
X17430952Y203065119D01*
X17335714Y203112738D01*
X17288095Y203160357D01*
X17240476Y203255595D01*
X17240476Y203493690D01*
X17288095Y203588928D01*
X17335714Y203636547D01*
X17430952Y203684166D01*
X17621428Y203684166D01*
X17716666Y203636547D01*
X17764285Y203588928D01*
X17811904Y203493690D01*
%TO.C,MX14*%
X254174404Y222115119D02*
X254174404Y223115119D01*
X253841071Y222400833D01*
X253507738Y223115119D01*
X253507738Y222115119D01*
X253126785Y223115119D02*
X252460119Y222115119D01*
X252460119Y223115119D02*
X253126785Y222115119D01*
X251555357Y222115119D02*
X252126785Y222115119D01*
X251841071Y222115119D02*
X251841071Y223115119D01*
X251936309Y222972261D01*
X252031547Y222877023D01*
X252126785Y222829404D01*
X250698214Y222781785D02*
X250698214Y222115119D01*
X250936309Y223162738D02*
X251174404Y222448452D01*
X250555357Y222448452D01*
%TO.C,MX13*%
X230361904Y222115119D02*
X230361904Y223115119D01*
X230028571Y222400833D01*
X229695238Y223115119D01*
X229695238Y222115119D01*
X229314285Y223115119D02*
X228647619Y222115119D01*
X228647619Y223115119D02*
X229314285Y222115119D01*
X227742857Y222115119D02*
X228314285Y222115119D01*
X228028571Y222115119D02*
X228028571Y223115119D01*
X228123809Y222972261D01*
X228219047Y222877023D01*
X228314285Y222829404D01*
X227409523Y223115119D02*
X226790476Y223115119D01*
X227123809Y222734166D01*
X226980952Y222734166D01*
X226885714Y222686547D01*
X226838095Y222638928D01*
X226790476Y222543690D01*
X226790476Y222305595D01*
X226838095Y222210357D01*
X226885714Y222162738D01*
X226980952Y222115119D01*
X227266666Y222115119D01*
X227361904Y222162738D01*
X227409523Y222210357D01*
%TO.C,MX12*%
X211311904Y222115119D02*
X211311904Y223115119D01*
X210978571Y222400833D01*
X210645238Y223115119D01*
X210645238Y222115119D01*
X210264285Y223115119D02*
X209597619Y222115119D01*
X209597619Y223115119D02*
X210264285Y222115119D01*
X208692857Y222115119D02*
X209264285Y222115119D01*
X208978571Y222115119D02*
X208978571Y223115119D01*
X209073809Y222972261D01*
X209169047Y222877023D01*
X209264285Y222829404D01*
X208311904Y223019880D02*
X208264285Y223067500D01*
X208169047Y223115119D01*
X207930952Y223115119D01*
X207835714Y223067500D01*
X207788095Y223019880D01*
X207740476Y222924642D01*
X207740476Y222829404D01*
X207788095Y222686547D01*
X208359523Y222115119D01*
X207740476Y222115119D01*
%TO.C,MX11*%
X192261904Y222115119D02*
X192261904Y223115119D01*
X191928571Y222400833D01*
X191595238Y223115119D01*
X191595238Y222115119D01*
X191214285Y223115119D02*
X190547619Y222115119D01*
X190547619Y223115119D02*
X191214285Y222115119D01*
X189642857Y222115119D02*
X190214285Y222115119D01*
X189928571Y222115119D02*
X189928571Y223115119D01*
X190023809Y222972261D01*
X190119047Y222877023D01*
X190214285Y222829404D01*
X188690476Y222115119D02*
X189261904Y222115119D01*
X188976190Y222115119D02*
X188976190Y223115119D01*
X189071428Y222972261D01*
X189166666Y222877023D01*
X189261904Y222829404D01*
%TO.C,MX10*%
X173211904Y222115119D02*
X173211904Y223115119D01*
X172878571Y222400833D01*
X172545238Y223115119D01*
X172545238Y222115119D01*
X172164285Y223115119D02*
X171497619Y222115119D01*
X171497619Y223115119D02*
X172164285Y222115119D01*
X170592857Y222115119D02*
X171164285Y222115119D01*
X170878571Y222115119D02*
X170878571Y223115119D01*
X170973809Y222972261D01*
X171069047Y222877023D01*
X171164285Y222829404D01*
X169973809Y223115119D02*
X169878571Y223115119D01*
X169783333Y223067500D01*
X169735714Y223019880D01*
X169688095Y222924642D01*
X169640476Y222734166D01*
X169640476Y222496071D01*
X169688095Y222305595D01*
X169735714Y222210357D01*
X169783333Y222162738D01*
X169878571Y222115119D01*
X169973809Y222115119D01*
X170069047Y222162738D01*
X170116666Y222210357D01*
X170164285Y222305595D01*
X170211904Y222496071D01*
X170211904Y222734166D01*
X170164285Y222924642D01*
X170116666Y223019880D01*
X170069047Y223067500D01*
X169973809Y223115119D01*
%TO.C,MX9*%
X153685714Y222115119D02*
X153685714Y223115119D01*
X153352380Y222400833D01*
X153019047Y223115119D01*
X153019047Y222115119D01*
X152638095Y223115119D02*
X151971428Y222115119D01*
X151971428Y223115119D02*
X152638095Y222115119D01*
X151542857Y222115119D02*
X151352380Y222115119D01*
X151257142Y222162738D01*
X151209523Y222210357D01*
X151114285Y222353214D01*
X151066666Y222543690D01*
X151066666Y222924642D01*
X151114285Y223019880D01*
X151161904Y223067500D01*
X151257142Y223115119D01*
X151447619Y223115119D01*
X151542857Y223067500D01*
X151590476Y223019880D01*
X151638095Y222924642D01*
X151638095Y222686547D01*
X151590476Y222591309D01*
X151542857Y222543690D01*
X151447619Y222496071D01*
X151257142Y222496071D01*
X151161904Y222543690D01*
X151114285Y222591309D01*
X151066666Y222686547D01*
%TO.C,MX8*%
X134635714Y222115119D02*
X134635714Y223115119D01*
X134302380Y222400833D01*
X133969047Y223115119D01*
X133969047Y222115119D01*
X133588095Y223115119D02*
X132921428Y222115119D01*
X132921428Y223115119D02*
X133588095Y222115119D01*
X132397619Y222686547D02*
X132492857Y222734166D01*
X132540476Y222781785D01*
X132588095Y222877023D01*
X132588095Y222924642D01*
X132540476Y223019880D01*
X132492857Y223067500D01*
X132397619Y223115119D01*
X132207142Y223115119D01*
X132111904Y223067500D01*
X132064285Y223019880D01*
X132016666Y222924642D01*
X132016666Y222877023D01*
X132064285Y222781785D01*
X132111904Y222734166D01*
X132207142Y222686547D01*
X132397619Y222686547D01*
X132492857Y222638928D01*
X132540476Y222591309D01*
X132588095Y222496071D01*
X132588095Y222305595D01*
X132540476Y222210357D01*
X132492857Y222162738D01*
X132397619Y222115119D01*
X132207142Y222115119D01*
X132111904Y222162738D01*
X132064285Y222210357D01*
X132016666Y222305595D01*
X132016666Y222496071D01*
X132064285Y222591309D01*
X132111904Y222638928D01*
X132207142Y222686547D01*
%TO.C,MX7*%
X115585714Y222115119D02*
X115585714Y223115119D01*
X115252380Y222400833D01*
X114919047Y223115119D01*
X114919047Y222115119D01*
X114538095Y223115119D02*
X113871428Y222115119D01*
X113871428Y223115119D02*
X114538095Y222115119D01*
X113585714Y223115119D02*
X112919047Y223115119D01*
X113347619Y222115119D01*
%TO.C,MX6*%
X96535714Y222115119D02*
X96535714Y223115119D01*
X96202380Y222400833D01*
X95869047Y223115119D01*
X95869047Y222115119D01*
X95488095Y223115119D02*
X94821428Y222115119D01*
X94821428Y223115119D02*
X95488095Y222115119D01*
X94011904Y223115119D02*
X94202380Y223115119D01*
X94297619Y223067500D01*
X94345238Y223019880D01*
X94440476Y222877023D01*
X94488095Y222686547D01*
X94488095Y222305595D01*
X94440476Y222210357D01*
X94392857Y222162738D01*
X94297619Y222115119D01*
X94107142Y222115119D01*
X94011904Y222162738D01*
X93964285Y222210357D01*
X93916666Y222305595D01*
X93916666Y222543690D01*
X93964285Y222638928D01*
X94011904Y222686547D01*
X94107142Y222734166D01*
X94297619Y222734166D01*
X94392857Y222686547D01*
X94440476Y222638928D01*
X94488095Y222543690D01*
%TO.C,MX5*%
X77485714Y222115119D02*
X77485714Y223115119D01*
X77152380Y222400833D01*
X76819047Y223115119D01*
X76819047Y222115119D01*
X76438095Y223115119D02*
X75771428Y222115119D01*
X75771428Y223115119D02*
X76438095Y222115119D01*
X74914285Y223115119D02*
X75390476Y223115119D01*
X75438095Y222638928D01*
X75390476Y222686547D01*
X75295238Y222734166D01*
X75057142Y222734166D01*
X74961904Y222686547D01*
X74914285Y222638928D01*
X74866666Y222543690D01*
X74866666Y222305595D01*
X74914285Y222210357D01*
X74961904Y222162738D01*
X75057142Y222115119D01*
X75295238Y222115119D01*
X75390476Y222162738D01*
X75438095Y222210357D01*
%TO.C,MX4*%
X58435714Y222115119D02*
X58435714Y223115119D01*
X58102380Y222400833D01*
X57769047Y223115119D01*
X57769047Y222115119D01*
X57388095Y223115119D02*
X56721428Y222115119D01*
X56721428Y223115119D02*
X57388095Y222115119D01*
X55911904Y222781785D02*
X55911904Y222115119D01*
X56150000Y223162738D02*
X56388095Y222448452D01*
X55769047Y222448452D01*
%TO.C,MX3*%
X39385714Y222115119D02*
X39385714Y223115119D01*
X39052380Y222400833D01*
X38719047Y223115119D01*
X38719047Y222115119D01*
X38338095Y223115119D02*
X37671428Y222115119D01*
X37671428Y223115119D02*
X38338095Y222115119D01*
X37385714Y223115119D02*
X36766666Y223115119D01*
X37100000Y222734166D01*
X36957142Y222734166D01*
X36861904Y222686547D01*
X36814285Y222638928D01*
X36766666Y222543690D01*
X36766666Y222305595D01*
X36814285Y222210357D01*
X36861904Y222162738D01*
X36957142Y222115119D01*
X37242857Y222115119D01*
X37338095Y222162738D01*
X37385714Y222210357D01*
%TO.C,MX2*%
X20335714Y222115119D02*
X20335714Y223115119D01*
X20002380Y222400833D01*
X19669047Y223115119D01*
X19669047Y222115119D01*
X19288095Y223115119D02*
X18621428Y222115119D01*
X18621428Y223115119D02*
X19288095Y222115119D01*
X18288095Y223019880D02*
X18240476Y223067500D01*
X18145238Y223115119D01*
X17907142Y223115119D01*
X17811904Y223067500D01*
X17764285Y223019880D01*
X17716666Y222924642D01*
X17716666Y222829404D01*
X17764285Y222686547D01*
X18335714Y222115119D01*
X17716666Y222115119D01*
%TO.C,MX1*%
X-3476785Y205605119D02*
X-3476785Y206605119D01*
X-3810119Y205890833D01*
X-4143452Y206605119D01*
X-4143452Y205605119D01*
X-4524404Y206605119D02*
X-5191071Y205605119D01*
X-5191071Y206605119D02*
X-4524404Y205605119D01*
X-6095833Y205605119D02*
X-5524404Y205605119D01*
X-5810119Y205605119D02*
X-5810119Y206605119D01*
X-5714880Y206462261D01*
X-5619642Y206367023D01*
X-5524404Y206319404D01*
%TO.C,J1*%
X-136666Y217690119D02*
X-136666Y216975833D01*
X-89047Y216832976D01*
X6190Y216737738D01*
X149047Y216690119D01*
X244285Y216690119D01*
X-1136666Y216690119D02*
X-565238Y216690119D01*
X-850952Y216690119D02*
X-850952Y217690119D01*
X-755714Y217547261D01*
X-660476Y217452023D01*
X-565238Y217404404D01*
%TO.C,F1*%
X8072428Y222753293D02*
X8405761Y222753293D01*
X8405761Y222229484D02*
X8405761Y223229484D01*
X7929571Y223229484D01*
X7024809Y222229484D02*
X7596237Y222229484D01*
X7310523Y222229484D02*
X7310523Y223229484D01*
X7405761Y223086626D01*
X7500999Y222991388D01*
X7596237Y222943769D01*
%TO.C,D68*%
X253627845Y134897619D02*
X253627845Y135897619D01*
X253389750Y135897619D01*
X253246893Y135850000D01*
X253151655Y135754761D01*
X253104036Y135659523D01*
X253056417Y135469047D01*
X253056417Y135326190D01*
X253104036Y135135714D01*
X253151655Y135040476D01*
X253246893Y134945238D01*
X253389750Y134897619D01*
X253627845Y134897619D01*
X252199274Y135897619D02*
X252389750Y135897619D01*
X252484988Y135850000D01*
X252532607Y135802380D01*
X252627845Y135659523D01*
X252675464Y135469047D01*
X252675464Y135088095D01*
X252627845Y134992857D01*
X252580226Y134945238D01*
X252484988Y134897619D01*
X252294512Y134897619D01*
X252199274Y134945238D01*
X252151655Y134992857D01*
X252104036Y135088095D01*
X252104036Y135326190D01*
X252151655Y135421428D01*
X252199274Y135469047D01*
X252294512Y135516666D01*
X252484988Y135516666D01*
X252580226Y135469047D01*
X252627845Y135421428D01*
X252675464Y135326190D01*
X251532607Y135469047D02*
X251627845Y135516666D01*
X251675464Y135564285D01*
X251723083Y135659523D01*
X251723083Y135707142D01*
X251675464Y135802380D01*
X251627845Y135850000D01*
X251532607Y135897619D01*
X251342131Y135897619D01*
X251246893Y135850000D01*
X251199274Y135802380D01*
X251151655Y135707142D01*
X251151655Y135659523D01*
X251199274Y135564285D01*
X251246893Y135516666D01*
X251342131Y135469047D01*
X251532607Y135469047D01*
X251627845Y135421428D01*
X251675464Y135373809D01*
X251723083Y135278571D01*
X251723083Y135088095D01*
X251675464Y134992857D01*
X251627845Y134945238D01*
X251532607Y134897619D01*
X251342131Y134897619D01*
X251246893Y134945238D01*
X251199274Y134992857D01*
X251151655Y135088095D01*
X251151655Y135278571D01*
X251199274Y135373809D01*
X251246893Y135421428D01*
X251342131Y135469047D01*
%TO.C,D67*%
X229815245Y134897619D02*
X229815245Y135897619D01*
X229577150Y135897619D01*
X229434293Y135850000D01*
X229339055Y135754761D01*
X229291436Y135659523D01*
X229243817Y135469047D01*
X229243817Y135326190D01*
X229291436Y135135714D01*
X229339055Y135040476D01*
X229434293Y134945238D01*
X229577150Y134897619D01*
X229815245Y134897619D01*
X228386674Y135897619D02*
X228577150Y135897619D01*
X228672388Y135850000D01*
X228720007Y135802380D01*
X228815245Y135659523D01*
X228862864Y135469047D01*
X228862864Y135088095D01*
X228815245Y134992857D01*
X228767626Y134945238D01*
X228672388Y134897619D01*
X228481912Y134897619D01*
X228386674Y134945238D01*
X228339055Y134992857D01*
X228291436Y135088095D01*
X228291436Y135326190D01*
X228339055Y135421428D01*
X228386674Y135469047D01*
X228481912Y135516666D01*
X228672388Y135516666D01*
X228767626Y135469047D01*
X228815245Y135421428D01*
X228862864Y135326190D01*
X227958102Y135897619D02*
X227291436Y135897619D01*
X227720007Y134897619D01*
%TO.C,D66*%
X210765165Y134898179D02*
X210765165Y135898179D01*
X210527070Y135898179D01*
X210384213Y135850560D01*
X210288975Y135755321D01*
X210241356Y135660083D01*
X210193737Y135469607D01*
X210193737Y135326750D01*
X210241356Y135136274D01*
X210288975Y135041036D01*
X210384213Y134945798D01*
X210527070Y134898179D01*
X210765165Y134898179D01*
X209336594Y135898179D02*
X209527070Y135898179D01*
X209622308Y135850560D01*
X209669927Y135802940D01*
X209765165Y135660083D01*
X209812784Y135469607D01*
X209812784Y135088655D01*
X209765165Y134993417D01*
X209717546Y134945798D01*
X209622308Y134898179D01*
X209431832Y134898179D01*
X209336594Y134945798D01*
X209288975Y134993417D01*
X209241356Y135088655D01*
X209241356Y135326750D01*
X209288975Y135421988D01*
X209336594Y135469607D01*
X209431832Y135517226D01*
X209622308Y135517226D01*
X209717546Y135469607D01*
X209765165Y135421988D01*
X209812784Y135326750D01*
X208384213Y135898179D02*
X208574689Y135898179D01*
X208669927Y135850560D01*
X208717546Y135802940D01*
X208812784Y135660083D01*
X208860403Y135469607D01*
X208860403Y135088655D01*
X208812784Y134993417D01*
X208765165Y134945798D01*
X208669927Y134898179D01*
X208479451Y134898179D01*
X208384213Y134945798D01*
X208336594Y134993417D01*
X208288975Y135088655D01*
X208288975Y135326750D01*
X208336594Y135421988D01*
X208384213Y135469607D01*
X208479451Y135517226D01*
X208669927Y135517226D01*
X208765165Y135469607D01*
X208812784Y135421988D01*
X208860403Y135326750D01*
%TO.C,D65*%
X191715085Y134898179D02*
X191715085Y135898179D01*
X191476990Y135898179D01*
X191334133Y135850560D01*
X191238895Y135755321D01*
X191191276Y135660083D01*
X191143657Y135469607D01*
X191143657Y135326750D01*
X191191276Y135136274D01*
X191238895Y135041036D01*
X191334133Y134945798D01*
X191476990Y134898179D01*
X191715085Y134898179D01*
X190286514Y135898179D02*
X190476990Y135898179D01*
X190572228Y135850560D01*
X190619847Y135802940D01*
X190715085Y135660083D01*
X190762704Y135469607D01*
X190762704Y135088655D01*
X190715085Y134993417D01*
X190667466Y134945798D01*
X190572228Y134898179D01*
X190381752Y134898179D01*
X190286514Y134945798D01*
X190238895Y134993417D01*
X190191276Y135088655D01*
X190191276Y135326750D01*
X190238895Y135421988D01*
X190286514Y135469607D01*
X190381752Y135517226D01*
X190572228Y135517226D01*
X190667466Y135469607D01*
X190715085Y135421988D01*
X190762704Y135326750D01*
X189286514Y135898179D02*
X189762704Y135898179D01*
X189810323Y135421988D01*
X189762704Y135469607D01*
X189667466Y135517226D01*
X189429371Y135517226D01*
X189334133Y135469607D01*
X189286514Y135421988D01*
X189238895Y135326750D01*
X189238895Y135088655D01*
X189286514Y134993417D01*
X189334133Y134945798D01*
X189429371Y134898179D01*
X189667466Y134898179D01*
X189762704Y134945798D01*
X189810323Y134993417D01*
%TO.C,D64*%
X172665005Y134898179D02*
X172665005Y135898179D01*
X172426910Y135898179D01*
X172284053Y135850560D01*
X172188815Y135755321D01*
X172141196Y135660083D01*
X172093577Y135469607D01*
X172093577Y135326750D01*
X172141196Y135136274D01*
X172188815Y135041036D01*
X172284053Y134945798D01*
X172426910Y134898179D01*
X172665005Y134898179D01*
X171236434Y135898179D02*
X171426910Y135898179D01*
X171522148Y135850560D01*
X171569767Y135802940D01*
X171665005Y135660083D01*
X171712624Y135469607D01*
X171712624Y135088655D01*
X171665005Y134993417D01*
X171617386Y134945798D01*
X171522148Y134898179D01*
X171331672Y134898179D01*
X171236434Y134945798D01*
X171188815Y134993417D01*
X171141196Y135088655D01*
X171141196Y135326750D01*
X171188815Y135421988D01*
X171236434Y135469607D01*
X171331672Y135517226D01*
X171522148Y135517226D01*
X171617386Y135469607D01*
X171665005Y135421988D01*
X171712624Y135326750D01*
X170284053Y135564845D02*
X170284053Y134898179D01*
X170522148Y135945798D02*
X170760243Y135231512D01*
X170141196Y135231512D01*
%TO.C,D63*%
X144089885Y134898179D02*
X144089885Y135898179D01*
X143851790Y135898179D01*
X143708933Y135850560D01*
X143613695Y135755321D01*
X143566076Y135660083D01*
X143518457Y135469607D01*
X143518457Y135326750D01*
X143566076Y135136274D01*
X143613695Y135041036D01*
X143708933Y134945798D01*
X143851790Y134898179D01*
X144089885Y134898179D01*
X142661314Y135898179D02*
X142851790Y135898179D01*
X142947028Y135850560D01*
X142994647Y135802940D01*
X143089885Y135660083D01*
X143137504Y135469607D01*
X143137504Y135088655D01*
X143089885Y134993417D01*
X143042266Y134945798D01*
X142947028Y134898179D01*
X142756552Y134898179D01*
X142661314Y134945798D01*
X142613695Y134993417D01*
X142566076Y135088655D01*
X142566076Y135326750D01*
X142613695Y135421988D01*
X142661314Y135469607D01*
X142756552Y135517226D01*
X142947028Y135517226D01*
X143042266Y135469607D01*
X143089885Y135421988D01*
X143137504Y135326750D01*
X142232742Y135898179D02*
X141613695Y135898179D01*
X141947028Y135517226D01*
X141804171Y135517226D01*
X141708933Y135469607D01*
X141661314Y135421988D01*
X141613695Y135326750D01*
X141613695Y135088655D01*
X141661314Y134993417D01*
X141708933Y134945798D01*
X141804171Y134898179D01*
X142089885Y134898179D01*
X142185123Y134945798D01*
X142232742Y134993417D01*
%TO.C,D62*%
X105989725Y134898179D02*
X105989725Y135898179D01*
X105751630Y135898179D01*
X105608773Y135850560D01*
X105513535Y135755321D01*
X105465916Y135660083D01*
X105418297Y135469607D01*
X105418297Y135326750D01*
X105465916Y135136274D01*
X105513535Y135041036D01*
X105608773Y134945798D01*
X105751630Y134898179D01*
X105989725Y134898179D01*
X104561154Y135898179D02*
X104751630Y135898179D01*
X104846868Y135850560D01*
X104894487Y135802940D01*
X104989725Y135660083D01*
X105037344Y135469607D01*
X105037344Y135088655D01*
X104989725Y134993417D01*
X104942106Y134945798D01*
X104846868Y134898179D01*
X104656392Y134898179D01*
X104561154Y134945798D01*
X104513535Y134993417D01*
X104465916Y135088655D01*
X104465916Y135326750D01*
X104513535Y135421988D01*
X104561154Y135469607D01*
X104656392Y135517226D01*
X104846868Y135517226D01*
X104942106Y135469607D01*
X104989725Y135421988D01*
X105037344Y135326750D01*
X104084963Y135802940D02*
X104037344Y135850560D01*
X103942106Y135898179D01*
X103704011Y135898179D01*
X103608773Y135850560D01*
X103561154Y135802940D01*
X103513535Y135707702D01*
X103513535Y135612464D01*
X103561154Y135469607D01*
X104132582Y134898179D01*
X103513535Y134898179D01*
%TO.C,D61*%
X77414605Y134898179D02*
X77414605Y135898179D01*
X77176510Y135898179D01*
X77033653Y135850560D01*
X76938415Y135755321D01*
X76890796Y135660083D01*
X76843177Y135469607D01*
X76843177Y135326750D01*
X76890796Y135136274D01*
X76938415Y135041036D01*
X77033653Y134945798D01*
X77176510Y134898179D01*
X77414605Y134898179D01*
X75986034Y135898179D02*
X76176510Y135898179D01*
X76271748Y135850560D01*
X76319367Y135802940D01*
X76414605Y135660083D01*
X76462224Y135469607D01*
X76462224Y135088655D01*
X76414605Y134993417D01*
X76366986Y134945798D01*
X76271748Y134898179D01*
X76081272Y134898179D01*
X75986034Y134945798D01*
X75938415Y134993417D01*
X75890796Y135088655D01*
X75890796Y135326750D01*
X75938415Y135421988D01*
X75986034Y135469607D01*
X76081272Y135517226D01*
X76271748Y135517226D01*
X76366986Y135469607D01*
X76414605Y135421988D01*
X76462224Y135326750D01*
X74938415Y134898179D02*
X75509843Y134898179D01*
X75224129Y134898179D02*
X75224129Y135898179D01*
X75319367Y135755321D01*
X75414605Y135660083D01*
X75509843Y135612464D01*
%TO.C,D60*%
X58364525Y134898179D02*
X58364525Y135898179D01*
X58126430Y135898179D01*
X57983573Y135850560D01*
X57888335Y135755321D01*
X57840716Y135660083D01*
X57793097Y135469607D01*
X57793097Y135326750D01*
X57840716Y135136274D01*
X57888335Y135041036D01*
X57983573Y134945798D01*
X58126430Y134898179D01*
X58364525Y134898179D01*
X56935954Y135898179D02*
X57126430Y135898179D01*
X57221668Y135850560D01*
X57269287Y135802940D01*
X57364525Y135660083D01*
X57412144Y135469607D01*
X57412144Y135088655D01*
X57364525Y134993417D01*
X57316906Y134945798D01*
X57221668Y134898179D01*
X57031192Y134898179D01*
X56935954Y134945798D01*
X56888335Y134993417D01*
X56840716Y135088655D01*
X56840716Y135326750D01*
X56888335Y135421988D01*
X56935954Y135469607D01*
X57031192Y135517226D01*
X57221668Y135517226D01*
X57316906Y135469607D01*
X57364525Y135421988D01*
X57412144Y135326750D01*
X56221668Y135898179D02*
X56126430Y135898179D01*
X56031192Y135850560D01*
X55983573Y135802940D01*
X55935954Y135707702D01*
X55888335Y135517226D01*
X55888335Y135279131D01*
X55935954Y135088655D01*
X55983573Y134993417D01*
X56031192Y134945798D01*
X56126430Y134898179D01*
X56221668Y134898179D01*
X56316906Y134945798D01*
X56364525Y134993417D01*
X56412144Y135088655D01*
X56459763Y135279131D01*
X56459763Y135517226D01*
X56412144Y135707702D01*
X56364525Y135802940D01*
X56316906Y135850560D01*
X56221668Y135898179D01*
%TO.C,D59*%
X39314445Y134898179D02*
X39314445Y135898179D01*
X39076350Y135898179D01*
X38933493Y135850560D01*
X38838255Y135755321D01*
X38790636Y135660083D01*
X38743017Y135469607D01*
X38743017Y135326750D01*
X38790636Y135136274D01*
X38838255Y135041036D01*
X38933493Y134945798D01*
X39076350Y134898179D01*
X39314445Y134898179D01*
X37838255Y135898179D02*
X38314445Y135898179D01*
X38362064Y135421988D01*
X38314445Y135469607D01*
X38219207Y135517226D01*
X37981112Y135517226D01*
X37885874Y135469607D01*
X37838255Y135421988D01*
X37790636Y135326750D01*
X37790636Y135088655D01*
X37838255Y134993417D01*
X37885874Y134945798D01*
X37981112Y134898179D01*
X38219207Y134898179D01*
X38314445Y134945798D01*
X38362064Y134993417D01*
X37314445Y134898179D02*
X37123969Y134898179D01*
X37028731Y134945798D01*
X36981112Y134993417D01*
X36885874Y135136274D01*
X36838255Y135326750D01*
X36838255Y135707702D01*
X36885874Y135802940D01*
X36933493Y135850560D01*
X37028731Y135898179D01*
X37219207Y135898179D01*
X37314445Y135850560D01*
X37362064Y135802940D01*
X37409683Y135707702D01*
X37409683Y135469607D01*
X37362064Y135374369D01*
X37314445Y135326750D01*
X37219207Y135279131D01*
X37028731Y135279131D01*
X36933493Y135326750D01*
X36885874Y135374369D01*
X36838255Y135469607D01*
%TO.C,D58*%
X20264365Y134897619D02*
X20264365Y135897619D01*
X20026270Y135897619D01*
X19883413Y135850000D01*
X19788175Y135754761D01*
X19740556Y135659523D01*
X19692937Y135469047D01*
X19692937Y135326190D01*
X19740556Y135135714D01*
X19788175Y135040476D01*
X19883413Y134945238D01*
X20026270Y134897619D01*
X20264365Y134897619D01*
X18788175Y135897619D02*
X19264365Y135897619D01*
X19311984Y135421428D01*
X19264365Y135469047D01*
X19169127Y135516666D01*
X18931032Y135516666D01*
X18835794Y135469047D01*
X18788175Y135421428D01*
X18740556Y135326190D01*
X18740556Y135088095D01*
X18788175Y134992857D01*
X18835794Y134945238D01*
X18931032Y134897619D01*
X19169127Y134897619D01*
X19264365Y134945238D01*
X19311984Y134992857D01*
X18169127Y135469047D02*
X18264365Y135516666D01*
X18311984Y135564285D01*
X18359603Y135659523D01*
X18359603Y135707142D01*
X18311984Y135802380D01*
X18264365Y135850000D01*
X18169127Y135897619D01*
X17978651Y135897619D01*
X17883413Y135850000D01*
X17835794Y135802380D01*
X17788175Y135707142D01*
X17788175Y135659523D01*
X17835794Y135564285D01*
X17883413Y135516666D01*
X17978651Y135469047D01*
X18169127Y135469047D01*
X18264365Y135421428D01*
X18311984Y135373809D01*
X18359603Y135278571D01*
X18359603Y135088095D01*
X18311984Y134992857D01*
X18264365Y134945238D01*
X18169127Y134897619D01*
X17978651Y134897619D01*
X17883413Y134945238D01*
X17835794Y134992857D01*
X17788175Y135088095D01*
X17788175Y135278571D01*
X17835794Y135373809D01*
X17883413Y135421428D01*
X17978651Y135469047D01*
%TO.C,D57*%
X-3548234Y134897619D02*
X-3548234Y135897619D01*
X-3786329Y135897619D01*
X-3929186Y135850000D01*
X-4024424Y135754761D01*
X-4072043Y135659523D01*
X-4119662Y135469047D01*
X-4119662Y135326190D01*
X-4072043Y135135714D01*
X-4024424Y135040476D01*
X-3929186Y134945238D01*
X-3786329Y134897619D01*
X-3548234Y134897619D01*
X-5024424Y135897619D02*
X-4548234Y135897619D01*
X-4500615Y135421428D01*
X-4548234Y135469047D01*
X-4643472Y135516666D01*
X-4881567Y135516666D01*
X-4976805Y135469047D01*
X-5024424Y135421428D01*
X-5072043Y135326190D01*
X-5072043Y135088095D01*
X-5024424Y134992857D01*
X-4976805Y134945238D01*
X-4881567Y134897619D01*
X-4643472Y134897619D01*
X-4548234Y134945238D01*
X-4500615Y134992857D01*
X-5405377Y135897619D02*
X-6072043Y135897619D01*
X-5643472Y134897619D01*
%TO.C,D56*%
X253627845Y153948259D02*
X253627845Y154948259D01*
X253389750Y154948259D01*
X253246893Y154900640D01*
X253151655Y154805401D01*
X253104036Y154710163D01*
X253056417Y154519687D01*
X253056417Y154376830D01*
X253104036Y154186354D01*
X253151655Y154091116D01*
X253246893Y153995878D01*
X253389750Y153948259D01*
X253627845Y153948259D01*
X252151655Y154948259D02*
X252627845Y154948259D01*
X252675464Y154472068D01*
X252627845Y154519687D01*
X252532607Y154567306D01*
X252294512Y154567306D01*
X252199274Y154519687D01*
X252151655Y154472068D01*
X252104036Y154376830D01*
X252104036Y154138735D01*
X252151655Y154043497D01*
X252199274Y153995878D01*
X252294512Y153948259D01*
X252532607Y153948259D01*
X252627845Y153995878D01*
X252675464Y154043497D01*
X251246893Y154948259D02*
X251437369Y154948259D01*
X251532607Y154900640D01*
X251580226Y154853020D01*
X251675464Y154710163D01*
X251723083Y154519687D01*
X251723083Y154138735D01*
X251675464Y154043497D01*
X251627845Y153995878D01*
X251532607Y153948259D01*
X251342131Y153948259D01*
X251246893Y153995878D01*
X251199274Y154043497D01*
X251151655Y154138735D01*
X251151655Y154376830D01*
X251199274Y154472068D01*
X251246893Y154519687D01*
X251342131Y154567306D01*
X251532607Y154567306D01*
X251627845Y154519687D01*
X251675464Y154472068D01*
X251723083Y154376830D01*
%TO.C,D55*%
X229815245Y153947619D02*
X229815245Y154947619D01*
X229577150Y154947619D01*
X229434293Y154900000D01*
X229339055Y154804761D01*
X229291436Y154709523D01*
X229243817Y154519047D01*
X229243817Y154376190D01*
X229291436Y154185714D01*
X229339055Y154090476D01*
X229434293Y153995238D01*
X229577150Y153947619D01*
X229815245Y153947619D01*
X228339055Y154947619D02*
X228815245Y154947619D01*
X228862864Y154471428D01*
X228815245Y154519047D01*
X228720007Y154566666D01*
X228481912Y154566666D01*
X228386674Y154519047D01*
X228339055Y154471428D01*
X228291436Y154376190D01*
X228291436Y154138095D01*
X228339055Y154042857D01*
X228386674Y153995238D01*
X228481912Y153947619D01*
X228720007Y153947619D01*
X228815245Y153995238D01*
X228862864Y154042857D01*
X227386674Y154947619D02*
X227862864Y154947619D01*
X227910483Y154471428D01*
X227862864Y154519047D01*
X227767626Y154566666D01*
X227529531Y154566666D01*
X227434293Y154519047D01*
X227386674Y154471428D01*
X227339055Y154376190D01*
X227339055Y154138095D01*
X227386674Y154042857D01*
X227434293Y153995238D01*
X227529531Y153947619D01*
X227767626Y153947619D01*
X227862864Y153995238D01*
X227910483Y154042857D01*
%TO.C,D54*%
X210765165Y153948259D02*
X210765165Y154948259D01*
X210527070Y154948259D01*
X210384213Y154900640D01*
X210288975Y154805401D01*
X210241356Y154710163D01*
X210193737Y154519687D01*
X210193737Y154376830D01*
X210241356Y154186354D01*
X210288975Y154091116D01*
X210384213Y153995878D01*
X210527070Y153948259D01*
X210765165Y153948259D01*
X209288975Y154948259D02*
X209765165Y154948259D01*
X209812784Y154472068D01*
X209765165Y154519687D01*
X209669927Y154567306D01*
X209431832Y154567306D01*
X209336594Y154519687D01*
X209288975Y154472068D01*
X209241356Y154376830D01*
X209241356Y154138735D01*
X209288975Y154043497D01*
X209336594Y153995878D01*
X209431832Y153948259D01*
X209669927Y153948259D01*
X209765165Y153995878D01*
X209812784Y154043497D01*
X208384213Y154614925D02*
X208384213Y153948259D01*
X208622308Y154995878D02*
X208860403Y154281592D01*
X208241356Y154281592D01*
%TO.C,D53*%
X191715085Y153947619D02*
X191715085Y154947619D01*
X191476990Y154947619D01*
X191334133Y154900000D01*
X191238895Y154804761D01*
X191191276Y154709523D01*
X191143657Y154519047D01*
X191143657Y154376190D01*
X191191276Y154185714D01*
X191238895Y154090476D01*
X191334133Y153995238D01*
X191476990Y153947619D01*
X191715085Y153947619D01*
X190238895Y154947619D02*
X190715085Y154947619D01*
X190762704Y154471428D01*
X190715085Y154519047D01*
X190619847Y154566666D01*
X190381752Y154566666D01*
X190286514Y154519047D01*
X190238895Y154471428D01*
X190191276Y154376190D01*
X190191276Y154138095D01*
X190238895Y154042857D01*
X190286514Y153995238D01*
X190381752Y153947619D01*
X190619847Y153947619D01*
X190715085Y153995238D01*
X190762704Y154042857D01*
X189857942Y154947619D02*
X189238895Y154947619D01*
X189572228Y154566666D01*
X189429371Y154566666D01*
X189334133Y154519047D01*
X189286514Y154471428D01*
X189238895Y154376190D01*
X189238895Y154138095D01*
X189286514Y154042857D01*
X189334133Y153995238D01*
X189429371Y153947619D01*
X189715085Y153947619D01*
X189810323Y153995238D01*
X189857942Y154042857D01*
%TO.C,D52*%
X172665005Y153948259D02*
X172665005Y154948259D01*
X172426910Y154948259D01*
X172284053Y154900640D01*
X172188815Y154805401D01*
X172141196Y154710163D01*
X172093577Y154519687D01*
X172093577Y154376830D01*
X172141196Y154186354D01*
X172188815Y154091116D01*
X172284053Y153995878D01*
X172426910Y153948259D01*
X172665005Y153948259D01*
X171188815Y154948259D02*
X171665005Y154948259D01*
X171712624Y154472068D01*
X171665005Y154519687D01*
X171569767Y154567306D01*
X171331672Y154567306D01*
X171236434Y154519687D01*
X171188815Y154472068D01*
X171141196Y154376830D01*
X171141196Y154138735D01*
X171188815Y154043497D01*
X171236434Y153995878D01*
X171331672Y153948259D01*
X171569767Y153948259D01*
X171665005Y153995878D01*
X171712624Y154043497D01*
X170760243Y154853020D02*
X170712624Y154900640D01*
X170617386Y154948259D01*
X170379291Y154948259D01*
X170284053Y154900640D01*
X170236434Y154853020D01*
X170188815Y154757782D01*
X170188815Y154662544D01*
X170236434Y154519687D01*
X170807862Y153948259D01*
X170188815Y153948259D01*
%TO.C,D51*%
X153614925Y153947619D02*
X153614925Y154947619D01*
X153376830Y154947619D01*
X153233973Y154900000D01*
X153138735Y154804761D01*
X153091116Y154709523D01*
X153043497Y154519047D01*
X153043497Y154376190D01*
X153091116Y154185714D01*
X153138735Y154090476D01*
X153233973Y153995238D01*
X153376830Y153947619D01*
X153614925Y153947619D01*
X152138735Y154947619D02*
X152614925Y154947619D01*
X152662544Y154471428D01*
X152614925Y154519047D01*
X152519687Y154566666D01*
X152281592Y154566666D01*
X152186354Y154519047D01*
X152138735Y154471428D01*
X152091116Y154376190D01*
X152091116Y154138095D01*
X152138735Y154042857D01*
X152186354Y153995238D01*
X152281592Y153947619D01*
X152519687Y153947619D01*
X152614925Y153995238D01*
X152662544Y154042857D01*
X151138735Y153947619D02*
X151710163Y153947619D01*
X151424449Y153947619D02*
X151424449Y154947619D01*
X151519687Y154804761D01*
X151614925Y154709523D01*
X151710163Y154661904D01*
%TO.C,D50*%
X134564845Y153947619D02*
X134564845Y154947619D01*
X134326750Y154947619D01*
X134183893Y154900000D01*
X134088655Y154804761D01*
X134041036Y154709523D01*
X133993417Y154519047D01*
X133993417Y154376190D01*
X134041036Y154185714D01*
X134088655Y154090476D01*
X134183893Y153995238D01*
X134326750Y153947619D01*
X134564845Y153947619D01*
X133088655Y154947619D02*
X133564845Y154947619D01*
X133612464Y154471428D01*
X133564845Y154519047D01*
X133469607Y154566666D01*
X133231512Y154566666D01*
X133136274Y154519047D01*
X133088655Y154471428D01*
X133041036Y154376190D01*
X133041036Y154138095D01*
X133088655Y154042857D01*
X133136274Y153995238D01*
X133231512Y153947619D01*
X133469607Y153947619D01*
X133564845Y153995238D01*
X133612464Y154042857D01*
X132421988Y154947619D02*
X132326750Y154947619D01*
X132231512Y154900000D01*
X132183893Y154852380D01*
X132136274Y154757142D01*
X132088655Y154566666D01*
X132088655Y154328571D01*
X132136274Y154138095D01*
X132183893Y154042857D01*
X132231512Y153995238D01*
X132326750Y153947619D01*
X132421988Y153947619D01*
X132517226Y153995238D01*
X132564845Y154042857D01*
X132612464Y154138095D01*
X132660083Y154328571D01*
X132660083Y154566666D01*
X132612464Y154757142D01*
X132564845Y154852380D01*
X132517226Y154900000D01*
X132421988Y154947619D01*
%TO.C,D49*%
X115514765Y153947619D02*
X115514765Y154947619D01*
X115276670Y154947619D01*
X115133813Y154900000D01*
X115038575Y154804761D01*
X114990956Y154709523D01*
X114943337Y154519047D01*
X114943337Y154376190D01*
X114990956Y154185714D01*
X115038575Y154090476D01*
X115133813Y153995238D01*
X115276670Y153947619D01*
X115514765Y153947619D01*
X114086194Y154614285D02*
X114086194Y153947619D01*
X114324289Y154995238D02*
X114562384Y154280952D01*
X113943337Y154280952D01*
X113514765Y153947619D02*
X113324289Y153947619D01*
X113229051Y153995238D01*
X113181432Y154042857D01*
X113086194Y154185714D01*
X113038575Y154376190D01*
X113038575Y154757142D01*
X113086194Y154852380D01*
X113133813Y154900000D01*
X113229051Y154947619D01*
X113419527Y154947619D01*
X113514765Y154900000D01*
X113562384Y154852380D01*
X113610003Y154757142D01*
X113610003Y154519047D01*
X113562384Y154423809D01*
X113514765Y154376190D01*
X113419527Y154328571D01*
X113229051Y154328571D01*
X113133813Y154376190D01*
X113086194Y154423809D01*
X113038575Y154519047D01*
%TO.C,D48*%
X96464685Y153948259D02*
X96464685Y154948259D01*
X96226590Y154948259D01*
X96083733Y154900640D01*
X95988495Y154805401D01*
X95940876Y154710163D01*
X95893257Y154519687D01*
X95893257Y154376830D01*
X95940876Y154186354D01*
X95988495Y154091116D01*
X96083733Y153995878D01*
X96226590Y153948259D01*
X96464685Y153948259D01*
X95036114Y154614925D02*
X95036114Y153948259D01*
X95274209Y154995878D02*
X95512304Y154281592D01*
X94893257Y154281592D01*
X94369447Y154519687D02*
X94464685Y154567306D01*
X94512304Y154614925D01*
X94559923Y154710163D01*
X94559923Y154757782D01*
X94512304Y154853020D01*
X94464685Y154900640D01*
X94369447Y154948259D01*
X94178971Y154948259D01*
X94083733Y154900640D01*
X94036114Y154853020D01*
X93988495Y154757782D01*
X93988495Y154710163D01*
X94036114Y154614925D01*
X94083733Y154567306D01*
X94178971Y154519687D01*
X94369447Y154519687D01*
X94464685Y154472068D01*
X94512304Y154424449D01*
X94559923Y154329211D01*
X94559923Y154138735D01*
X94512304Y154043497D01*
X94464685Y153995878D01*
X94369447Y153948259D01*
X94178971Y153948259D01*
X94083733Y153995878D01*
X94036114Y154043497D01*
X93988495Y154138735D01*
X93988495Y154329211D01*
X94036114Y154424449D01*
X94083733Y154472068D01*
X94178971Y154519687D01*
%TO.C,D47*%
X77414605Y153948259D02*
X77414605Y154948259D01*
X77176510Y154948259D01*
X77033653Y154900640D01*
X76938415Y154805401D01*
X76890796Y154710163D01*
X76843177Y154519687D01*
X76843177Y154376830D01*
X76890796Y154186354D01*
X76938415Y154091116D01*
X77033653Y153995878D01*
X77176510Y153948259D01*
X77414605Y153948259D01*
X75986034Y154614925D02*
X75986034Y153948259D01*
X76224129Y154995878D02*
X76462224Y154281592D01*
X75843177Y154281592D01*
X75557462Y154948259D02*
X74890796Y154948259D01*
X75319367Y153948259D01*
%TO.C,D46*%
X58364525Y153948259D02*
X58364525Y154948259D01*
X58126430Y154948259D01*
X57983573Y154900640D01*
X57888335Y154805401D01*
X57840716Y154710163D01*
X57793097Y154519687D01*
X57793097Y154376830D01*
X57840716Y154186354D01*
X57888335Y154091116D01*
X57983573Y153995878D01*
X58126430Y153948259D01*
X58364525Y153948259D01*
X56935954Y154614925D02*
X56935954Y153948259D01*
X57174049Y154995878D02*
X57412144Y154281592D01*
X56793097Y154281592D01*
X55983573Y154948259D02*
X56174049Y154948259D01*
X56269287Y154900640D01*
X56316906Y154853020D01*
X56412144Y154710163D01*
X56459763Y154519687D01*
X56459763Y154138735D01*
X56412144Y154043497D01*
X56364525Y153995878D01*
X56269287Y153948259D01*
X56078811Y153948259D01*
X55983573Y153995878D01*
X55935954Y154043497D01*
X55888335Y154138735D01*
X55888335Y154376830D01*
X55935954Y154472068D01*
X55983573Y154519687D01*
X56078811Y154567306D01*
X56269287Y154567306D01*
X56364525Y154519687D01*
X56412144Y154472068D01*
X56459763Y154376830D01*
%TO.C,D45*%
X39314445Y153948259D02*
X39314445Y154948259D01*
X39076350Y154948259D01*
X38933493Y154900640D01*
X38838255Y154805401D01*
X38790636Y154710163D01*
X38743017Y154519687D01*
X38743017Y154376830D01*
X38790636Y154186354D01*
X38838255Y154091116D01*
X38933493Y153995878D01*
X39076350Y153948259D01*
X39314445Y153948259D01*
X37885874Y154614925D02*
X37885874Y153948259D01*
X38123969Y154995878D02*
X38362064Y154281592D01*
X37743017Y154281592D01*
X36885874Y154948259D02*
X37362064Y154948259D01*
X37409683Y154472068D01*
X37362064Y154519687D01*
X37266826Y154567306D01*
X37028731Y154567306D01*
X36933493Y154519687D01*
X36885874Y154472068D01*
X36838255Y154376830D01*
X36838255Y154138735D01*
X36885874Y154043497D01*
X36933493Y153995878D01*
X37028731Y153948259D01*
X37266826Y153948259D01*
X37362064Y153995878D01*
X37409683Y154043497D01*
%TO.C,D44*%
X20264365Y153947619D02*
X20264365Y154947619D01*
X20026270Y154947619D01*
X19883413Y154900000D01*
X19788175Y154804761D01*
X19740556Y154709523D01*
X19692937Y154519047D01*
X19692937Y154376190D01*
X19740556Y154185714D01*
X19788175Y154090476D01*
X19883413Y153995238D01*
X20026270Y153947619D01*
X20264365Y153947619D01*
X18835794Y154614285D02*
X18835794Y153947619D01*
X19073889Y154995238D02*
X19311984Y154280952D01*
X18692937Y154280952D01*
X17883413Y154614285D02*
X17883413Y153947619D01*
X18121508Y154995238D02*
X18359603Y154280952D01*
X17740556Y154280952D01*
%TO.C,D43*%
X-3548234Y153948259D02*
X-3548234Y154948259D01*
X-3786329Y154948259D01*
X-3929186Y154900640D01*
X-4024424Y154805401D01*
X-4072043Y154710163D01*
X-4119662Y154519687D01*
X-4119662Y154376830D01*
X-4072043Y154186354D01*
X-4024424Y154091116D01*
X-3929186Y153995878D01*
X-3786329Y153948259D01*
X-3548234Y153948259D01*
X-4976805Y154614925D02*
X-4976805Y153948259D01*
X-4738710Y154995878D02*
X-4500615Y154281592D01*
X-5119662Y154281592D01*
X-5405377Y154948259D02*
X-6024424Y154948259D01*
X-5691091Y154567306D01*
X-5833948Y154567306D01*
X-5929186Y154519687D01*
X-5976805Y154472068D01*
X-6024424Y154376830D01*
X-6024424Y154138735D01*
X-5976805Y154043497D01*
X-5929186Y153995878D01*
X-5833948Y153948259D01*
X-5548234Y153948259D01*
X-5452996Y153995878D01*
X-5405377Y154043497D01*
%TO.C,D42*%
X253627845Y172997619D02*
X253627845Y173997619D01*
X253389750Y173997619D01*
X253246893Y173950000D01*
X253151655Y173854761D01*
X253104036Y173759523D01*
X253056417Y173569047D01*
X253056417Y173426190D01*
X253104036Y173235714D01*
X253151655Y173140476D01*
X253246893Y173045238D01*
X253389750Y172997619D01*
X253627845Y172997619D01*
X252199274Y173664285D02*
X252199274Y172997619D01*
X252437369Y174045238D02*
X252675464Y173330952D01*
X252056417Y173330952D01*
X251723083Y173902380D02*
X251675464Y173950000D01*
X251580226Y173997619D01*
X251342131Y173997619D01*
X251246893Y173950000D01*
X251199274Y173902380D01*
X251151655Y173807142D01*
X251151655Y173711904D01*
X251199274Y173569047D01*
X251770702Y172997619D01*
X251151655Y172997619D01*
%TO.C,D41*%
X229815245Y172997619D02*
X229815245Y173997619D01*
X229577150Y173997619D01*
X229434293Y173950000D01*
X229339055Y173854761D01*
X229291436Y173759523D01*
X229243817Y173569047D01*
X229243817Y173426190D01*
X229291436Y173235714D01*
X229339055Y173140476D01*
X229434293Y173045238D01*
X229577150Y172997619D01*
X229815245Y172997619D01*
X228386674Y173664285D02*
X228386674Y172997619D01*
X228624769Y174045238D02*
X228862864Y173330952D01*
X228243817Y173330952D01*
X227339055Y172997619D02*
X227910483Y172997619D01*
X227624769Y172997619D02*
X227624769Y173997619D01*
X227720007Y173854761D01*
X227815245Y173759523D01*
X227910483Y173711904D01*
%TO.C,D40*%
X210765165Y172997619D02*
X210765165Y173997619D01*
X210527070Y173997619D01*
X210384213Y173950000D01*
X210288975Y173854761D01*
X210241356Y173759523D01*
X210193737Y173569047D01*
X210193737Y173426190D01*
X210241356Y173235714D01*
X210288975Y173140476D01*
X210384213Y173045238D01*
X210527070Y172997619D01*
X210765165Y172997619D01*
X209336594Y173664285D02*
X209336594Y172997619D01*
X209574689Y174045238D02*
X209812784Y173330952D01*
X209193737Y173330952D01*
X208622308Y173997619D02*
X208527070Y173997619D01*
X208431832Y173950000D01*
X208384213Y173902380D01*
X208336594Y173807142D01*
X208288975Y173616666D01*
X208288975Y173378571D01*
X208336594Y173188095D01*
X208384213Y173092857D01*
X208431832Y173045238D01*
X208527070Y172997619D01*
X208622308Y172997619D01*
X208717546Y173045238D01*
X208765165Y173092857D01*
X208812784Y173188095D01*
X208860403Y173378571D01*
X208860403Y173616666D01*
X208812784Y173807142D01*
X208765165Y173902380D01*
X208717546Y173950000D01*
X208622308Y173997619D01*
%TO.C,D39*%
X191715085Y172997619D02*
X191715085Y173997619D01*
X191476990Y173997619D01*
X191334133Y173950000D01*
X191238895Y173854761D01*
X191191276Y173759523D01*
X191143657Y173569047D01*
X191143657Y173426190D01*
X191191276Y173235714D01*
X191238895Y173140476D01*
X191334133Y173045238D01*
X191476990Y172997619D01*
X191715085Y172997619D01*
X190810323Y173997619D02*
X190191276Y173997619D01*
X190524609Y173616666D01*
X190381752Y173616666D01*
X190286514Y173569047D01*
X190238895Y173521428D01*
X190191276Y173426190D01*
X190191276Y173188095D01*
X190238895Y173092857D01*
X190286514Y173045238D01*
X190381752Y172997619D01*
X190667466Y172997619D01*
X190762704Y173045238D01*
X190810323Y173092857D01*
X189715085Y172997619D02*
X189524609Y172997619D01*
X189429371Y173045238D01*
X189381752Y173092857D01*
X189286514Y173235714D01*
X189238895Y173426190D01*
X189238895Y173807142D01*
X189286514Y173902380D01*
X189334133Y173950000D01*
X189429371Y173997619D01*
X189619847Y173997619D01*
X189715085Y173950000D01*
X189762704Y173902380D01*
X189810323Y173807142D01*
X189810323Y173569047D01*
X189762704Y173473809D01*
X189715085Y173426190D01*
X189619847Y173378571D01*
X189429371Y173378571D01*
X189334133Y173426190D01*
X189286514Y173473809D01*
X189238895Y173569047D01*
%TO.C,D38*%
X172665005Y172998339D02*
X172665005Y173998339D01*
X172426910Y173998339D01*
X172284053Y173950720D01*
X172188815Y173855481D01*
X172141196Y173760243D01*
X172093577Y173569767D01*
X172093577Y173426910D01*
X172141196Y173236434D01*
X172188815Y173141196D01*
X172284053Y173045958D01*
X172426910Y172998339D01*
X172665005Y172998339D01*
X171760243Y173998339D02*
X171141196Y173998339D01*
X171474529Y173617386D01*
X171331672Y173617386D01*
X171236434Y173569767D01*
X171188815Y173522148D01*
X171141196Y173426910D01*
X171141196Y173188815D01*
X171188815Y173093577D01*
X171236434Y173045958D01*
X171331672Y172998339D01*
X171617386Y172998339D01*
X171712624Y173045958D01*
X171760243Y173093577D01*
X170569767Y173569767D02*
X170665005Y173617386D01*
X170712624Y173665005D01*
X170760243Y173760243D01*
X170760243Y173807862D01*
X170712624Y173903100D01*
X170665005Y173950720D01*
X170569767Y173998339D01*
X170379291Y173998339D01*
X170284053Y173950720D01*
X170236434Y173903100D01*
X170188815Y173807862D01*
X170188815Y173760243D01*
X170236434Y173665005D01*
X170284053Y173617386D01*
X170379291Y173569767D01*
X170569767Y173569767D01*
X170665005Y173522148D01*
X170712624Y173474529D01*
X170760243Y173379291D01*
X170760243Y173188815D01*
X170712624Y173093577D01*
X170665005Y173045958D01*
X170569767Y172998339D01*
X170379291Y172998339D01*
X170284053Y173045958D01*
X170236434Y173093577D01*
X170188815Y173188815D01*
X170188815Y173379291D01*
X170236434Y173474529D01*
X170284053Y173522148D01*
X170379291Y173569767D01*
%TO.C,D37*%
X153614925Y172997619D02*
X153614925Y173997619D01*
X153376830Y173997619D01*
X153233973Y173950000D01*
X153138735Y173854761D01*
X153091116Y173759523D01*
X153043497Y173569047D01*
X153043497Y173426190D01*
X153091116Y173235714D01*
X153138735Y173140476D01*
X153233973Y173045238D01*
X153376830Y172997619D01*
X153614925Y172997619D01*
X152710163Y173997619D02*
X152091116Y173997619D01*
X152424449Y173616666D01*
X152281592Y173616666D01*
X152186354Y173569047D01*
X152138735Y173521428D01*
X152091116Y173426190D01*
X152091116Y173188095D01*
X152138735Y173092857D01*
X152186354Y173045238D01*
X152281592Y172997619D01*
X152567306Y172997619D01*
X152662544Y173045238D01*
X152710163Y173092857D01*
X151757782Y173997619D02*
X151091116Y173997619D01*
X151519687Y172997619D01*
%TO.C,D36*%
X134564845Y172998339D02*
X134564845Y173998339D01*
X134326750Y173998339D01*
X134183893Y173950720D01*
X134088655Y173855481D01*
X134041036Y173760243D01*
X133993417Y173569767D01*
X133993417Y173426910D01*
X134041036Y173236434D01*
X134088655Y173141196D01*
X134183893Y173045958D01*
X134326750Y172998339D01*
X134564845Y172998339D01*
X133660083Y173998339D02*
X133041036Y173998339D01*
X133374369Y173617386D01*
X133231512Y173617386D01*
X133136274Y173569767D01*
X133088655Y173522148D01*
X133041036Y173426910D01*
X133041036Y173188815D01*
X133088655Y173093577D01*
X133136274Y173045958D01*
X133231512Y172998339D01*
X133517226Y172998339D01*
X133612464Y173045958D01*
X133660083Y173093577D01*
X132183893Y173998339D02*
X132374369Y173998339D01*
X132469607Y173950720D01*
X132517226Y173903100D01*
X132612464Y173760243D01*
X132660083Y173569767D01*
X132660083Y173188815D01*
X132612464Y173093577D01*
X132564845Y173045958D01*
X132469607Y172998339D01*
X132279131Y172998339D01*
X132183893Y173045958D01*
X132136274Y173093577D01*
X132088655Y173188815D01*
X132088655Y173426910D01*
X132136274Y173522148D01*
X132183893Y173569767D01*
X132279131Y173617386D01*
X132469607Y173617386D01*
X132564845Y173569767D01*
X132612464Y173522148D01*
X132660083Y173426910D01*
%TO.C,D35*%
X115514765Y172997619D02*
X115514765Y173997619D01*
X115276670Y173997619D01*
X115133813Y173950000D01*
X115038575Y173854761D01*
X114990956Y173759523D01*
X114943337Y173569047D01*
X114943337Y173426190D01*
X114990956Y173235714D01*
X115038575Y173140476D01*
X115133813Y173045238D01*
X115276670Y172997619D01*
X115514765Y172997619D01*
X114610003Y173997619D02*
X113990956Y173997619D01*
X114324289Y173616666D01*
X114181432Y173616666D01*
X114086194Y173569047D01*
X114038575Y173521428D01*
X113990956Y173426190D01*
X113990956Y173188095D01*
X114038575Y173092857D01*
X114086194Y173045238D01*
X114181432Y172997619D01*
X114467146Y172997619D01*
X114562384Y173045238D01*
X114610003Y173092857D01*
X113086194Y173997619D02*
X113562384Y173997619D01*
X113610003Y173521428D01*
X113562384Y173569047D01*
X113467146Y173616666D01*
X113229051Y173616666D01*
X113133813Y173569047D01*
X113086194Y173521428D01*
X113038575Y173426190D01*
X113038575Y173188095D01*
X113086194Y173092857D01*
X113133813Y173045238D01*
X113229051Y172997619D01*
X113467146Y172997619D01*
X113562384Y173045238D01*
X113610003Y173092857D01*
%TO.C,D34*%
X96464685Y172998339D02*
X96464685Y173998339D01*
X96226590Y173998339D01*
X96083733Y173950720D01*
X95988495Y173855481D01*
X95940876Y173760243D01*
X95893257Y173569767D01*
X95893257Y173426910D01*
X95940876Y173236434D01*
X95988495Y173141196D01*
X96083733Y173045958D01*
X96226590Y172998339D01*
X96464685Y172998339D01*
X95559923Y173998339D02*
X94940876Y173998339D01*
X95274209Y173617386D01*
X95131352Y173617386D01*
X95036114Y173569767D01*
X94988495Y173522148D01*
X94940876Y173426910D01*
X94940876Y173188815D01*
X94988495Y173093577D01*
X95036114Y173045958D01*
X95131352Y172998339D01*
X95417066Y172998339D01*
X95512304Y173045958D01*
X95559923Y173093577D01*
X94083733Y173665005D02*
X94083733Y172998339D01*
X94321828Y174045958D02*
X94559923Y173331672D01*
X93940876Y173331672D01*
%TO.C,D33*%
X77414605Y172997619D02*
X77414605Y173997619D01*
X77176510Y173997619D01*
X77033653Y173950000D01*
X76938415Y173854761D01*
X76890796Y173759523D01*
X76843177Y173569047D01*
X76843177Y173426190D01*
X76890796Y173235714D01*
X76938415Y173140476D01*
X77033653Y173045238D01*
X77176510Y172997619D01*
X77414605Y172997619D01*
X76509843Y173997619D02*
X75890796Y173997619D01*
X76224129Y173616666D01*
X76081272Y173616666D01*
X75986034Y173569047D01*
X75938415Y173521428D01*
X75890796Y173426190D01*
X75890796Y173188095D01*
X75938415Y173092857D01*
X75986034Y173045238D01*
X76081272Y172997619D01*
X76366986Y172997619D01*
X76462224Y173045238D01*
X76509843Y173092857D01*
X75557462Y173997619D02*
X74938415Y173997619D01*
X75271748Y173616666D01*
X75128891Y173616666D01*
X75033653Y173569047D01*
X74986034Y173521428D01*
X74938415Y173426190D01*
X74938415Y173188095D01*
X74986034Y173092857D01*
X75033653Y173045238D01*
X75128891Y172997619D01*
X75414605Y172997619D01*
X75509843Y173045238D01*
X75557462Y173092857D01*
%TO.C,D32*%
X58364525Y172997619D02*
X58364525Y173997619D01*
X58126430Y173997619D01*
X57983573Y173950000D01*
X57888335Y173854761D01*
X57840716Y173759523D01*
X57793097Y173569047D01*
X57793097Y173426190D01*
X57840716Y173235714D01*
X57888335Y173140476D01*
X57983573Y173045238D01*
X58126430Y172997619D01*
X58364525Y172997619D01*
X57459763Y173997619D02*
X56840716Y173997619D01*
X57174049Y173616666D01*
X57031192Y173616666D01*
X56935954Y173569047D01*
X56888335Y173521428D01*
X56840716Y173426190D01*
X56840716Y173188095D01*
X56888335Y173092857D01*
X56935954Y173045238D01*
X57031192Y172997619D01*
X57316906Y172997619D01*
X57412144Y173045238D01*
X57459763Y173092857D01*
X56459763Y173902380D02*
X56412144Y173950000D01*
X56316906Y173997619D01*
X56078811Y173997619D01*
X55983573Y173950000D01*
X55935954Y173902380D01*
X55888335Y173807142D01*
X55888335Y173711904D01*
X55935954Y173569047D01*
X56507382Y172997619D01*
X55888335Y172997619D01*
%TO.C,D31*%
X39314445Y172998339D02*
X39314445Y173998339D01*
X39076350Y173998339D01*
X38933493Y173950720D01*
X38838255Y173855481D01*
X38790636Y173760243D01*
X38743017Y173569767D01*
X38743017Y173426910D01*
X38790636Y173236434D01*
X38838255Y173141196D01*
X38933493Y173045958D01*
X39076350Y172998339D01*
X39314445Y172998339D01*
X38409683Y173998339D02*
X37790636Y173998339D01*
X38123969Y173617386D01*
X37981112Y173617386D01*
X37885874Y173569767D01*
X37838255Y173522148D01*
X37790636Y173426910D01*
X37790636Y173188815D01*
X37838255Y173093577D01*
X37885874Y173045958D01*
X37981112Y172998339D01*
X38266826Y172998339D01*
X38362064Y173045958D01*
X38409683Y173093577D01*
X36838255Y172998339D02*
X37409683Y172998339D01*
X37123969Y172998339D02*
X37123969Y173998339D01*
X37219207Y173855481D01*
X37314445Y173760243D01*
X37409683Y173712624D01*
%TO.C,D30*%
X19408035Y172997619D02*
X19408035Y173997619D01*
X19169940Y173997619D01*
X19027083Y173950000D01*
X18931845Y173854761D01*
X18884226Y173759523D01*
X18836607Y173569047D01*
X18836607Y173426190D01*
X18884226Y173235714D01*
X18931845Y173140476D01*
X19027083Y173045238D01*
X19169940Y172997619D01*
X19408035Y172997619D01*
X18503273Y173997619D02*
X17884226Y173997619D01*
X18217559Y173616666D01*
X18074702Y173616666D01*
X17979464Y173569047D01*
X17931845Y173521428D01*
X17884226Y173426190D01*
X17884226Y173188095D01*
X17931845Y173092857D01*
X17979464Y173045238D01*
X18074702Y172997619D01*
X18360416Y172997619D01*
X18455654Y173045238D01*
X18503273Y173092857D01*
X17265178Y173997619D02*
X17169940Y173997619D01*
X17074702Y173950000D01*
X17027083Y173902380D01*
X16979464Y173807142D01*
X16931845Y173616666D01*
X16931845Y173378571D01*
X16979464Y173188095D01*
X17027083Y173092857D01*
X17074702Y173045238D01*
X17169940Y172997619D01*
X17265178Y172997619D01*
X17360416Y173045238D01*
X17408035Y173092857D01*
X17455654Y173188095D01*
X17503273Y173378571D01*
X17503273Y173616666D01*
X17455654Y173807142D01*
X17408035Y173902380D01*
X17360416Y173950000D01*
X17265178Y173997619D01*
%TO.C,D29*%
X-3548234Y172997619D02*
X-3548234Y173997619D01*
X-3786329Y173997619D01*
X-3929186Y173950000D01*
X-4024424Y173854761D01*
X-4072043Y173759523D01*
X-4119662Y173569047D01*
X-4119662Y173426190D01*
X-4072043Y173235714D01*
X-4024424Y173140476D01*
X-3929186Y173045238D01*
X-3786329Y172997619D01*
X-3548234Y172997619D01*
X-4500615Y173902380D02*
X-4548234Y173950000D01*
X-4643472Y173997619D01*
X-4881567Y173997619D01*
X-4976805Y173950000D01*
X-5024424Y173902380D01*
X-5072043Y173807142D01*
X-5072043Y173711904D01*
X-5024424Y173569047D01*
X-4452996Y172997619D01*
X-5072043Y172997619D01*
X-5548234Y172997619D02*
X-5738710Y172997619D01*
X-5833948Y173045238D01*
X-5881567Y173092857D01*
X-5976805Y173235714D01*
X-6024424Y173426190D01*
X-6024424Y173807142D01*
X-5976805Y173902380D01*
X-5929186Y173950000D01*
X-5833948Y173997619D01*
X-5643472Y173997619D01*
X-5548234Y173950000D01*
X-5500615Y173902380D01*
X-5452996Y173807142D01*
X-5452996Y173569047D01*
X-5500615Y173473809D01*
X-5548234Y173426190D01*
X-5643472Y173378571D01*
X-5833948Y173378571D01*
X-5929186Y173426190D01*
X-5976805Y173473809D01*
X-6024424Y173569047D01*
%TO.C,D28*%
X253627845Y197573459D02*
X253627845Y198573459D01*
X253389750Y198573459D01*
X253246893Y198525840D01*
X253151655Y198430601D01*
X253104036Y198335363D01*
X253056417Y198144887D01*
X253056417Y198002030D01*
X253104036Y197811554D01*
X253151655Y197716316D01*
X253246893Y197621078D01*
X253389750Y197573459D01*
X253627845Y197573459D01*
X252675464Y198478220D02*
X252627845Y198525840D01*
X252532607Y198573459D01*
X252294512Y198573459D01*
X252199274Y198525840D01*
X252151655Y198478220D01*
X252104036Y198382982D01*
X252104036Y198287744D01*
X252151655Y198144887D01*
X252723083Y197573459D01*
X252104036Y197573459D01*
X251532607Y198144887D02*
X251627845Y198192506D01*
X251675464Y198240125D01*
X251723083Y198335363D01*
X251723083Y198382982D01*
X251675464Y198478220D01*
X251627845Y198525840D01*
X251532607Y198573459D01*
X251342131Y198573459D01*
X251246893Y198525840D01*
X251199274Y198478220D01*
X251151655Y198382982D01*
X251151655Y198335363D01*
X251199274Y198240125D01*
X251246893Y198192506D01*
X251342131Y198144887D01*
X251532607Y198144887D01*
X251627845Y198097268D01*
X251675464Y198049649D01*
X251723083Y197954411D01*
X251723083Y197763935D01*
X251675464Y197668697D01*
X251627845Y197621078D01*
X251532607Y197573459D01*
X251342131Y197573459D01*
X251246893Y197621078D01*
X251199274Y197668697D01*
X251151655Y197763935D01*
X251151655Y197954411D01*
X251199274Y198049649D01*
X251246893Y198097268D01*
X251342131Y198144887D01*
%TO.C,D27*%
X229815245Y192047619D02*
X229815245Y193047619D01*
X229577150Y193047619D01*
X229434293Y193000000D01*
X229339055Y192904761D01*
X229291436Y192809523D01*
X229243817Y192619047D01*
X229243817Y192476190D01*
X229291436Y192285714D01*
X229339055Y192190476D01*
X229434293Y192095238D01*
X229577150Y192047619D01*
X229815245Y192047619D01*
X228862864Y192952380D02*
X228815245Y193000000D01*
X228720007Y193047619D01*
X228481912Y193047619D01*
X228386674Y193000000D01*
X228339055Y192952380D01*
X228291436Y192857142D01*
X228291436Y192761904D01*
X228339055Y192619047D01*
X228910483Y192047619D01*
X228291436Y192047619D01*
X227958102Y193047619D02*
X227291436Y193047619D01*
X227720007Y192047619D01*
%TO.C,D26*%
X210765165Y192048419D02*
X210765165Y193048419D01*
X210527070Y193048419D01*
X210384213Y193000800D01*
X210288975Y192905561D01*
X210241356Y192810323D01*
X210193737Y192619847D01*
X210193737Y192476990D01*
X210241356Y192286514D01*
X210288975Y192191276D01*
X210384213Y192096038D01*
X210527070Y192048419D01*
X210765165Y192048419D01*
X209812784Y192953180D02*
X209765165Y193000800D01*
X209669927Y193048419D01*
X209431832Y193048419D01*
X209336594Y193000800D01*
X209288975Y192953180D01*
X209241356Y192857942D01*
X209241356Y192762704D01*
X209288975Y192619847D01*
X209860403Y192048419D01*
X209241356Y192048419D01*
X208384213Y193048419D02*
X208574689Y193048419D01*
X208669927Y193000800D01*
X208717546Y192953180D01*
X208812784Y192810323D01*
X208860403Y192619847D01*
X208860403Y192238895D01*
X208812784Y192143657D01*
X208765165Y192096038D01*
X208669927Y192048419D01*
X208479451Y192048419D01*
X208384213Y192096038D01*
X208336594Y192143657D01*
X208288975Y192238895D01*
X208288975Y192476990D01*
X208336594Y192572228D01*
X208384213Y192619847D01*
X208479451Y192667466D01*
X208669927Y192667466D01*
X208765165Y192619847D01*
X208812784Y192572228D01*
X208860403Y192476990D01*
%TO.C,D25*%
X191715085Y192047619D02*
X191715085Y193047619D01*
X191476990Y193047619D01*
X191334133Y193000000D01*
X191238895Y192904761D01*
X191191276Y192809523D01*
X191143657Y192619047D01*
X191143657Y192476190D01*
X191191276Y192285714D01*
X191238895Y192190476D01*
X191334133Y192095238D01*
X191476990Y192047619D01*
X191715085Y192047619D01*
X190762704Y192952380D02*
X190715085Y193000000D01*
X190619847Y193047619D01*
X190381752Y193047619D01*
X190286514Y193000000D01*
X190238895Y192952380D01*
X190191276Y192857142D01*
X190191276Y192761904D01*
X190238895Y192619047D01*
X190810323Y192047619D01*
X190191276Y192047619D01*
X189286514Y193047619D02*
X189762704Y193047619D01*
X189810323Y192571428D01*
X189762704Y192619047D01*
X189667466Y192666666D01*
X189429371Y192666666D01*
X189334133Y192619047D01*
X189286514Y192571428D01*
X189238895Y192476190D01*
X189238895Y192238095D01*
X189286514Y192142857D01*
X189334133Y192095238D01*
X189429371Y192047619D01*
X189667466Y192047619D01*
X189762704Y192095238D01*
X189810323Y192142857D01*
%TO.C,D24*%
X172665005Y191985119D02*
X172665005Y192985119D01*
X172426910Y192985119D01*
X172284053Y192937500D01*
X172188815Y192842261D01*
X172141196Y192747023D01*
X172093577Y192556547D01*
X172093577Y192413690D01*
X172141196Y192223214D01*
X172188815Y192127976D01*
X172284053Y192032738D01*
X172426910Y191985119D01*
X172665005Y191985119D01*
X171712624Y192889880D02*
X171665005Y192937500D01*
X171569767Y192985119D01*
X171331672Y192985119D01*
X171236434Y192937500D01*
X171188815Y192889880D01*
X171141196Y192794642D01*
X171141196Y192699404D01*
X171188815Y192556547D01*
X171760243Y191985119D01*
X171141196Y191985119D01*
X170284053Y192651785D02*
X170284053Y191985119D01*
X170522148Y193032738D02*
X170760243Y192318452D01*
X170141196Y192318452D01*
%TO.C,D23*%
X153614925Y192048419D02*
X153614925Y193048419D01*
X153376830Y193048419D01*
X153233973Y193000800D01*
X153138735Y192905561D01*
X153091116Y192810323D01*
X153043497Y192619847D01*
X153043497Y192476990D01*
X153091116Y192286514D01*
X153138735Y192191276D01*
X153233973Y192096038D01*
X153376830Y192048419D01*
X153614925Y192048419D01*
X152662544Y192953180D02*
X152614925Y193000800D01*
X152519687Y193048419D01*
X152281592Y193048419D01*
X152186354Y193000800D01*
X152138735Y192953180D01*
X152091116Y192857942D01*
X152091116Y192762704D01*
X152138735Y192619847D01*
X152710163Y192048419D01*
X152091116Y192048419D01*
X151757782Y193048419D02*
X151138735Y193048419D01*
X151472068Y192667466D01*
X151329211Y192667466D01*
X151233973Y192619847D01*
X151186354Y192572228D01*
X151138735Y192476990D01*
X151138735Y192238895D01*
X151186354Y192143657D01*
X151233973Y192096038D01*
X151329211Y192048419D01*
X151614925Y192048419D01*
X151710163Y192096038D01*
X151757782Y192143657D01*
%TO.C,D22*%
X134564845Y192047619D02*
X134564845Y193047619D01*
X134326750Y193047619D01*
X134183893Y193000000D01*
X134088655Y192904761D01*
X134041036Y192809523D01*
X133993417Y192619047D01*
X133993417Y192476190D01*
X134041036Y192285714D01*
X134088655Y192190476D01*
X134183893Y192095238D01*
X134326750Y192047619D01*
X134564845Y192047619D01*
X133612464Y192952380D02*
X133564845Y193000000D01*
X133469607Y193047619D01*
X133231512Y193047619D01*
X133136274Y193000000D01*
X133088655Y192952380D01*
X133041036Y192857142D01*
X133041036Y192761904D01*
X133088655Y192619047D01*
X133660083Y192047619D01*
X133041036Y192047619D01*
X132660083Y192952380D02*
X132612464Y193000000D01*
X132517226Y193047619D01*
X132279131Y193047619D01*
X132183893Y193000000D01*
X132136274Y192952380D01*
X132088655Y192857142D01*
X132088655Y192761904D01*
X132136274Y192619047D01*
X132707702Y192047619D01*
X132088655Y192047619D01*
%TO.C,D21*%
X115514765Y192047619D02*
X115514765Y193047619D01*
X115276670Y193047619D01*
X115133813Y193000000D01*
X115038575Y192904761D01*
X114990956Y192809523D01*
X114943337Y192619047D01*
X114943337Y192476190D01*
X114990956Y192285714D01*
X115038575Y192190476D01*
X115133813Y192095238D01*
X115276670Y192047619D01*
X115514765Y192047619D01*
X114562384Y192952380D02*
X114514765Y193000000D01*
X114419527Y193047619D01*
X114181432Y193047619D01*
X114086194Y193000000D01*
X114038575Y192952380D01*
X113990956Y192857142D01*
X113990956Y192761904D01*
X114038575Y192619047D01*
X114610003Y192047619D01*
X113990956Y192047619D01*
X113038575Y192047619D02*
X113610003Y192047619D01*
X113324289Y192047619D02*
X113324289Y193047619D01*
X113419527Y192904761D01*
X113514765Y192809523D01*
X113610003Y192761904D01*
%TO.C,D20*%
X96464685Y192047619D02*
X96464685Y193047619D01*
X96226590Y193047619D01*
X96083733Y193000000D01*
X95988495Y192904761D01*
X95940876Y192809523D01*
X95893257Y192619047D01*
X95893257Y192476190D01*
X95940876Y192285714D01*
X95988495Y192190476D01*
X96083733Y192095238D01*
X96226590Y192047619D01*
X96464685Y192047619D01*
X95512304Y192952380D02*
X95464685Y193000000D01*
X95369447Y193047619D01*
X95131352Y193047619D01*
X95036114Y193000000D01*
X94988495Y192952380D01*
X94940876Y192857142D01*
X94940876Y192761904D01*
X94988495Y192619047D01*
X95559923Y192047619D01*
X94940876Y192047619D01*
X94321828Y193047619D02*
X94226590Y193047619D01*
X94131352Y193000000D01*
X94083733Y192952380D01*
X94036114Y192857142D01*
X93988495Y192666666D01*
X93988495Y192428571D01*
X94036114Y192238095D01*
X94083733Y192142857D01*
X94131352Y192095238D01*
X94226590Y192047619D01*
X94321828Y192047619D01*
X94417066Y192095238D01*
X94464685Y192142857D01*
X94512304Y192238095D01*
X94559923Y192428571D01*
X94559923Y192666666D01*
X94512304Y192857142D01*
X94464685Y192952380D01*
X94417066Y193000000D01*
X94321828Y193047619D01*
%TO.C,D19*%
X77414605Y192048419D02*
X77414605Y193048419D01*
X77176510Y193048419D01*
X77033653Y193000800D01*
X76938415Y192905561D01*
X76890796Y192810323D01*
X76843177Y192619847D01*
X76843177Y192476990D01*
X76890796Y192286514D01*
X76938415Y192191276D01*
X77033653Y192096038D01*
X77176510Y192048419D01*
X77414605Y192048419D01*
X75890796Y192048419D02*
X76462224Y192048419D01*
X76176510Y192048419D02*
X76176510Y193048419D01*
X76271748Y192905561D01*
X76366986Y192810323D01*
X76462224Y192762704D01*
X75414605Y192048419D02*
X75224129Y192048419D01*
X75128891Y192096038D01*
X75081272Y192143657D01*
X74986034Y192286514D01*
X74938415Y192476990D01*
X74938415Y192857942D01*
X74986034Y192953180D01*
X75033653Y193000800D01*
X75128891Y193048419D01*
X75319367Y193048419D01*
X75414605Y193000800D01*
X75462224Y192953180D01*
X75509843Y192857942D01*
X75509843Y192619847D01*
X75462224Y192524609D01*
X75414605Y192476990D01*
X75319367Y192429371D01*
X75128891Y192429371D01*
X75033653Y192476990D01*
X74986034Y192524609D01*
X74938415Y192619847D01*
%TO.C,D18*%
X58364525Y192047619D02*
X58364525Y193047619D01*
X58126430Y193047619D01*
X57983573Y193000000D01*
X57888335Y192904761D01*
X57840716Y192809523D01*
X57793097Y192619047D01*
X57793097Y192476190D01*
X57840716Y192285714D01*
X57888335Y192190476D01*
X57983573Y192095238D01*
X58126430Y192047619D01*
X58364525Y192047619D01*
X56840716Y192047619D02*
X57412144Y192047619D01*
X57126430Y192047619D02*
X57126430Y193047619D01*
X57221668Y192904761D01*
X57316906Y192809523D01*
X57412144Y192761904D01*
X56269287Y192619047D02*
X56364525Y192666666D01*
X56412144Y192714285D01*
X56459763Y192809523D01*
X56459763Y192857142D01*
X56412144Y192952380D01*
X56364525Y193000000D01*
X56269287Y193047619D01*
X56078811Y193047619D01*
X55983573Y193000000D01*
X55935954Y192952380D01*
X55888335Y192857142D01*
X55888335Y192809523D01*
X55935954Y192714285D01*
X55983573Y192666666D01*
X56078811Y192619047D01*
X56269287Y192619047D01*
X56364525Y192571428D01*
X56412144Y192523809D01*
X56459763Y192428571D01*
X56459763Y192238095D01*
X56412144Y192142857D01*
X56364525Y192095238D01*
X56269287Y192047619D01*
X56078811Y192047619D01*
X55983573Y192095238D01*
X55935954Y192142857D01*
X55888335Y192238095D01*
X55888335Y192428571D01*
X55935954Y192523809D01*
X55983573Y192571428D01*
X56078811Y192619047D01*
%TO.C,D17*%
X39314445Y192048419D02*
X39314445Y193048419D01*
X39076350Y193048419D01*
X38933493Y193000800D01*
X38838255Y192905561D01*
X38790636Y192810323D01*
X38743017Y192619847D01*
X38743017Y192476990D01*
X38790636Y192286514D01*
X38838255Y192191276D01*
X38933493Y192096038D01*
X39076350Y192048419D01*
X39314445Y192048419D01*
X37790636Y192048419D02*
X38362064Y192048419D01*
X38076350Y192048419D02*
X38076350Y193048419D01*
X38171588Y192905561D01*
X38266826Y192810323D01*
X38362064Y192762704D01*
X37457302Y193048419D02*
X36790636Y193048419D01*
X37219207Y192048419D01*
%TO.C,D16*%
X20264365Y192048419D02*
X20264365Y193048419D01*
X20026270Y193048419D01*
X19883413Y193000800D01*
X19788175Y192905561D01*
X19740556Y192810323D01*
X19692937Y192619847D01*
X19692937Y192476990D01*
X19740556Y192286514D01*
X19788175Y192191276D01*
X19883413Y192096038D01*
X20026270Y192048419D01*
X20264365Y192048419D01*
X18740556Y192048419D02*
X19311984Y192048419D01*
X19026270Y192048419D02*
X19026270Y193048419D01*
X19121508Y192905561D01*
X19216746Y192810323D01*
X19311984Y192762704D01*
X17883413Y193048419D02*
X18073889Y193048419D01*
X18169127Y193000800D01*
X18216746Y192953180D01*
X18311984Y192810323D01*
X18359603Y192619847D01*
X18359603Y192238895D01*
X18311984Y192143657D01*
X18264365Y192096038D01*
X18169127Y192048419D01*
X17978651Y192048419D01*
X17883413Y192096038D01*
X17835794Y192143657D01*
X17788175Y192238895D01*
X17788175Y192476990D01*
X17835794Y192572228D01*
X17883413Y192619847D01*
X17978651Y192667466D01*
X18169127Y192667466D01*
X18264365Y192619847D01*
X18311984Y192572228D01*
X18359603Y192476990D01*
%TO.C,D15*%
X-3548234Y192047619D02*
X-3548234Y193047619D01*
X-3786329Y193047619D01*
X-3929186Y193000000D01*
X-4024424Y192904761D01*
X-4072043Y192809523D01*
X-4119662Y192619047D01*
X-4119662Y192476190D01*
X-4072043Y192285714D01*
X-4024424Y192190476D01*
X-3929186Y192095238D01*
X-3786329Y192047619D01*
X-3548234Y192047619D01*
X-5072043Y192047619D02*
X-4500615Y192047619D01*
X-4786329Y192047619D02*
X-4786329Y193047619D01*
X-4691091Y192904761D01*
X-4595853Y192809523D01*
X-4500615Y192761904D01*
X-5976805Y193047619D02*
X-5500615Y193047619D01*
X-5452996Y192571428D01*
X-5500615Y192619047D01*
X-5595853Y192666666D01*
X-5833948Y192666666D01*
X-5929186Y192619047D01*
X-5976805Y192571428D01*
X-6024424Y192476190D01*
X-6024424Y192238095D01*
X-5976805Y192142857D01*
X-5929186Y192095238D01*
X-5833948Y192047619D01*
X-5595853Y192047619D01*
X-5500615Y192095238D01*
X-5452996Y192142857D01*
%TO.C,D14*%
X253627845Y211098499D02*
X253627845Y212098499D01*
X253389750Y212098499D01*
X253246893Y212050880D01*
X253151655Y211955641D01*
X253104036Y211860403D01*
X253056417Y211669927D01*
X253056417Y211527070D01*
X253104036Y211336594D01*
X253151655Y211241356D01*
X253246893Y211146118D01*
X253389750Y211098499D01*
X253627845Y211098499D01*
X252104036Y211098499D02*
X252675464Y211098499D01*
X252389750Y211098499D02*
X252389750Y212098499D01*
X252484988Y211955641D01*
X252580226Y211860403D01*
X252675464Y211812784D01*
X251246893Y211765165D02*
X251246893Y211098499D01*
X251484988Y212146118D02*
X251723083Y211431832D01*
X251104036Y211431832D01*
%TO.C,D13*%
X229815245Y211097619D02*
X229815245Y212097619D01*
X229577150Y212097619D01*
X229434293Y212050000D01*
X229339055Y211954761D01*
X229291436Y211859523D01*
X229243817Y211669047D01*
X229243817Y211526190D01*
X229291436Y211335714D01*
X229339055Y211240476D01*
X229434293Y211145238D01*
X229577150Y211097619D01*
X229815245Y211097619D01*
X228291436Y211097619D02*
X228862864Y211097619D01*
X228577150Y211097619D02*
X228577150Y212097619D01*
X228672388Y211954761D01*
X228767626Y211859523D01*
X228862864Y211811904D01*
X227958102Y212097619D02*
X227339055Y212097619D01*
X227672388Y211716666D01*
X227529531Y211716666D01*
X227434293Y211669047D01*
X227386674Y211621428D01*
X227339055Y211526190D01*
X227339055Y211288095D01*
X227386674Y211192857D01*
X227434293Y211145238D01*
X227529531Y211097619D01*
X227815245Y211097619D01*
X227910483Y211145238D01*
X227958102Y211192857D01*
%TO.C,D12*%
X210765165Y211097619D02*
X210765165Y212097619D01*
X210527070Y212097619D01*
X210384213Y212050000D01*
X210288975Y211954761D01*
X210241356Y211859523D01*
X210193737Y211669047D01*
X210193737Y211526190D01*
X210241356Y211335714D01*
X210288975Y211240476D01*
X210384213Y211145238D01*
X210527070Y211097619D01*
X210765165Y211097619D01*
X209241356Y211097619D02*
X209812784Y211097619D01*
X209527070Y211097619D02*
X209527070Y212097619D01*
X209622308Y211954761D01*
X209717546Y211859523D01*
X209812784Y211811904D01*
X208860403Y212002380D02*
X208812784Y212050000D01*
X208717546Y212097619D01*
X208479451Y212097619D01*
X208384213Y212050000D01*
X208336594Y212002380D01*
X208288975Y211907142D01*
X208288975Y211811904D01*
X208336594Y211669047D01*
X208908022Y211097619D01*
X208288975Y211097619D01*
%TO.C,D11*%
X191715085Y211097619D02*
X191715085Y212097619D01*
X191476990Y212097619D01*
X191334133Y212050000D01*
X191238895Y211954761D01*
X191191276Y211859523D01*
X191143657Y211669047D01*
X191143657Y211526190D01*
X191191276Y211335714D01*
X191238895Y211240476D01*
X191334133Y211145238D01*
X191476990Y211097619D01*
X191715085Y211097619D01*
X190191276Y211097619D02*
X190762704Y211097619D01*
X190476990Y211097619D02*
X190476990Y212097619D01*
X190572228Y211954761D01*
X190667466Y211859523D01*
X190762704Y211811904D01*
X189238895Y211097619D02*
X189810323Y211097619D01*
X189524609Y211097619D02*
X189524609Y212097619D01*
X189619847Y211954761D01*
X189715085Y211859523D01*
X189810323Y211811904D01*
%TO.C,D10*%
X172665005Y211097619D02*
X172665005Y212097619D01*
X172426910Y212097619D01*
X172284053Y212050000D01*
X172188815Y211954761D01*
X172141196Y211859523D01*
X172093577Y211669047D01*
X172093577Y211526190D01*
X172141196Y211335714D01*
X172188815Y211240476D01*
X172284053Y211145238D01*
X172426910Y211097619D01*
X172665005Y211097619D01*
X171141196Y211097619D02*
X171712624Y211097619D01*
X171426910Y211097619D02*
X171426910Y212097619D01*
X171522148Y211954761D01*
X171617386Y211859523D01*
X171712624Y211811904D01*
X170522148Y212097619D02*
X170426910Y212097619D01*
X170331672Y212050000D01*
X170284053Y212002380D01*
X170236434Y211907142D01*
X170188815Y211716666D01*
X170188815Y211478571D01*
X170236434Y211288095D01*
X170284053Y211192857D01*
X170331672Y211145238D01*
X170426910Y211097619D01*
X170522148Y211097619D01*
X170617386Y211145238D01*
X170665005Y211192857D01*
X170712624Y211288095D01*
X170760243Y211478571D01*
X170760243Y211716666D01*
X170712624Y211907142D01*
X170665005Y212002380D01*
X170617386Y212050000D01*
X170522148Y212097619D01*
%TO.C,D9*%
X153138735Y211097619D02*
X153138735Y212097619D01*
X152900640Y212097619D01*
X152757782Y212050000D01*
X152662544Y211954761D01*
X152614925Y211859523D01*
X152567306Y211669047D01*
X152567306Y211526190D01*
X152614925Y211335714D01*
X152662544Y211240476D01*
X152757782Y211145238D01*
X152900640Y211097619D01*
X153138735Y211097619D01*
X152091116Y211097619D02*
X151900640Y211097619D01*
X151805401Y211145238D01*
X151757782Y211192857D01*
X151662544Y211335714D01*
X151614925Y211526190D01*
X151614925Y211907142D01*
X151662544Y212002380D01*
X151710163Y212050000D01*
X151805401Y212097619D01*
X151995878Y212097619D01*
X152091116Y212050000D01*
X152138735Y212002380D01*
X152186354Y211907142D01*
X152186354Y211669047D01*
X152138735Y211573809D01*
X152091116Y211526190D01*
X151995878Y211478571D01*
X151805401Y211478571D01*
X151710163Y211526190D01*
X151662544Y211573809D01*
X151614925Y211669047D01*
%TO.C,D8*%
X134088655Y211097619D02*
X134088655Y212097619D01*
X133850560Y212097619D01*
X133707702Y212050000D01*
X133612464Y211954761D01*
X133564845Y211859523D01*
X133517226Y211669047D01*
X133517226Y211526190D01*
X133564845Y211335714D01*
X133612464Y211240476D01*
X133707702Y211145238D01*
X133850560Y211097619D01*
X134088655Y211097619D01*
X132945798Y211669047D02*
X133041036Y211716666D01*
X133088655Y211764285D01*
X133136274Y211859523D01*
X133136274Y211907142D01*
X133088655Y212002380D01*
X133041036Y212050000D01*
X132945798Y212097619D01*
X132755321Y212097619D01*
X132660083Y212050000D01*
X132612464Y212002380D01*
X132564845Y211907142D01*
X132564845Y211859523D01*
X132612464Y211764285D01*
X132660083Y211716666D01*
X132755321Y211669047D01*
X132945798Y211669047D01*
X133041036Y211621428D01*
X133088655Y211573809D01*
X133136274Y211478571D01*
X133136274Y211288095D01*
X133088655Y211192857D01*
X133041036Y211145238D01*
X132945798Y211097619D01*
X132755321Y211097619D01*
X132660083Y211145238D01*
X132612464Y211192857D01*
X132564845Y211288095D01*
X132564845Y211478571D01*
X132612464Y211573809D01*
X132660083Y211621428D01*
X132755321Y211669047D01*
%TO.C,D7*%
X115038575Y211098499D02*
X115038575Y212098499D01*
X114800480Y212098499D01*
X114657622Y212050880D01*
X114562384Y211955641D01*
X114514765Y211860403D01*
X114467146Y211669927D01*
X114467146Y211527070D01*
X114514765Y211336594D01*
X114562384Y211241356D01*
X114657622Y211146118D01*
X114800480Y211098499D01*
X115038575Y211098499D01*
X114133813Y212098499D02*
X113467146Y212098499D01*
X113895718Y211098499D01*
%TO.C,D6*%
X95988495Y211098499D02*
X95988495Y212098499D01*
X95750400Y212098499D01*
X95607542Y212050880D01*
X95512304Y211955641D01*
X95464685Y211860403D01*
X95417066Y211669927D01*
X95417066Y211527070D01*
X95464685Y211336594D01*
X95512304Y211241356D01*
X95607542Y211146118D01*
X95750400Y211098499D01*
X95988495Y211098499D01*
X94559923Y212098499D02*
X94750400Y212098499D01*
X94845638Y212050880D01*
X94893257Y212003260D01*
X94988495Y211860403D01*
X95036114Y211669927D01*
X95036114Y211288975D01*
X94988495Y211193737D01*
X94940876Y211146118D01*
X94845638Y211098499D01*
X94655161Y211098499D01*
X94559923Y211146118D01*
X94512304Y211193737D01*
X94464685Y211288975D01*
X94464685Y211527070D01*
X94512304Y211622308D01*
X94559923Y211669927D01*
X94655161Y211717546D01*
X94845638Y211717546D01*
X94940876Y211669927D01*
X94988495Y211622308D01*
X95036114Y211527070D01*
%TO.C,D5*%
X76938415Y211098499D02*
X76938415Y212098499D01*
X76700320Y212098499D01*
X76557462Y212050880D01*
X76462224Y211955641D01*
X76414605Y211860403D01*
X76366986Y211669927D01*
X76366986Y211527070D01*
X76414605Y211336594D01*
X76462224Y211241356D01*
X76557462Y211146118D01*
X76700320Y211098499D01*
X76938415Y211098499D01*
X75462224Y212098499D02*
X75938415Y212098499D01*
X75986034Y211622308D01*
X75938415Y211669927D01*
X75843177Y211717546D01*
X75605081Y211717546D01*
X75509843Y211669927D01*
X75462224Y211622308D01*
X75414605Y211527070D01*
X75414605Y211288975D01*
X75462224Y211193737D01*
X75509843Y211146118D01*
X75605081Y211098499D01*
X75843177Y211098499D01*
X75938415Y211146118D01*
X75986034Y211193737D01*
%TO.C,D4*%
X57888335Y211098499D02*
X57888335Y212098499D01*
X57650240Y212098499D01*
X57507382Y212050880D01*
X57412144Y211955641D01*
X57364525Y211860403D01*
X57316906Y211669927D01*
X57316906Y211527070D01*
X57364525Y211336594D01*
X57412144Y211241356D01*
X57507382Y211146118D01*
X57650240Y211098499D01*
X57888335Y211098499D01*
X56459763Y211765165D02*
X56459763Y211098499D01*
X56697859Y212146118D02*
X56935954Y211431832D01*
X56316906Y211431832D01*
%TO.C,D3*%
X38838255Y211097619D02*
X38838255Y212097619D01*
X38600160Y212097619D01*
X38457302Y212050000D01*
X38362064Y211954761D01*
X38314445Y211859523D01*
X38266826Y211669047D01*
X38266826Y211526190D01*
X38314445Y211335714D01*
X38362064Y211240476D01*
X38457302Y211145238D01*
X38600160Y211097619D01*
X38838255Y211097619D01*
X37933493Y212097619D02*
X37314445Y212097619D01*
X37647779Y211716666D01*
X37504921Y211716666D01*
X37409683Y211669047D01*
X37362064Y211621428D01*
X37314445Y211526190D01*
X37314445Y211288095D01*
X37362064Y211192857D01*
X37409683Y211145238D01*
X37504921Y211097619D01*
X37790636Y211097619D01*
X37885874Y211145238D01*
X37933493Y211192857D01*
%TO.C,D2*%
X19788175Y211098499D02*
X19788175Y212098499D01*
X19550080Y212098499D01*
X19407222Y212050880D01*
X19311984Y211955641D01*
X19264365Y211860403D01*
X19216746Y211669927D01*
X19216746Y211527070D01*
X19264365Y211336594D01*
X19311984Y211241356D01*
X19407222Y211146118D01*
X19550080Y211098499D01*
X19788175Y211098499D01*
X18835794Y212003260D02*
X18788175Y212050880D01*
X18692937Y212098499D01*
X18454841Y212098499D01*
X18359603Y212050880D01*
X18311984Y212003260D01*
X18264365Y211908022D01*
X18264365Y211812784D01*
X18311984Y211669927D01*
X18883413Y211098499D01*
X18264365Y211098499D01*
%TO.C,D1*%
X-12660119Y219813095D02*
X-13660119Y219813095D01*
X-13660119Y219575000D01*
X-13612500Y219432142D01*
X-13517261Y219336904D01*
X-13422023Y219289285D01*
X-13231547Y219241666D01*
X-13088690Y219241666D01*
X-12898214Y219289285D01*
X-12802976Y219336904D01*
X-12707738Y219432142D01*
X-12660119Y219575000D01*
X-12660119Y219813095D01*
X-12660119Y218289285D02*
X-12660119Y218860714D01*
X-12660119Y218575000D02*
X-13660119Y218575000D01*
X-13517261Y218670238D01*
X-13422023Y218765476D01*
X-13374404Y218860714D01*
%TO.C,C3*%
X6769662Y160648586D02*
X6817281Y160696205D01*
X6864900Y160839062D01*
X6864900Y160934300D01*
X6817281Y161077158D01*
X6722043Y161172396D01*
X6626805Y161220015D01*
X6436329Y161267634D01*
X6293472Y161267634D01*
X6102996Y161220015D01*
X6007758Y161172396D01*
X5912520Y161077158D01*
X5864900Y160934300D01*
X5864900Y160839062D01*
X5912520Y160696205D01*
X5960139Y160648586D01*
X5864900Y160315253D02*
X5864900Y159696205D01*
X6245853Y160029539D01*
X6245853Y159886681D01*
X6293472Y159791443D01*
X6341091Y159743824D01*
X6436329Y159696205D01*
X6674424Y159696205D01*
X6769662Y159743824D01*
X6817281Y159791443D01*
X6864900Y159886681D01*
X6864900Y160172396D01*
X6817281Y160267634D01*
X6769662Y160315253D01*
%TO.C,C2*%
X-8763058Y145630977D02*
X-8715439Y145583358D01*
X-8572582Y145535739D01*
X-8477344Y145535739D01*
X-8334486Y145583358D01*
X-8239248Y145678596D01*
X-8191629Y145773834D01*
X-8144010Y145964310D01*
X-8144010Y146107167D01*
X-8191629Y146297643D01*
X-8239248Y146392881D01*
X-8334486Y146488120D01*
X-8477344Y146535739D01*
X-8572582Y146535739D01*
X-8715439Y146488120D01*
X-8763058Y146440500D01*
X-9144010Y146440500D02*
X-9191629Y146488120D01*
X-9286867Y146535739D01*
X-9524963Y146535739D01*
X-9620201Y146488120D01*
X-9667820Y146440500D01*
X-9715439Y146345262D01*
X-9715439Y146250024D01*
X-9667820Y146107167D01*
X-9096391Y145535739D01*
X-9715439Y145535739D01*
%TO.C,C1*%
X-8763058Y151312237D02*
X-8715439Y151264618D01*
X-8572582Y151216999D01*
X-8477344Y151216999D01*
X-8334486Y151264618D01*
X-8239248Y151359856D01*
X-8191629Y151455094D01*
X-8144010Y151645570D01*
X-8144010Y151788427D01*
X-8191629Y151978903D01*
X-8239248Y152074141D01*
X-8334486Y152169380D01*
X-8477344Y152216999D01*
X-8572582Y152216999D01*
X-8715439Y152169380D01*
X-8763058Y152121760D01*
X-9715439Y151216999D02*
X-9144010Y151216999D01*
X-9429725Y151216999D02*
X-9429725Y152216999D01*
X-9334486Y152074141D01*
X-9239248Y151978903D01*
X-9144010Y151931284D01*
%TD*%
M02*
